<?xml version="1.0" encoding="iso-8859-1"?>
<!-- Generator: Adobe Illustrator 19.0.0, SVG Export Plug-In . SVG Version: 6.00 Build 0)  -->
<svg version="1.1" id="Layer_1" xmlns="http://www.w3.org/2000/svg" xmlns:xlink="http://www.w3.org/1999/xlink" x="0px" y="0px"
	 viewBox="0 0 512 512" style="enable-background:new 0 0 512 512;" xml:space="preserve">
<rect x="310.314" y="-19.162" transform="matrix(-0.7071 -0.7071 0.7071 -0.7071 456.8062 534.8613)" style="fill:#D37F21;" width="57.725" height="383.969"/>
<path style="fill:#AE965B;" d="M440.021,102.188l-30.209-30.209c-5.469-5.469-5.469-14.336,0-19.805l48.072-48.072
	c5.469-5.469,14.336-5.469,19.805,0l30.209,30.209c5.469,5.469,5.469,14.336,0,19.805l-48.072,48.072
	C454.358,107.657,445.491,107.657,440.021,102.188z"/>
<path style="fill:#68341D;" d="M235.591,372.442c12.694-3.46,24.689-10.152,34.66-20.121c30.533-30.533,30.533-80.038,0-110.572
	s-80.038-30.533-110.572,0c-9.969,9.969-16.661,21.966-20.121,34.66c-36.893-6.542-76.28,4.408-104.784,32.912
	c-46.365,46.365-46.365,121.539,0,167.905s121.539,46.365,167.905,0C231.183,448.723,242.133,409.335,235.591,372.442z"/>
<path style="fill:#91482C;" d="M150.685,252.571c-5.117,7.392-8.843,15.455-11.127,23.838c-36.893-6.542-76.28,4.408-104.784,32.912
	c-46.365,46.365-46.365,121.539,0,167.905c31.394,31.394,75.989,41.5,115.911,30.382V252.571z"/>
<circle style="fill:#271507;" cx="152.508" cy="359.492" r="40.541"/>
<path style="fill:#351D08;" d="M150.687,399.988c-9.759-0.437-19.39-4.382-26.842-11.834c-15.832-15.832-15.832-41.502,0-57.334
	c7.451-7.451,17.082-11.396,26.839-11.834C150.685,318.988,150.722,399.887,150.687,399.988z"/>
<g>
</g>
<g>
</g>
<g>
</g>
<g>
</g>
<g>
</g>
<g>
</g>
<g>
</g>
<g>
</g>
<g>
</g>
<g>
</g>
<g>
</g>
<g>
</g>
<g>
</g>
<g>
</g>
<g>
</g>
</svg>
