<?xml version="1.0" encoding="iso-8859-1"?>
<!-- Generator: Adobe Illustrator 19.0.0, SVG Export Plug-In . SVG Version: 6.00 Build 0)  -->
<svg version="1.1" id="Layer_1" xmlns="http://www.w3.org/2000/svg" xmlns:xlink="http://www.w3.org/1999/xlink" x="0px" y="0px"
	 viewBox="0 0 511.999 511.999" style="enable-background:new 0 0 511.999 511.999;" xml:space="preserve">
<g>
	<path style="fill:#605348;" d="M89.168,224.547c-10.635,0-19.56-8.621-19.56-19.257v-34.662c0-10.635,8.925-19.257,19.56-19.257
		s19.56,8.621,19.56,19.257v34.662C108.727,215.926,99.803,224.547,89.168,224.547z"/>
	<path style="fill:#605348;" d="M199.622,224.547c-10.635,0-19.56-8.621-19.56-19.257v-34.662c0-10.635,8.925-19.257,19.56-19.257
		c10.635,0,19.56,8.621,19.56,19.257v34.662C219.181,215.926,210.257,224.547,199.622,224.547z"/>
</g>
<g>
	<path style="fill:#463C31;" d="M311.226,224.547c-10.635,0-19.56-8.621-19.56-19.257v-34.662c0-10.635,8.925-19.257,19.56-19.257
		c10.635,0,19.56,8.621,19.56,19.257v34.662C330.786,215.926,321.861,224.547,311.226,224.547z"/>
	<path style="fill:#463C31;" d="M421.68,224.547c-10.635,0-19.56-8.621-19.56-19.257v-34.662c0-10.635,8.925-19.257,19.56-19.257
		c10.635,0,19.56,8.621,19.56,19.257v34.662C441.24,215.926,432.315,224.547,421.68,224.547z"/>
</g>
<path style="fill:#09867C;" d="M445.252,31.065h-24.227C413.488,12.656,395.81,0,375.255,0H136.744
	c-20.555,0-38.233,12.656-45.769,31.065H66.44c-29.874,0-54.359,24.055-54.359,53.929v33.027c0,29.885,24.492,53.413,54.377,53.413
	h379.102c29.874,0,54.359-23.52,54.359-53.394V85.301C499.919,55.258,475.297,31.065,445.252,31.065z"/>
<path style="fill:#00A99D;" d="M255.999,0H136.744c-20.555,0-38.233,12.656-45.769,31.065H66.44
	c-29.874,0-54.359,24.055-54.359,53.929v33.027c0,29.885,24.492,53.413,54.377,53.413h189.542V0z"/>
<g>
	<path style="fill:#CAAF68;" d="M138.642,213.302c0-8.508-6.898-15.405-15.405-15.405H56.249c-8.508,0-15.405,6.898-15.405,15.405
		v141.773c0,8.508,6.898,15.405,15.405,15.405h66.987c8.508,0,15.405-6.898,15.405-15.405V213.302H138.642z"/>
	<path style="fill:#CAAF68;" d="M249.096,213.302c0-8.508-6.898-15.405-15.405-15.405h-66.987c-8.508,0-15.405,6.898-15.405,15.405
		v200.452c0,8.508,6.898,15.405,15.405,15.405h66.987c8.508,0,15.405-6.898,15.405-15.405V213.302z"/>
</g>
<g>
	<path style="fill:#AE965B;" d="M360.701,213.302c0-8.508-6.898-15.405-15.405-15.405h-66.987c-8.508,0-15.405,6.898-15.405,15.405
		v247.625c0,8.508,6.898,15.405,15.405,15.405h66.987c8.508,0,15.405-6.898,15.405-15.405V213.302z"/>
	<path style="fill:#AE965B;" d="M471.154,213.302c0-8.508-6.898-15.405-15.405-15.405h-66.987c-8.508,0-15.405,6.898-15.405,15.405
		v283.292c0,8.508,6.898,15.405,15.405,15.405h66.987c8.508,0,15.405-6.898,15.405-15.405V213.302z"/>
</g>
<g>
</g>
<g>
</g>
<g>
</g>
<g>
</g>
<g>
</g>
<g>
</g>
<g>
</g>
<g>
</g>
<g>
</g>
<g>
</g>
<g>
</g>
<g>
</g>
<g>
</g>
<g>
</g>
<g>
</g>
</svg>
