<?xml version="1.0" encoding="iso-8859-1"?>
<!-- Generator: Adobe Illustrator 19.0.0, SVG Export Plug-In . SVG Version: 6.00 Build 0)  -->
<svg version="1.1" id="Layer_1" xmlns="http://www.w3.org/2000/svg" xmlns:xlink="http://www.w3.org/1999/xlink" x="0px" y="0px"
	 viewBox="0 0 512 512" style="enable-background:new 0 0 512 512;" xml:space="preserve">
<path style="fill:#463C31;" d="M256,422.515c-10.652,0-19.864-8.635-19.864-19.288v-114.44c0-10.652,9.212-19.288,19.864-19.288
	s19.864,8.635,19.864,19.288v114.44C275.864,413.879,266.652,422.515,256,422.515z"/>
<path style="fill:#605348;" d="M256,422.515c-10.652,0-19.864-8.635-19.864-19.288v-114.44c0-10.652,9.212-19.288,19.864-19.288
	V422.515z"/>
<path style="fill:#AE965B;" d="M427.232,186.297c-45.938-9.365-106.75-14.524-171.233-14.524s-125.294,5.159-171.233,14.524
	C26.935,198.088,0,214.936,0,239.32s26.935,41.232,84.767,53.022c45.938,9.366,106.75,14.524,171.233,14.524
	s125.294-5.158,171.233-14.524C485.066,280.553,512,263.705,512,239.32S485.065,198.088,427.232,186.297z"/>
<path style="fill:#CAAF68;" d="M256,171.774c-64.482,0-125.294,5.159-171.233,14.524C26.935,198.088,0,214.936,0,239.32
	s26.935,41.232,84.767,53.022c45.938,9.366,106.75,14.524,171.233,14.524L256,171.774L256,171.774z"/>
<path style="fill:#F7D11E;" d="M511.681,157.338c-1.216-24.354-28.959-39.838-87.305-48.729
	c-46.349-7.061-107.34-9.179-171.745-5.966c-64.402,3.216-124.881,11.401-170.296,23.044c-57.169,14.659-83.231,32.83-82.016,57.184
	c1.216,24.354,28.959,39.838,87.305,48.729c32.222,4.91,71.512,7.43,114.114,7.43c18.679,0,38.002-0.485,57.632-1.465
	c64.402-3.216,124.881-11.401,170.296-23.044C486.834,199.863,512.896,181.692,511.681,157.338z"/>
<path style="fill:#E3C000;" d="M511.681,157.338c-1.216-24.354-28.959-39.838-87.305-48.729
	c-46.349-7.061-107.34-9.179-171.745-5.966c-64.402,3.216-124.881,11.401-170.296,23.044c-57.169,14.659-83.231,32.83-82.016,57.184
	c1.216,24.354,28.959,39.838,87.305,48.729c32.222,4.91,71.512,7.43,114.114,7.43c18.679,0,38.002-0.485,57.632-1.465
	c64.402-3.216,124.881-11.401,170.296-23.044C486.834,199.863,512.896,181.692,511.681,157.338z"/>
<path style="fill:#F7D11E;" d="M252.627,102.643c-64.402,3.216-124.88,11.401-170.294,23.044
	c-57.169,14.659-83.23,32.83-82.015,57.184c1.216,24.354,28.959,39.838,87.306,48.729c32.222,4.91,71.508,7.43,114.11,7.43
	c17.611,0,36.265-0.431,54.266-1.302v-135.25L252.627,102.643z"/>
<path style="fill:#463C31;" d="M256,166.634c-10.652,0-19.864-8.635-19.864-19.288v-38.574c0-10.652,9.212-19.288,19.864-19.288
	s19.864,8.635,19.864,19.288v38.575C275.864,157.999,266.652,166.634,256,166.634z"/>
<path style="fill:#605348;" d="M256,166.634c-10.652,0-19.864-8.635-19.864-19.288v-38.574c0-10.652,9.212-19.288,19.864-19.288
	V166.634z"/>
<g>
</g>
<g>
</g>
<g>
</g>
<g>
</g>
<g>
</g>
<g>
</g>
<g>
</g>
<g>
</g>
<g>
</g>
<g>
</g>
<g>
</g>
<g>
</g>
<g>
</g>
<g>
</g>
<g>
</g>
</svg>
