<?xml version="1.0" encoding="iso-8859-1"?>
<!-- Generator: Adobe Illustrator 19.0.0, SVG Export Plug-In . SVG Version: 6.00 Build 0)  -->
<svg version="1.1" id="Layer_1" xmlns="http://www.w3.org/2000/svg" xmlns:xlink="http://www.w3.org/1999/xlink" x="0px" y="0px"
	 viewBox="0 0 511.999 511.999" style="enable-background:new 0 0 511.999 511.999;" xml:space="preserve">
<path style="fill:#91482C;" d="M425.98,43.236L16.258,417.817c-10.26,9.636-16.031,22.695-16.252,36.768s5.139,27.306,15.092,37.258
	c9.757,9.757,22.662,15.099,36.425,15.099c0.277,0,0.556-0.003,0.833-0.006c14.074-0.22,27.132-5.992,36.838-16.325L465.031,82.287
	L425.98,43.236z"/>
<circle style="fill:#AF985C;" cx="446.31" cy="60.635" r="55.579"/>
<path style="fill:#68341D;" d="M495.643,417.723L86.021,43.236L46.97,82.287l375.905,408.398
	c9.636,10.259,22.695,16.031,36.768,16.252c0.278,0.004,0.557,0.006,0.833,0.006c13.761,0,26.669-5.343,36.425-15.099
	c9.953-9.953,15.312-23.185,15.092-37.258C511.773,440.511,506.003,427.453,495.643,417.723z"/>
<circle style="fill:#CAAF68;" cx="65.693" cy="60.635" r="55.579"/>
<g>
</g>
<g>
</g>
<g>
</g>
<g>
</g>
<g>
</g>
<g>
</g>
<g>
</g>
<g>
</g>
<g>
</g>
<g>
</g>
<g>
</g>
<g>
</g>
<g>
</g>
<g>
</g>
<g>
</g>
</svg>
