<?xml version="1.0" encoding="iso-8859-1"?>
<!-- Generator: Adobe Illustrator 19.0.0, SVG Export Plug-In . SVG Version: 6.00 Build 0)  -->
<svg version="1.1" id="Layer_1" xmlns="http://www.w3.org/2000/svg" xmlns:xlink="http://www.w3.org/1999/xlink" x="0px" y="0px"
	 viewBox="0 0 512 512" style="enable-background:new 0 0 512 512;" xml:space="preserve">
<rect x="29.257" y="135.746" style="fill:#68341D;" width="454.813" height="247.916"/>
<rect x="29.257" y="135.746" style="fill:#91482C;" width="227.412" height="247.916"/>
<g>
	<polygon style="fill:#F7D11E;" points="28.913,172.981 28.913,346.353 87.506,346.353 	"/>
	<polygon style="fill:#F7D11E;" points="181.637,153.6 173.969,153.6 108.561,346.353 247.045,346.353 	"/>
</g>
<g>
	<polygon style="fill:#D0B128;" points="340.122,153.6 332.759,153.6 268.1,346.353 404.781,346.353 	"/>
	<polygon style="fill:#D0B128;" points="484.292,172.981 425.824,346.353 484.292,346.353 	"/>
</g>
<path style="fill:#AE965B;" d="M512,356.663c0-11.017-8.93-19.948-19.948-19.948H19.948C8.93,336.715,0,345.646,0,356.663v52.866
	c0,11.017,8.93,19.948,19.948,19.948h472.104c11.017,0,19.948-8.93,19.948-19.948v-52.866H512z"/>
<path style="fill:#CAAF68;" d="M256.602,336.715H19.948C8.93,336.715,0,346.053,0,357.07v53.195c0,11.017,8.93,20.417,19.948,20.417
	h236.655V336.715z"/>
<path style="fill:#AE965B;" d="M512,101.265c0-11.017-8.93-19.948-19.948-19.948H19.948C8.93,81.318,0,90.248,0,101.265v52.866
	c0,11.017,8.93,19.948,19.948,19.948h472.104c11.017,0,19.948-8.93,19.948-19.948v-52.866H512z"/>
<path style="fill:#CAAF68;" d="M256.602,81.318H19.948C8.93,81.318,0,90.718,0,101.735v53.195c0,11.017,8.93,20.355,19.948,20.355
	h236.655V81.318z"/>
<g>
</g>
<g>
</g>
<g>
</g>
<g>
</g>
<g>
</g>
<g>
</g>
<g>
</g>
<g>
</g>
<g>
</g>
<g>
</g>
<g>
</g>
<g>
</g>
<g>
</g>
<g>
</g>
<g>
</g>
</svg>
