<?xml version="1.0" encoding="iso-8859-1"?>
<!-- Generator: Adobe Illustrator 19.0.0, SVG Export Plug-In . SVG Version: 6.00 Build 0)  -->
<svg version="1.1" id="Layer_1" xmlns="http://www.w3.org/2000/svg" xmlns:xlink="http://www.w3.org/1999/xlink" x="0px" y="0px"
	 viewBox="0 0 512 512" style="enable-background:new 0 0 512 512;" xml:space="preserve">
<g>
	<path style="fill:#351D08;" d="M105.688,454.631c-9.728,0-17.615-7.887-17.615-17.615V131.696c0-9.728,7.887-17.615,17.615-17.615
		s17.615,7.887,17.615,17.615v305.321C123.303,446.745,115.416,454.631,105.688,454.631z"/>
	<path style="fill:#351D08;" d="M105.688,101.163c-9.728,0-17.615-7.887-17.615-17.615V50.668c0-9.728,7.887-17.615,17.615-17.615
		s17.615,7.887,17.615,17.615v32.881C123.303,93.277,115.416,101.163,105.688,101.163z"/>
</g>
<path style="fill:#E6E6E6;" d="M151.493,257.284l-100.231-11.72c-11.487-1.343-19.71-11.744-18.366-23.23l1.248-10.677
	c1.343-11.487,11.743-19.71,23.23-18.366l100.231,11.72c11.487,1.343,19.71,11.743,18.366,23.23l-1.248,10.677
	C173.38,250.404,162.98,258.627,151.493,257.284z"/>
<g>
	<path style="fill:#271507;" d="M406.312,454.631c-9.728,0-17.615-7.887-17.615-17.615V131.696c0-9.728,7.887-17.615,17.615-17.615
		s17.615,7.887,17.615,17.615v305.321C423.927,446.745,416.04,454.631,406.312,454.631z"/>
	<path style="fill:#271507;" d="M406.312,101.163c-9.728,0-17.615-7.887-17.615-17.615V50.668c0-9.728,7.887-17.615,17.615-17.615
		s17.615,7.887,17.615,17.615v32.881C423.927,93.277,416.04,101.163,406.312,101.163z"/>
</g>
<path style="fill:#CBCBCC;" d="M360.507,257.284l100.231-11.72c11.487-1.343,19.71-11.744,18.366-23.23l-1.248-10.677
	c-1.343-11.487-11.743-19.71-23.23-18.366l-100.231,11.72c-11.487,1.343-19.71,11.743-18.366,23.23l1.248,10.677
	C338.62,250.404,349.02,258.627,360.507,257.284z"/>
<g>
	<path style="fill:#F7D11E;" d="M193.761,149.31H17.615C7.887,149.31,0,141.424,0,131.696s7.887-17.615,17.615-17.615h176.147
		c9.728,0,17.615,7.887,17.615,17.615S203.489,149.31,193.761,149.31z"/>
	<path style="fill:#F7D11E;" d="M193.761,103.512H17.615C7.887,103.512,0,95.625,0,85.897s7.887-17.615,17.615-17.615h176.147
		c9.728,0,17.615,7.887,17.615,17.615S203.489,103.512,193.761,103.512z"/>
</g>
<g>
	<path style="fill:#E3C000;" d="M494.385,149.31H318.239c-9.728,0-17.615-7.887-17.615-17.615s7.887-17.615,17.615-17.615h176.147
		c9.728,0,17.615,7.887,17.615,17.615S504.113,149.31,494.385,149.31z"/>
	<path style="fill:#E3C000;" d="M494.385,103.512H318.239c-9.728,0-17.615-7.887-17.615-17.615s7.887-17.615,17.615-17.615h176.147
		c9.728,0,17.615,7.887,17.615,17.615S504.113,103.512,494.385,103.512z"/>
</g>
<path style="fill:#271507;" d="M329.744,460.619c-3.575,0-7.183-1.085-10.302-3.339L256,411.438l-63.442,45.839
	c-7.887,5.699-18.897,3.923-24.594-3.962c-5.698-7.885-3.923-18.896,3.962-24.594l73.759-53.293c6.158-4.451,14.475-4.449,20.633,0
	l73.759,53.297c7.885,5.698,9.659,16.709,3.961,24.594C340.592,458.086,335.206,460.619,329.744,460.619z"/>
<g>
	<path style="fill:#605348;" d="M256,411.438l-63.442,45.839c-7.887,5.699-18.897,3.923-24.594-3.962
		c-5.698-7.885-3.923-18.896,3.961-24.594l73.759-53.293c3.079-2.225,6.793-3.337,10.316-3.337L256,411.438L256,411.438z"/>
	<path style="fill:#605348;" d="M147.009,478.947c-2.913,0-5.866-0.723-8.589-2.249l-32.452-18.168l-32.453,18.164
		c-8.488,4.751-19.222,1.722-23.975-6.768c-4.751-8.489-1.722-19.222,6.768-23.975l41.056-22.98c5.347-2.992,11.863-2.992,17.208,0
		l41.056,22.985c8.489,4.752,11.518,15.486,6.765,23.975C159.166,475.7,153.177,478.947,147.009,478.947z"/>
</g>
<path style="fill:#463C31;" d="M364.991,478.947c-6.17,0-12.158-3.247-15.386-9.013c-4.752-8.489-1.724-19.222,6.765-23.975
	l41.056-22.985c5.347-2.993,11.863-2.993,17.208,0l41.056,22.98c8.489,4.751,11.519,15.486,6.768,23.975
	c-4.752,8.49-15.487,11.52-23.975,6.768l-32.453-18.164L373.579,476.7C370.858,478.223,367.905,478.947,364.991,478.947z"/>
<circle style="fill:#09867C;" cx="254.673" cy="306.625" r="107.649"/>
<path style="fill:#00A99D;" d="M254.677,414.277c-59.455,0-107.653-48.197-107.653-107.653s48.197-107.653,107.653-107.653V414.277z
	"/>
<g>
</g>
<g>
</g>
<g>
</g>
<g>
</g>
<g>
</g>
<g>
</g>
<g>
</g>
<g>
</g>
<g>
</g>
<g>
</g>
<g>
</g>
<g>
</g>
<g>
</g>
<g>
</g>
<g>
</g>
</svg>
