<?xml version="1.0" encoding="iso-8859-1"?>
<!-- Generator: Adobe Illustrator 19.0.0, SVG Export Plug-In . SVG Version: 6.00 Build 0)  -->
<svg version="1.1" id="Layer_1" xmlns="http://www.w3.org/2000/svg" xmlns:xlink="http://www.w3.org/1999/xlink" x="0px" y="0px"
	 viewBox="0 0 512 512" style="enable-background:new 0 0 512 512;" xml:space="preserve">
<path style="fill:#09867C;" d="M186.078,458.038c-1.317,0-2.647-0.155-3.964-0.473c-6.685-1.617-11.72-7.131-12.723-13.935
	l-9.913-67.229L14.457,355.447c-7.286-1.053-13.048-6.709-14.235-13.974s2.475-14.461,9.047-17.779L255.64,199.359
	c6.504-3.281,14.377-2.019,19.527,3.132l49.56,49.56c5.834,5.833,6.592,15.029,1.792,21.739L199.797,450.98
	C196.586,455.473,191.442,458.038,186.078,458.038z"/>
<path style="fill:#00A99D;" d="M228.172,213.222L9.27,323.693c-6.572,3.316-10.234,10.513-9.047,17.779s6.948,12.922,14.235,13.974
	l145.02,20.953l9.913,67.229c1.003,6.804,6.038,12.319,12.723,13.935c1.318,0.318,2.647,0.473,3.964,0.473
	c5.364,0,10.508-2.565,13.719-7.056l28.374-39.674V213.222H228.172z"/>
<path style="fill:#463C31;" d="M264.864,276.827c-4.317,0-8.634-1.646-11.927-4.941c-6.587-6.587-6.587-17.267,0-23.854
	L404.812,96.157c6.586-6.587,17.267-6.587,23.854,0c6.587,6.587,6.587,17.267,0,23.854L276.791,271.886
	C273.497,275.18,269.18,276.827,264.864,276.827z"/>
<path style="fill:#E3C000;" d="M511.658,66.641c-1.112-4.173-4.751-7.181-9.06-7.488l-72.482-5.165
	c-3.61-0.258-7.086,1.435-9.11,4.436l-33.449,49.597c-2.709,4.017-2.192,9.39,1.235,12.815l16.044,16.044
	c1.957,1.957,4.548,2.964,7.16,2.964c1.958,0,3.926-0.566,5.646-1.724l89.887-60.474C511.112,75.235,512.771,70.816,511.658,66.641z
	"/>
<path style="fill:#605348;" d="M207.613,348.39c-4.317,0-8.634-1.646-11.927-4.941l-20.674-20.674
	c-6.587-6.587-6.587-17.267,0-23.854c6.586-6.587,17.267-6.587,23.854,0l20.674,20.674c6.587,6.587,6.587,17.267,0,23.854
	C216.247,346.744,211.93,348.39,207.613,348.39z"/>
<path style="fill:#463C31;" d="M236.238,319.765c-4.317,0-8.634-1.646-11.927-4.941l-20.674-20.674
	c-6.587-6.587-6.587-17.267,0-23.854c6.586-6.587,17.267-6.587,23.854,0l20.674,20.674c6.587,6.587,6.587,17.267,0,23.854
	C244.873,318.118,240.555,319.765,236.238,319.765z"/>
<path style="fill:#605348;" d="M228.171,317.715c-1.385-0.756-2.688-1.719-3.859-2.891l-20.674-20.674
	c-6.587-6.587-6.587-17.267,0-23.854c6.586-6.587,17.267-6.587,23.854,0l0.681,0.681L228.171,317.715z"/>
<g>
</g>
<g>
</g>
<g>
</g>
<g>
</g>
<g>
</g>
<g>
</g>
<g>
</g>
<g>
</g>
<g>
</g>
<g>
</g>
<g>
</g>
<g>
</g>
<g>
</g>
<g>
</g>
<g>
</g>
</svg>
