<?xml version="1.0" encoding="iso-8859-1"?>
<!-- Generator: Adobe Illustrator 19.0.0, SVG Export Plug-In . SVG Version: 6.00 Build 0)  -->
<svg version="1.1" id="Layer_1" xmlns="http://www.w3.org/2000/svg" xmlns:xlink="http://www.w3.org/1999/xlink" x="0px" y="0px"
	 viewBox="0 0 511.999 511.999" style="enable-background:new 0 0 511.999 511.999;" xml:space="preserve">
<path style="fill:#605348;" d="M16.719,365.145C8.04,362.715,2.12,354.318,3.09,345.053c1.083-10.343,10.347-17.851,20.69-16.768
	l36.294,3.8c10.347,1.084,17.852,10.347,16.768,20.69c-1.083,10.343-10.347,17.851-20.69,16.768l-36.294-3.8
	C18.778,365.63,17.729,365.428,16.719,365.145z"/>
<path style="fill:#D37F21;" d="M247.289,441.868l42.809-75.779c2.949-5.22,7.103-9.661,12.141-12.909
	c8.909-5.745,18.632-9.847,27.911-14.913c6.246-3.41,13.946-8.95,16.219-16.123c1.998-6.305-2.018-13.352-9.007-13.508
	c-7.186-0.16-14.315-3.308-19.369-9.451c-5.622-6.832-7.128-16.021-4.555-24.14c0.909-2.866,0.548-5.975-0.735-8.694
	c-0.693-1.471-1.307-2.994-1.838-4.571c-0.005-0.026-0.011-0.054-0.016-0.08c-0.87-4.526-4.26-8.067-8.672-9.397
	c-8.743-2.635-16.762-8.324-22.369-17.094c-9.232-14.441-7.836-33.243,3.048-46.483c0.055-0.067,0.11-0.134,0.166-0.199
	c5.01-6.015,1.563-15.226-6.159-16.516c-20.104-3.358-41.474,2.715-56.987,18.226c-5.619,5.619-17.097,27.307-28.475,43.001
	c-5.272,7.27-12.052,13.311-19.828,17.804l-74.052,42.787c-20.821,12.028-39.98,26.735-56.986,43.74l-0.963,0.963
	c-16.917,16.917-13.536,45.206,6.89,57.66c40.047,24.417,73.679,58.05,98.097,98.097c12.454,20.426,40.743,23.806,57.66,6.89
	C219.858,483.539,235.02,463.587,247.289,441.868z"/>
<path style="fill:#F7931E;" d="M245.265,174.519c-9.275,3.106-17.999,8.327-25.387,15.714c-5.619,5.619-17.097,27.307-28.475,43.001
	c-5.272,7.27-12.052,13.311-19.828,17.804l-74.052,42.787c-20.823,12.032-39.982,26.738-56.988,43.743l-0.963,0.963
	c-16.917,16.917-13.536,45.206,6.89,57.66c40.047,24.417,73.679,58.05,98.097,98.097c12.454,20.426,40.743,23.806,57.66,6.89
	c16.683-16.683,31.146-35.438,43.045-55.795V174.519H245.265z"/>
<g>
	<path style="fill:#271507;" d="M223.424,389.224c-4.155,0-8.309-1.585-11.479-4.755l-55.663-55.664
		c-6.34-6.34-6.34-16.618,0-22.957c6.34-6.34,16.618-6.339,22.957,0l55.663,55.664c6.34,6.34,6.34,16.618,0,22.957
		C231.734,387.638,227.578,389.224,223.424,389.224z"/>
	<path style="fill:#271507;" d="M192.821,419.825c-4.155,0-8.309-1.585-11.479-4.755l-55.664-55.663
		c-6.34-6.339-6.34-16.618,0-22.957c6.339-6.34,16.618-6.34,22.957,0l55.664,55.663c6.34,6.339,6.34,16.618,0,22.957
		C201.131,418.241,196.976,419.825,192.821,419.825z"/>
</g>
<path style="fill:#68341D;" d="M228.696,317.367l-2.141-2.141c-11.272-11.272-11.272-29.55,0-40.822L465.136,35.822l42.963,42.963
	l-238.58,238.581C258.245,328.639,239.969,328.639,228.696,317.367z"/>
<path style="fill:#91482C;" d="M245.111,255.846l-18.557,18.557c-11.272,11.272-11.272,29.55,0,40.822l2.141,2.141
	c4.665,4.665,10.53,7.39,16.602,8.186L245.111,255.846z"/>
<path style="fill:#AE965B;" d="M444.689,125.946l-28.078-28.078c-6.148-6.148-7.073-15.789-2.209-22.995L459.118,8.64
	c9.401-13.924,30.817-10.342,35.173,5.884l13.598,50.644c3.045,11.341-0.194,23.447-8.499,31.751l-29.029,29.029
	C463.274,133.036,451.78,133.036,444.689,125.946z"/>
<g>
</g>
<g>
</g>
<g>
</g>
<g>
</g>
<g>
</g>
<g>
</g>
<g>
</g>
<g>
</g>
<g>
</g>
<g>
</g>
<g>
</g>
<g>
</g>
<g>
</g>
<g>
</g>
<g>
</g>
</svg>
