<?xml version="1.0" encoding="iso-8859-1"?>
<!-- Generator: Adobe Illustrator 19.0.0, SVG Export Plug-In . SVG Version: 6.00 Build 0)  -->
<svg version="1.1" id="Layer_1" xmlns="http://www.w3.org/2000/svg" xmlns:xlink="http://www.w3.org/1999/xlink" x="0px" y="0px"
	 viewBox="0 0 512.001 512.001" style="enable-background:new 0 0 512.001 512.001;" xml:space="preserve">
<path style="fill:#68341D;" d="M459.599,148.773l-63.715-92.474L27.376,424.807c-12.133,12.133-12.133,31.802,0,43.935l34.16,34.16
	c12.133,12.133,31.802,12.133,43.935,0L459.599,148.773z"/>
<path style="fill:#91482C;" d="M246.183,206L27.376,424.807c-12.133,12.133-12.133,31.802,0,43.935l34.16,34.16
	c12.133,12.131,31.802,12.131,43.935,0l140.713-140.713V206z"/>
<path style="fill:#E3C000;" d="M492.833,100.493c-6.698-21.515-7.471-44.424-2.348-66.368c2.864-12.273-2.464-24.48-13.474-30.603
	c-11.014-6.123-24.251-4.098-33.161,4.812l-79.393,79.393l78.095,78.095l45.159-45.159
	C493.017,115.356,495.064,107.662,492.833,100.493z"/>
<g>
	<path style="fill:#271507;" d="M330.169,200.108c-7.89-7.89-7.89-20.681,0-28.571l9.524-9.524c7.89-7.89,20.681-7.89,28.571,0
		c7.89,7.89,7.89,20.681,0,28.571l-9.524,9.524C350.851,207.998,338.059,207.998,330.169,200.108z"/>
	<path style="fill:#271507;" d="M287.312,242.965c-7.89-7.89-7.89-20.681,0-28.571l9.524-9.524c7.89-7.89,20.681-7.89,28.571,0
		c7.89,7.89,7.89,20.681,0,28.571l-9.524,9.524C307.994,250.855,295.202,250.855,287.312,242.965z"/>
	<path style="fill:#271507;" d="M239.694,290.584c-7.89-7.89-7.89-20.681,0-28.571l9.524-9.524c7.89-7.89,20.681-7.89,28.571,0
		c7.89,7.89,7.89,20.681,0,28.571l-9.524,9.524C260.375,298.474,247.584,298.474,239.694,290.584z"/>
</g>
<g>
	<path style="fill:#351D08;" d="M239.694,290.584c-7.89-7.89-7.89-20.681,0-28.571l6.251-6.251l0.238-0.238
		c0,0-0.004,39.424-0.001,39.418C243.824,293.956,241.613,292.504,239.694,290.584z"/>
	<path style="fill:#351D08;" d="M192.074,338.203c-7.89-7.89-7.89-20.681,0-28.571l9.524-9.524c7.89-7.89,20.681-7.89,28.571,0
		c7.89,7.89,7.89,20.681,0,28.571l-9.524,9.524C212.756,346.093,199.964,346.093,192.074,338.203z"/>
	<path style="fill:#351D08;" d="M96.837,433.441c-7.89-7.89-7.89-20.681,0-28.571l9.524-9.524c7.89-7.89,20.681-7.89,28.571,0
		c7.89,7.89,7.89,20.681,0,28.571l-9.524,9.524C117.519,441.33,104.726,441.33,96.837,433.441z"/>
</g>
<g>
</g>
<g>
</g>
<g>
</g>
<g>
</g>
<g>
</g>
<g>
</g>
<g>
</g>
<g>
</g>
<g>
</g>
<g>
</g>
<g>
</g>
<g>
</g>
<g>
</g>
<g>
</g>
<g>
</g>
</svg>
