<?xml version="1.0" encoding="iso-8859-1"?>
<!-- Generator: Adobe Illustrator 19.0.0, SVG Export Plug-In . SVG Version: 6.00 Build 0)  -->
<svg version="1.1" id="Layer_1" xmlns="http://www.w3.org/2000/svg" xmlns:xlink="http://www.w3.org/1999/xlink" x="0px" y="0px"
	 viewBox="0 0 512.001 512.001" style="enable-background:new 0 0 512.001 512.001;" xml:space="preserve">
<path style="fill:#463C31;" d="M422.713,12.101c-16.135-16.135-42.293-16.135-58.428,0L12.101,364.284
	c-16.135,16.135-16.135,42.293,0,58.428L89.288,499.9c16.135,16.135,42.293,16.135,58.428,0L499.9,147.716
	c16.135-16.135,16.135-42.293,0-58.428L422.713,12.101z"/>
<path style="fill:#605348;" d="M254.804,121.609L12.101,364.284c-16.135,16.135-16.135,42.293,0,58.428L89.288,499.9
	c16.135,16.135,42.293,16.135,58.428,0l107.491-107.491L254.804,121.609z"/>
<path style="fill:#CBCBCC;" d="M346.41,41.276c-7.802-7.802-20.451-7.802-28.253,0L41.276,318.157
	c-7.802,7.802-7.802,20.451,0,28.253l67.808,67.808c7.802,7.802,20.451,7.802,28.253,0l276.881-276.881
	c7.802-7.802,7.802-20.451,0-28.253L346.41,41.276z"/>
<path style="fill:#E6E6E6;" d="M254.71,104.703L41.027,318.157c-7.802,7.802-7.677,20.451,0.124,28.253l67.87,67.808
	c7.802,7.802,20.234,7.802,28.035,0l118.013-117.701L254.71,104.703z"/>
<path style="fill:#D0B128;" d="M470.325,193.662L193.483,470.504c-7.802,7.802-20.451,7.802-28.253,0
	c-7.802-7.802-7.802-20.451,0-28.253l276.842-276.842c7.802-7.802,20.451-7.802,28.253,0
	C478.127,173.211,478.127,185.86,470.325,193.662z"/>
<path style="fill:#F7D11E;" d="M255.208,408.779l-61.725,61.725c-7.802,7.802-20.451,7.802-28.253,0
	c-7.802-7.802-7.802-20.451,0-28.253l89.978-89.978V408.779z"/>
<g>
	<path style="fill:#AE965B;" d="M114.734,369.012l-9.418,9.418c-7.802,7.802-20.451,7.802-28.253,0
		c-7.802-7.802-7.802-20.451,0-28.253l9.418-9.418c7.802-7.802,20.451-7.802,28.253,0
		C122.536,348.561,122.536,361.21,114.734,369.012z"/>
	<path style="fill:#AE965B;" d="M378.43,105.317l-9.418,9.418c-7.802,7.802-20.451,7.802-28.253,0
		c-7.802-7.802-7.802-20.451,0-28.253l9.418-9.418c7.802-7.802,20.451-7.802,28.253,0C386.232,84.865,386.232,97.515,378.43,105.317
		z"/>
</g>
<g>
</g>
<g>
</g>
<g>
</g>
<g>
</g>
<g>
</g>
<g>
</g>
<g>
</g>
<g>
</g>
<g>
</g>
<g>
</g>
<g>
</g>
<g>
</g>
<g>
</g>
<g>
</g>
<g>
</g>
</svg>
