<?xml version="1.0" encoding="iso-8859-1"?>
<!-- Generator: Adobe Illustrator 19.0.0, SVG Export Plug-In . SVG Version: 6.00 Build 0)  -->
<svg version="1.1" id="Layer_1" xmlns="http://www.w3.org/2000/svg" xmlns:xlink="http://www.w3.org/1999/xlink" x="0px" y="0px"
	 viewBox="0 0 512 512" style="enable-background:new 0 0 512 512;" xml:space="preserve">
<g>
	<path style="fill:#463C31;" d="M267.351,448.48c-7.934-0.276-15.178-5.501-17.646-13.514L138.233,77.57
		c-3.114-10.113,2.559-20.837,12.672-23.951c10.114-3.117,20.837,2.559,23.951,12.672l111.471,357.396
		c3.114,10.113-2.559,20.837-12.672,23.951C271.556,448.285,269.428,448.552,267.351,448.48z"/>
	<path style="fill:#463C31;" d="M315.901,382.355c4.792-5.873,9.383-12.001,13.983-18.139L238.021,65.924
		c-3.114-10.113-13.836-15.788-23.951-12.672c-10.113,3.114-15.786,13.838-12.672,23.951l99.416,322.814
		C306.05,394.311,311.016,388.342,315.901,382.355z"/>
</g>
<g>
	<path style="fill:#605348;" d="M174.856,66.291c-3.114-10.113-13.838-15.788-23.951-12.672
		c-10.114,3.114-15.786,13.838-12.673,23.951l111.471,357.396c2.468,8.014,9.712,13.24,17.646,13.514
		c1.83,0.063,2.403,0.104,2.403,0.104l0.278-76.942L174.856,66.291z"/>
	<path style="fill:#605348;" d="M272.207,176.743L238.019,65.924c-3.114-10.113-13.836-15.788-23.951-12.672
		c-10.114,3.114-15.786,13.838-12.672,23.951l70.95,230.41L272.207,176.743z"/>
</g>
<path style="fill:#463C31;" d="M347.819,320.758c7.606-9.479,14.291-18.234,20.425-28.225l-27.636-89.734
	c-7.831,3.802-16.106,6.675-24.197,8.674c-0.392,0.097-0.781,0.157-1.172,0.232c-2.55,1.158-5.309,1.782-8.112,1.684
	c-1.193-0.041-2.348-0.188-3.475-0.391l36.213,117.589C342.522,327.32,345.179,324.048,347.819,320.758z"/>
<path style="fill:#AE965B;" d="M420.286,112.429c-22.241-2.752-46.632,5.883-65.005,17.743
	c-19.646,12.681-35.435,31.198-44.821,52.621l-2.627,5.955l-78.19-143.924c-4.874-7.522-13.227-12.063-22.19-12.063L96.286,21.577
	l-0.867-2.822C91.903,7.306,81.372,0.001,70.052,0c-2.871,0-5.791,0.47-8.663,1.461C47.876,6.125,40.486,20.898,44.672,34.567
	l142.801,466.425h202.09v-35.288c0-11.758-9.977-21.377-21.735-21.377h-53.695c0,0,147.923-256.023,147.972-256.106
	c11.647-20.163,6.798-45.145-9.858-60.986C442.961,118.399,431.917,113.868,420.286,112.429z M415.502,173.89L258.125,430.055
	c-4.232,6.6-10.988,9.724-17.698,9.724c-8.682,0-17.289-5.238-20.267-14.933L115.912,85.45h77.166
	c2.174,3.333,4.35,7.576,6.524,11.36c5.361,9.326,10.723,18.658,16.084,27.985c6.809,11.844,13.616,23.69,20.425,35.533
	c6.515,11.334,13.031,22.67,19.546,34.005c5.208,8.951,10.426,17.94,15.365,27.006c4.082,7.493,10.694,13.602,18.533,16.993
	c10.173,4.402,22.284,4.227,32.111-0.946c9.47-4.983,16.193-13.626,22.612-21.926c4.914-6.354,9.83-12.708,14.744-19.062
	c2.87-3.71,5.74-7.42,8.609-11.13c10.184-13.174,25.902-20.884,42.553-20.884C415.063,164.385,418.056,169.734,415.502,173.89z"/>
<path style="fill:#CAAF68;" d="M270.003,410.722l-11.877,19.334c-4.232,6.6-10.988,9.724-17.698,9.724
	c-8.682,0-17.289-5.228-20.267-14.924L115.912,85.469h77.166l79.032,137.486l0.147-99.694l-42.613-78.436
	c-4.874-7.522-13.227-12.063-22.19-12.063L96.286,21.577l-0.867-2.822C91.903,7.306,81.372,0.001,70.052,0
	c-2.871,0-5.791,0.47-8.663,1.461C47.876,6.125,40.486,20.711,44.672,34.38l142.801,466.238h82.423L270.003,410.722z"/>
<path style="fill:#351D08;" d="M406.014,512H140.416c-10.582,0-19.16-8.579-19.16-19.16s8.579-19.16,19.16-19.16h265.598
	c10.582,0,19.16,8.579,19.16,19.16S416.596,512,406.014,512z"/>
<path style="fill:#271507;" d="M406.014,512H140.416c-10.582,0-19.16-8.579-19.16-19.16s8.579-19.16,19.16-19.16h265.598
	c10.582,0,19.16,8.579,19.16,19.16S416.596,512,406.014,512z"/>
<path style="fill:#351D08;" d="M269.896,473.678h-129.48c-10.582,0-19.16,8.579-19.16,19.16s8.579,19.16,19.16,19.16h129.481
	v-38.321H269.896z"/>
<g>
</g>
<g>
</g>
<g>
</g>
<g>
</g>
<g>
</g>
<g>
</g>
<g>
</g>
<g>
</g>
<g>
</g>
<g>
</g>
<g>
</g>
<g>
</g>
<g>
</g>
<g>
</g>
<g>
</g>
</svg>
