<?xml version="1.0" encoding="iso-8859-1"?>
<!-- Generator: Adobe Illustrator 19.0.0, SVG Export Plug-In . SVG Version: 6.00 Build 0)  -->
<svg version="1.1" id="Layer_1" xmlns="http://www.w3.org/2000/svg" xmlns:xlink="http://www.w3.org/1999/xlink" x="0px" y="0px"
	 viewBox="0 0 512 512" style="enable-background:new 0 0 512 512;" xml:space="preserve">
<path style="fill:#CBCBCC;" d="M391.806,96.283H253.731L198.245,8.118C195.063,3.064,189.509,0,183.537,0h-62.86
	c-9.598,0-17.597,8.021-17.597,17.618v476.765c0,9.597,7.999,17.618,17.597,17.618h271.129c9.597,0,17.115-8.021,17.115-17.618
	V113.908C408.92,104.311,401.402,96.283,391.806,96.283z"/>
<path style="fill:#E6E6E6;" d="M253.731,96.117L198.245,8.035C195.063,2.98,189.509,0,183.537,0h-62.86
	c-9.598,0-17.597,8.021-17.597,17.618v476.765c0,9.597,7.999,17.618,17.597,17.618H256L253.731,96.117z"/>
<path style="fill:#463C31;" d="M304.708,168.032c0-9.598-7.78-17.377-17.377-17.377H120.457c-9.598,0-17.377,7.78-17.377,17.377
	v272.219c0,9.598,7.78,17.377,17.377,17.377h166.873c9.598,0,17.377-7.78,17.377-17.377V168.032z"/>
<path style="fill:#605348;" d="M254.028,150.655H120.457c-9.598,0-17.377,7.703-17.377,17.3V440.2
	c0,9.597,7.78,17.428,17.377,17.428H256L254.028,150.655z"/>
<g>
	<path style="fill:#463C31;" d="M330.195,150.578c-9.597,0-17.558,7.78-17.558,17.377v13.902c0,9.597,7.961,17.377,17.558,17.377
		c9.597,0,17.557-7.78,17.557-17.377v-13.902C347.752,158.358,339.791,150.578,330.195,150.578z"/>
	<path style="fill:#463C31;" d="M330.195,206.185c-9.597,0-17.558,7.78-17.558,17.377v13.902c0,9.597,7.961,17.377,17.558,17.377
		c9.597,0,17.557-7.78,17.557-17.377v-13.902C347.752,213.965,339.791,206.185,330.195,206.185z"/>
</g>
<path style="fill:#F7D11E;" d="M330.195,317.399c-9.597,0-17.558,7.78-17.558,17.377v13.902c0,9.597,7.961,17.377,17.558,17.377
	c9.597,0,17.557-7.78,17.557-17.377v-13.902C347.752,325.18,339.791,317.399,330.195,317.399z"/>
<circle style="fill:#00A99D;" cx="330.138" cy="437.499" r="16.605"/>
<g>
	<path style="fill:#CBCBCC;" d="M138.195,206.159h64.367c2.388-6.796,8.805-11.327,16.367-11.327h51.797v-9.062H138.195V206.159z"/>
	<path style="fill:#CBCBCC;" d="M202.562,320.566c2.388-6.796,8.805-11.327,16.367-11.327h51.797v-11.327H138.195v22.655H202.562z"
		/>
	<path style="fill:#CBCBCC;" d="M138.195,355.681v21.522h64.367c2.388-6.796,8.805-11.327,16.367-11.327h51.797v-10.195H138.195z"/>
	<path style="fill:#CBCBCC;" d="M202.562,262.796c2.388-6.796,8.805-11.327,16.367-11.327h51.797v-10.195H138.195v21.522H202.562z"
		/>
	<rect x="138.195" y="412.319" style="fill:#CBCBCC;" width="132.531" height="11.327"/>
</g>
<g>
	<path style="fill:#E6E6E6;" d="M254.841,185.333H137.834v20.853h64.727c2.388-6.744,8.805-11.585,16.367-11.585h35.914v-9.268
		H254.841z"/>
	<path style="fill:#E6E6E6;" d="M254.841,297.705H137.834v23.17h64.727c2.388-6.744,8.805-11.585,16.367-11.585h35.914v-11.586
		H254.841z"/>
	<path style="fill:#E6E6E6;" d="M254.841,355.629H137.834v22.011h64.727c2.388-6.744,8.805-11.585,16.367-11.585h35.914v-10.427
		H254.841z"/>
	<path style="fill:#E6E6E6;" d="M254.841,240.94H137.834v22.011h64.727c2.388-6.744,8.805-11.585,16.367-11.585h35.914V240.94
		H254.841z"/>
	<rect x="137.832" y="412.398" style="fill:#E6E6E6;" width="117.012" height="11.585"/>
</g>
<g>
</g>
<g>
</g>
<g>
</g>
<g>
</g>
<g>
</g>
<g>
</g>
<g>
</g>
<g>
</g>
<g>
</g>
<g>
</g>
<g>
</g>
<g>
</g>
<g>
</g>
<g>
</g>
<g>
</g>
</svg>
