<?xml version="1.0" encoding="iso-8859-1"?>
<!-- Generator: Adobe Illustrator 19.0.0, SVG Export Plug-In . SVG Version: 6.00 Build 0)  -->
<svg version="1.1" id="Layer_1" xmlns="http://www.w3.org/2000/svg" xmlns:xlink="http://www.w3.org/1999/xlink" x="0px" y="0px"
	 viewBox="0 0 512 512" style="enable-background:new 0 0 512 512;" xml:space="preserve">
<path style="fill:#351D08;" d="M394.548,487.883L331.525,62.867c-0.962-6.484-4.893-12.147-10.631-15.316L239.588,2.649
	c-6.322-3.493-13.998-3.493-20.322,0l-81.307,44.9c-5.738,3.169-9.669,8.833-10.631,15.316L64.305,487.882
	c-0.896,6.047,0.884,12.192,4.877,16.82c3.992,4.628,9.802,7.297,15.914,7.297h288.66c6.113,0,11.923-2.669,15.914-7.297
	C393.664,500.075,395.445,493.93,394.548,487.883z"/>
<path style="fill:#271507;" d="M394.548,487.883L331.525,62.867c-0.962-6.484-4.893-12.147-10.631-15.316L239.588,2.649
	c-6.322-3.493-13.998-3.493-20.322,0l-81.307,44.9c-5.738,3.169-9.669,8.833-10.631,15.316L64.305,487.882
	c-0.896,6.047,0.884,12.192,4.877,16.82c3.992,4.628,9.802,7.297,15.914,7.297h288.66c6.113,0,11.923-2.669,15.914-7.297
	C393.664,500.075,395.445,493.93,394.548,487.883z"/>
<path style="fill:#351D08;" d="M229.246,0.03c-2.327,0-6.91,0.873-10.071,2.619l-81.262,44.9
	c-5.738,3.169-9.647,8.833-10.608,15.316L64.294,487.882c-0.896,6.047,0.89,12.192,4.883,16.82c3.992,4.628,9.808,7.297,15.92,7.297
	h144.15V0.03H229.246z"/>
<path style="fill:#AE965B;" d="M261.262,165.299H197.59c-11.609,0-21.862,9.211-21.862,20.819v199.945
	c0,11.609,9.832,21.162,21.441,21.162c11.609,0,21.441-9.241,21.441-20.875h21.635c0,11.634,9.652,20.875,21.26,20.875
	s21.26-9.554,21.26-21.162V186.119C282.764,174.51,272.871,165.299,261.262,165.299z"/>
<path style="fill:#CAAF68;" d="M229.246,165.299H197.59c-11.609,0-21.862,9.211-21.862,20.819v199.945
	c0,11.609,9.832,21.162,21.441,21.162c11.609,0,21.441-9.241,21.441-20.875h10.637C229.246,397.984,229.246,165.299,229.246,165.299
	z"/>
<path style="fill:#463C31;" d="M247.156,428.101c-5.552,0-11.092-2.185-15.223-6.523c-8.006-8.406-7.681-21.712,0.725-29.716
	l179.761-171.189c8.406-8.004,21.712-7.681,29.716,0.725c8.006,8.406,7.681,21.712-0.725,29.716L261.649,422.302
	C257.58,426.178,252.362,428.101,247.156,428.101z"/>
<path style="fill:#AE965B;" d="M401.428,293.666c-0.171,0-0.342-0.002-0.513-0.007c-5.574-0.135-10.864-2.479-14.708-6.518
	l-12.693-13.329c-8.006-8.406-7.681-21.71,0.725-29.715l13.329-12.695c4.037-3.844,9.464-5.929,15.009-5.792
	c5.574,0.135,10.864,2.479,14.708,6.518l12.693,13.329c8.006,8.406,7.681,21.71-0.725,29.715l-13.329,12.695
	C412.012,291.594,406.818,293.666,401.428,293.666z"/>
<path style="fill:#68341D;" d="M394.548,487.67l-15.683-105.975H229.426H79.988L64.305,487.67
	c-0.896,6.047,0.884,12.297,4.877,16.926c3.992,4.628,9.802,7.403,15.914,7.403h141.038h147.621c6.113,0,11.923-2.775,15.914-7.403
	C393.664,499.969,395.445,493.718,394.548,487.67z"/>
<g>
	<path style="fill:#91482C;" d="M229.426,381.696H79.988L64.305,487.672c-0.896,6.047,0.884,12.297,4.877,16.926
		c3.992,4.628,9.802,7.403,15.914,7.403h144.284L229.426,381.696z"/>
	<path style="fill:#91482C;" d="M331.526,62.626c-0.962-6.484-4.893-12.027-10.631-15.197L239.588,2.589
		C236.427,0.843,232.927,0,229.427,0c-3.5,0-6.999,0.888-10.161,2.634l-81.307,44.908c-5.738,3.169-9.669,8.597-10.631,15.08
		l-2.667,17.747h104.765h104.765L331.526,62.626z"/>
</g>
<path style="fill:#68341D;" d="M331.526,62.626c-0.962-6.484-4.893-12.027-10.631-15.197L239.497,2.589
	c-3.161-1.746-5.597-2.558-10.251-2.56v80.34h104.946L331.526,62.626z"/>
<g>
</g>
<g>
</g>
<g>
</g>
<g>
</g>
<g>
</g>
<g>
</g>
<g>
</g>
<g>
</g>
<g>
</g>
<g>
</g>
<g>
</g>
<g>
</g>
<g>
</g>
<g>
</g>
<g>
</g>
</svg>
