<?xml version="1.0" encoding="iso-8859-1"?>
<!-- Generator: Adobe Illustrator 19.0.0, SVG Export Plug-In . SVG Version: 6.00 Build 0)  -->
<svg version="1.1" id="Layer_1" xmlns="http://www.w3.org/2000/svg" xmlns:xlink="http://www.w3.org/1999/xlink" x="0px" y="0px"
	 viewBox="0 0 512 512" style="enable-background:new 0 0 512 512;" xml:space="preserve">
<path style="fill:#AE965B;" d="M313.212,436.035l-14.403-269.02c-0.519-9.69-8.527-17.278-18.232-17.278h-49.095
	c-9.704,0-17.713,7.587-18.232,17.278l-14.403,269.023c-0.268,5.005,1.533,9.998,4.981,13.636c3.447,3.638,8.239,5.796,13.25,5.796
	h77.899c5.012,0,9.803-2.16,13.25-5.797C311.68,446.035,313.481,441.039,313.212,436.035z"/>
<path style="fill:#CAAF68;" d="M256.028,149.736h-24.544c-9.704,0-17.713,7.587-18.232,17.278l-14.403,269.022
	c-0.268,5.005,1.533,9.998,4.981,13.636c3.447,3.638,8.239,5.796,13.25,5.796h38.947V149.736H256.028z"/>
<path style="fill:#463C31;" d="M338.302,418.55H173.76c-27.522,0-50.408,22.594-50.408,50.117v24.34
	c0,10.083,8.669,18.993,18.752,18.993h227.854c10.083,0,18.747-8.91,18.747-18.993v-24.34
	C388.704,441.144,365.825,418.55,338.302,418.55z"/>
<path style="fill:#605348;" d="M256.028,418.55h-82.269c-27.522,0-50.408,22.594-50.408,50.117v24.34
	c0,10.083,8.669,18.993,18.752,18.993h113.924V418.55z"/>
<path style="fill:#463C31;" d="M284.695,368.84h-58.431c-56.777,0-102.969-46.192-102.969-102.969V102.969
	C123.295,46.192,169.487,0,226.264,0h58.431c56.777,0,102.969,46.192,102.969,102.969v162.902
	C387.664,322.648,341.472,368.84,284.695,368.84z"/>
<path style="fill:#605348;" d="M256.088,368.84h-29.823c-56.777,0-102.969-46.192-102.969-102.969V102.969
	C123.295,46.192,169.487,0,226.264,0h29.215L256.088,368.84z"/>
<path style="fill:#E6E6E6;" d="M206.418,103.485c-10.083,0-18.459-8.174-18.459-18.257V63.319c0-10.083,8.376-18.257,18.459-18.257
	s18.459,8.174,18.459,18.257v21.909C224.878,95.311,216.502,103.485,206.418,103.485z"/>
<path style="fill:#CBCBCC;" d="M256.028,103.485c-10.083,0-18.459-8.174-18.459-18.257V63.319c0-10.083,8.376-18.257,18.459-18.257
	c10.083,0,18.459,8.174,18.459,18.257v21.909C274.487,95.311,266.111,103.485,256.028,103.485z"/>
<path style="fill:#E6E6E6;" d="M256.028,103.485c-10.383,0-18.459-8.174-18.459-18.257V63.319c0-10.083,8.076-18.257,18.459-18.257
	C256.028,48.712,256.028,103.485,256.028,103.485z"/>
<g>
	<path style="fill:#CBCBCC;" d="M305.637,103.485c-10.083,0-18.459-8.174-18.459-18.257V63.319c0-10.083,8.376-18.257,18.459-18.257
		c10.083,0,18.459,8.174,18.459,18.257v21.909C324.096,95.311,315.72,103.485,305.637,103.485z"/>
	<path style="fill:#CBCBCC;" d="M294.981,190.116h-79.117c-10.083,0-18.257-8.376-18.257-18.459s8.174-18.459,18.257-18.459h79.117
		c10.083,0,18.257,8.376,18.257,18.459C313.239,181.74,305.065,190.116,294.981,190.116z"/>
</g>
<path style="fill:#E6E6E6;" d="M256.028,190.116h-40.164c-10.083,0-18.257-8.376-18.257-18.459s8.174-18.459,18.257-18.459h40.164
	V190.116z"/>
<path style="fill:#CBCBCC;" d="M294.981,238.572h-79.117c-10.083,0-18.257-7.799-18.257-17.882s8.174-17.882,18.257-17.882h79.117
	c10.083,0,18.257,7.799,18.257,17.882C313.239,230.772,305.065,238.572,294.981,238.572z"/>
<path style="fill:#E6E6E6;" d="M256.028,238.572h-40.164c-10.083,0-18.257-7.799-18.257-17.882s8.174-17.882,18.257-17.882h40.164
	V238.572z"/>
<path style="fill:#CBCBCC;" d="M294.981,287.027h-79.117c-10.083,0-18.257-7.799-18.257-17.882s8.174-17.882,18.257-17.882h79.117
	c10.083,0,18.257,7.799,18.257,17.882C313.239,279.228,305.065,287.027,294.981,287.027z"/>
<g>
	<path style="fill:#E6E6E6;" d="M256.028,287.027h-40.164c-10.083,0-18.257-7.799-18.257-17.882s8.174-17.882,18.257-17.882h40.164
		V287.027z"/>
	<path style="fill:#E6E6E6;" d="M162.307,190.116h-7.303c-10.083,0-18.257-8.376-18.257-18.459s8.174-18.459,18.257-18.459h7.303
		c10.083,0,18.257,8.376,18.257,18.459C180.566,181.74,172.391,190.116,162.307,190.116z"/>
</g>
<path style="fill:#CBCBCC;" d="M355.841,190.116h-7.303c-10.083,0-18.257-8.376-18.257-18.459s8.174-18.459,18.257-18.459h7.303
	c10.083,0,18.257,8.376,18.257,18.459C374.098,181.74,365.924,190.116,355.841,190.116z"/>
<path style="fill:#E6E6E6;" d="M162.307,238.572h-7.303c-10.083,0-18.257-7.799-18.257-17.882s8.174-17.882,18.257-17.882h7.303
	c10.083,0,18.257,7.799,18.257,17.882C180.566,230.772,172.391,238.572,162.307,238.572z"/>
<path style="fill:#CBCBCC;" d="M355.841,238.572h-7.303c-10.083,0-18.257-7.799-18.257-17.882s8.174-17.882,18.257-17.882h7.303
	c10.083,0,18.257,7.799,18.257,17.882C374.098,230.772,365.924,238.572,355.841,238.572z"/>
<path style="fill:#E6E6E6;" d="M162.307,287.027h-7.303c-10.083,0-18.257-7.799-18.257-17.882s8.174-17.882,18.257-17.882h7.303
	c10.083,0,18.257,7.799,18.257,17.882C180.566,279.228,172.391,287.027,162.307,287.027z"/>
<path style="fill:#CBCBCC;" d="M355.841,287.027h-7.303c-10.083,0-18.257-7.799-18.257-17.882s8.174-17.882,18.257-17.882h7.303
	c10.083,0,18.257,7.799,18.257,17.882C374.098,279.228,365.924,287.027,355.841,287.027z"/>
<g>
</g>
<g>
</g>
<g>
</g>
<g>
</g>
<g>
</g>
<g>
</g>
<g>
</g>
<g>
</g>
<g>
</g>
<g>
</g>
<g>
</g>
<g>
</g>
<g>
</g>
<g>
</g>
<g>
</g>
</svg>
