<?xml version="1.0" encoding="iso-8859-1"?>
<!-- Generator: Adobe Illustrator 19.0.0, SVG Export Plug-In . SVG Version: 6.00 Build 0)  -->
<svg version="1.1" id="Layer_1" xmlns="http://www.w3.org/2000/svg" xmlns:xlink="http://www.w3.org/1999/xlink" x="0px" y="0px"
	 viewBox="0 0 512 512" style="enable-background:new 0 0 512 512;" xml:space="preserve">
<path style="fill:#463C31;" d="M453.383,338.175c-12.378,0-22.729-10.034-22.729-22.411v-55.282
	c0-12.378,10.351-22.411,22.729-22.411c12.378,0,22.729,10.034,22.729,22.411v55.282
	C476.112,328.141,465.761,338.175,453.383,338.175z"/>
<path style="fill:#605348;" d="M58.617,338.175c-12.378,0-22.729-10.034-22.729-22.411v-55.282
	c0-12.378,10.351-22.411,22.729-22.411s22.729,10.034,22.729,22.411v55.282C81.346,328.141,70.995,338.175,58.617,338.175z"/>
<path style="fill:#271507;" d="M453.383,202.212c-12.378,0-22.729-10.034-22.729-22.411V124.52
	c0-12.378,10.351-22.411,22.729-22.411c12.378,0,22.729,10.034,22.729,22.411v55.282
	C476.112,192.178,465.761,202.212,453.383,202.212z"/>
<path style="fill:#351D08;" d="M58.617,202.212c-12.378,0-22.729-10.034-22.729-22.411V124.52c0-12.378,10.351-22.411,22.729-22.411
	s22.729,10.034,22.729,22.411v55.282C81.346,192.178,70.995,202.212,58.617,202.212z"/>
<path style="fill:#271507;" d="M379.24,0H256H132.76C95.425,0,64.598,31.133,64.598,68.469v420.36
	c0,12.378,10.486,23.17,22.863,23.17H256h168.539c12.378,0,22.863-10.793,22.863-23.17V68.469C447.402,31.133,416.575,0,379.24,0z"
	/>
<path style="fill:#351D08;" d="M256,0H132.76C95.425,0,64.598,31.133,64.598,68.469v420.36c0,12.378,10.486,23.17,22.863,23.17H256
	V0z"/>
<path style="fill:#AF985C;" d="M345.645,314.617H166.355c-12.378,0-22.411-10.351-22.411-22.729s10.034-22.729,22.411-22.729
	h179.291c12.378,0,22.411,10.351,22.411,22.729S358.022,314.617,345.645,314.617z"/>
<path style="fill:#CAAF68;" d="M256,314.617h-89.645c-12.378,0-22.411-10.351-22.411-22.729s10.034-22.729,22.411-22.729H256
	V314.617z"/>
<path style="fill:#AF985C;" d="M345.645,388.785H166.355c-12.378,0-22.411-9.753-22.411-22.131
	c0-12.378,10.034-22.131,22.411-22.131h179.291c12.378,0,22.411,9.753,22.411,22.131
	C368.056,379.032,358.022,388.785,345.645,388.785z"/>
<path style="fill:#CAAF68;" d="M256,388.785h-89.645c-12.378,0-22.411-9.753-22.411-22.131c0-12.378,10.034-22.131,22.411-22.131
	H256V388.785z"/>
<path style="fill:#AF985C;" d="M345.645,464.15H166.355c-12.378,0-22.411-10.351-22.411-22.729
	c0-12.378,10.034-22.729,22.411-22.729h179.291c12.378,0,22.411,10.351,22.411,22.729
	C368.056,453.798,358.022,464.15,345.645,464.15z"/>
<path style="fill:#CAAF68;" d="M256,464.15h-89.645c-12.378,0-22.411-10.351-22.411-22.729c0-12.378,10.034-22.729,22.411-22.729
	H256V464.15z"/>
<path style="fill:#463C31;" d="M447.402,68.469C447.402,31.133,416.575,0,379.24,0H132.76C95.425,0,64.598,31.133,64.598,68.469
	v156.428h382.804V68.469z"/>
<path style="fill:#605348;" d="M256,0H132.76C95.425,0,64.598,31.133,64.598,68.469v156.428H256V0z"/>
<circle style="fill:#E6E6E6;" cx="163.649" cy="119.172" r="31.096"/>
<circle style="fill:#CBCBCC;" cx="256" cy="119.172" r="31.096"/>
<path style="fill:#E6E6E6;" d="M256,150.267c-17.174,0-31.096-13.922-31.096-31.096S238.826,88.076,256,88.076V150.267z"/>
<circle style="fill:#CBCBCC;" cx="348.351" cy="119.172" r="31.096"/>
<g>
</g>
<g>
</g>
<g>
</g>
<g>
</g>
<g>
</g>
<g>
</g>
<g>
</g>
<g>
</g>
<g>
</g>
<g>
</g>
<g>
</g>
<g>
</g>
<g>
</g>
<g>
</g>
<g>
</g>
</svg>
