<?xml version="1.0" encoding="iso-8859-1"?>
<!-- Generator: Adobe Illustrator 19.0.0, SVG Export Plug-In . SVG Version: 6.00 Build 0)  -->
<svg version="1.1" id="Layer_1" xmlns="http://www.w3.org/2000/svg" xmlns:xlink="http://www.w3.org/1999/xlink" x="0px" y="0px"
	 viewBox="0 0 512 512" style="enable-background:new 0 0 512 512;" xml:space="preserve">
<path style="fill:#271507;" d="M102.449,51.061c-0.161,0.995-0.263,2.004-0.263,3.024v136.291c0,10.444,8.467,18.912,18.912,18.912
	h269.804c10.444,0,18.912-8.467,18.912-18.912V54.085c0-1.02-0.101-2.029-0.262-3.024H102.449z"/>
<path style="fill:#351D08;" d="M102.449,51.061c-0.161,0.995-0.263,2.004-0.263,3.024v136.291c0,10.444,8.467,18.912,18.912,18.912
	h143.127V51.061H102.449z"/>
<path style="fill:#CBCBCC;" d="M404.552,41.115l-26.476-27.669c-7.228-7.538-19.201-7.819-26.738-0.589
	c-3.873,3.714-5.808,8.666-5.808,13.64l-179.058,0.046c-0.002-4.963-1.932-9.922-5.792-13.633c-7.532-7.238-19.5-7.003-26.739,0.528
	L107.464,41.1c-3.386,3.523-5.277,7.623-5.277,13.224h307.626C409.813,48.723,407.929,44.636,404.552,41.115z"/>
<path style="fill:#E6E6E6;" d="M259.783,26.513l-93.31,0.026c-0.002-4.963-1.932-9.92-5.792-13.631
	c-7.532-7.238-19.5-7.003-26.739,0.529l-26.477,27.607c-3.386,3.523-5.277,8.125-5.277,13.168h157.595V26.513z"/>
<path style="fill:#463C31;" d="M409.454,190.375v-20.871L267.929,32.668c-7.351-7.098-18.742-7.073-26.061,0.056L102.546,168.669
	v21.707c0,8.472,5.393,15.642,13.072,18.048c0.5-0.397,0.895-0.822,1.362-1.277l138.093-134.53l140.628,135.992
	C403.737,206.429,409.454,199.102,409.454,190.375z"/>
<path style="fill:#605348;" d="M256,27.408c-5.1-0.276-10.287,1.483-14.222,5.316L102.187,168.669v21.707
	c0,8.472,5.573,15.642,13.252,18.048c0.5-0.397,0.985-0.822,1.452-1.277l138.137-134.53l0.972,0.94V27.408z"/>
<path style="fill:#463C31;" d="M325.15,481.538l-50.108-65.047V18.912C275.042,8.468,266.444,0,256,0
	c-10.444,0-19.042,8.467-19.042,18.912v397.579l-50.108,65.047c-6.379,8.27-4.813,20.145,3.457,26.524
	c8.267,6.379,20.098,4.848,26.475-3.424l20.176-26.221v13.281c0,10.444,8.598,18.912,19.042,18.912
	c10.444,0,19.042-8.467,19.042-18.912v-13.281l20.16,26.221c3.725,4.83,9.292,7.362,14.955,7.362c4.032,0,8.113-1.286,11.553-3.938
	C329.98,501.683,331.529,489.807,325.15,481.538z"/>
<path style="fill:#605348;" d="M256,0c-10.444,0-19.042,8.467-19.042,18.912v397.579l-50.108,65.047
	c-6.379,8.27-4.813,20.145,3.457,26.524c8.267,6.379,20.098,4.848,26.475-3.424l20.176-26.221v13.281
	c0,10.444,8.598,18.912,19.042,18.912V0z"/>
<g>
</g>
<g>
</g>
<g>
</g>
<g>
</g>
<g>
</g>
<g>
</g>
<g>
</g>
<g>
</g>
<g>
</g>
<g>
</g>
<g>
</g>
<g>
</g>
<g>
</g>
<g>
</g>
<g>
</g>
</svg>
