<?xml version="1.0" encoding="iso-8859-1"?>
<!-- Generator: Adobe Illustrator 19.0.0, SVG Export Plug-In . SVG Version: 6.00 Build 0)  -->
<svg version="1.1" id="Layer_1" xmlns="http://www.w3.org/2000/svg" xmlns:xlink="http://www.w3.org/1999/xlink" x="0px" y="0px"
	 viewBox="0 0 511.999 511.999" style="enable-background:new 0 0 511.999 511.999;" xml:space="preserve">
<path style="fill:#463C31;" d="M252.562,340.611c-5.062,0-10.125-1.931-13.988-5.795c-7.725-7.725-7.725-20.25,0-27.975
	L478.23,67.184c7.724-7.725,20.251-7.725,27.975,0c7.725,7.725,7.725,20.25,0,27.975L266.549,334.816
	C262.687,338.679,257.624,340.611,252.562,340.611z"/>
<path style="fill:#CBCBCC;" d="M467.32,388.016L285.801,66.689c-21.494-38.061-75.224-38-96.717,0.062L7.565,387.985
	c-21.494,38.064,5.373,85.426,48.358,85.426h363.039C461.949,473.411,488.814,426.08,467.32,388.016z M403.464,420.513H237.443
	H71.422c-9.581,0-15.569-10.667-10.779-19.15l83.011-147.033l83.011-147.018c4.791-8.483,16.766-8.491,21.557-0.008l83.011,146.999
	l83.011,147.062C419.032,409.848,413.045,420.513,403.464,420.513z"/>
<path style="fill:#E6E6E6;" d="M240.769,421.074H71.422c-9.581,0-15.569-10.877-10.779-19.361l83.011-147.138l83.011-147.071
	c2.393-4.238,6.579-6.367,10.766-6.38l0.016-62.759c-18.806,0.006-37.614,9.529-48.361,28.56L7.565,388.28
	c-21.494,38.062,5.373,85.545,48.358,85.545h184.846V421.074z"/>
<circle style="fill:#AE965B;" cx="245.388" cy="324.805" r="36.371"/>
<path style="fill:#CAAF68;" d="M240.445,288.776c-17.746,2.414-31.425,17.618-31.425,36.028c0,18.408,13.679,33.613,31.425,36.027
	V288.776z"/>
<g>
</g>
<g>
</g>
<g>
</g>
<g>
</g>
<g>
</g>
<g>
</g>
<g>
</g>
<g>
</g>
<g>
</g>
<g>
</g>
<g>
</g>
<g>
</g>
<g>
</g>
<g>
</g>
<g>
</g>
</svg>
