<?xml version="1.0" encoding="iso-8859-1"?>
<!-- Generator: Adobe Illustrator 19.0.0, SVG Export Plug-In . SVG Version: 6.00 Build 0)  -->
<svg version="1.1" id="Layer_1" xmlns="http://www.w3.org/2000/svg" xmlns:xlink="http://www.w3.org/1999/xlink" x="0px" y="0px"
	 viewBox="0 0 512 512" style="enable-background:new 0 0 512 512;" xml:space="preserve">
<g>
	<path style="fill:#605348;" d="M64.456,92.53c-11.881,0-21.891-9.632-21.891-21.513V45.202c0-11.881,10.01-21.513,21.891-21.513
		s21.891,9.632,21.891,21.513v25.815C86.347,82.898,76.337,92.53,64.456,92.53z"/>
	<path style="fill:#605348;" d="M123.439,92.53c-11.881,0-21.283-9.632-21.283-21.513V45.202c0-11.881,9.402-21.513,21.283-21.513
		s21.283,9.632,21.283,21.513v25.815C144.722,82.898,135.32,92.53,123.439,92.53z"/>
</g>
<path style="fill:#271507;" d="M512,84.17c0-11.881-9.632-21.513-21.512-21.513H21.513C9.632,62.657,0,72.289,0,84.17v382.628
	c0,11.881,9.632,21.513,21.513,21.513h468.975c11.881,0,21.512-9.632,21.512-21.513V84.17z"/>
<path style="fill:#351D08;" d="M255.392,62.657H21.513C9.632,62.657,0,72.044,0,83.924v382.925c0,11.881,9.632,21.461,21.513,21.461
	h233.879V62.657z"/>
<g>
	<path style="fill:#463C31;" d="M408.739,412.909h-25.815c-11.881,0-21.513-10.01-21.513-21.891s9.632-21.891,21.513-21.891h25.815
		c11.881,0,21.513,10.01,21.513,21.891C430.253,402.899,420.621,412.909,408.739,412.909z"/>
	<path style="fill:#463C31;" d="M194.907,137.414C119.041,137.414,57.32,199.135,57.32,275s61.721,137.587,137.587,137.587
		S332.492,350.866,332.492,275S270.771,137.414,194.907,137.414z"/>
</g>
<path style="fill:#605348;" d="M194.907,137.414C119.041,137.414,57.32,199.135,57.32,275s61.721,137.587,137.587,137.587
	c21.931,0,42.68-5.158,61.098-14.324l-0.4-246.723C237.286,142.498,216.678,137.414,194.907,137.414z"/>
<circle style="fill:#E6E6E6;" cx="194.901" cy="274.996" r="27.011"/>
<path style="fill:#CBCBCC;" d="M395.858,402.312c-11.881,0-21.283-9.632-21.283-21.512V217.303c0-11.881,9.402-21.513,21.283-21.513
	c11.881,0,21.283,9.632,21.283,21.513v163.496C417.14,392.68,407.738,402.312,395.858,402.312z"/>
<path style="fill:#463C31;" d="M423.144,221.605h-54.498c-11.881,0-21.513-9.632-21.513-21.512v-54.498
	c0-11.881,9.632-21.513,21.513-21.513h54.498c11.881,0,21.513,9.632,21.513,21.513v54.498
	C444.657,211.974,435.026,221.605,423.144,221.605z"/>
<g>
</g>
<g>
</g>
<g>
</g>
<g>
</g>
<g>
</g>
<g>
</g>
<g>
</g>
<g>
</g>
<g>
</g>
<g>
</g>
<g>
</g>
<g>
</g>
<g>
</g>
<g>
</g>
<g>
</g>
</svg>
