<?xml version="1.0" encoding="iso-8859-1"?>
<!-- Generator: Adobe Illustrator 19.0.0, SVG Export Plug-In . SVG Version: 6.00 Build 0)  -->
<svg version="1.1" id="Layer_1" xmlns="http://www.w3.org/2000/svg" xmlns:xlink="http://www.w3.org/1999/xlink" x="0px" y="0px"
	 viewBox="0 0 511.999 511.999" style="enable-background:new 0 0 511.999 511.999;" xml:space="preserve">
<path style="fill:#D37F21;" d="M241.462,111.999l-21.921,21.921l0,0c8.098,8.098,7.375,21.435-1.553,28.609l-30.905,24.834
	c-9.28,7.458-23.038,4.785-28.85-5.606l-0.697-1.246c-7.371-13.178-25.295-15.662-35.973-4.984l-33.428,33.428l-27.123,15.98
	c-10.567,6.097-18.721,14.941-25.211,26.359c-21.495,37.814-14.249,85.484,16.507,116.239l27.565,27.565
	c30.755,30.755,78.42,37.998,116.235,16.51c11.419-6.489,20.268-14.644,26.364-25.213l15.98-27.122l33.428-33.428
	c10.677-10.677,8.194-28.6-4.984-35.973l-1.246-0.697c-10.391-5.812-13.063-19.57-5.606-28.85l24.834-30.905
	c7.174-8.927,20.511-9.652,28.609-1.553l0,0l21.921-21.921c25.943-25.943,25.943-68.005,0-93.948l0,0
	C309.467,86.055,267.405,86.055,241.462,111.999z"/>
<path style="fill:#F7931E;" d="M210.873,168.245l-23.791,19.117c-9.281,7.458-23.039,4.785-28.85-5.606l-0.698-1.246
	c-7.371-13.178-25.295-15.662-35.973-4.984l-33.428,33.428l-27.123,15.98c-10.567,6.097-18.721,14.941-25.211,26.359
	c-21.494,37.814-14.249,85.484,16.507,116.239l27.565,27.565c30.755,30.754,78.42,37.998,116.235,16.51
	c5.538-3.148,10.458-6.695,14.766-10.711V168.245z"/>
<path style="fill:#271507;" d="M217.053,229.928c-7.075-7.075-7.075-18.547,0-25.622l199-199c7.075-7.075,18.547-7.075,25.622,0
	s7.075,18.547,0,25.622l-199,199C235.6,237.003,224.129,237.003,217.053,229.928z"/>
<path style="fill:#351D08;" d="M91.177,377.711l-21.479-21.479l50.591-65.724c3.456-4.49,10.072-4.918,14.079-0.912l23.445,23.445
	c4.007,4.007,3.578,10.622-0.912,14.079L91.177,377.711z"/>
<path style="fill:#91482C;" d="M136.635,251.962c-2.018-2.018-3.587-4.542-4.486-7.458c-2.952-9.561,2.407-19.704,11.967-22.657
	l29.074-8.975c9.562-2.951,19.707,2.408,22.656,11.967c2.952,9.561-2.407,19.704-11.967,22.657l-29.074,8.975
	C148.159,258.523,141.232,256.56,136.635,251.962z"/>
<path style="fill:#68341D;" d="M195.446,310.774c-4.597-4.597-6.56-11.524-4.509-18.169l8.975-29.074
	c2.952-9.561,13.096-14.919,22.657-11.967c9.559,2.949,14.919,13.094,11.967,22.656l-8.975,29.074
	c-2.952,9.561-13.096,14.919-22.657,11.967C199.989,314.361,197.464,312.791,195.446,310.774z"/>
<path style="fill:#91482C;" d="M195.446,310.774c-4.597-4.597-6.56-11.524-4.509-18.169l8.975-29.074
	c1.722-5.576,5.888-9.721,10.959-11.625l-0.025,63.977c-2.581,0.375-5.284,0.197-7.942-0.623
	C199.989,314.361,197.464,312.791,195.446,310.774z"/>
<path style="fill:#D37F21;" d="M428.01,41.177l-23.06-23.06c-7.075-7.075-18.547-7.075-25.622,0
	c-2.336,2.336-3.884,5.155-4.677,8.133c-2.978,0.793-5.797,2.341-8.133,4.677c-7.075,7.075-7.075,18.547,0,25.622l23.06,23.06
	c7.075,7.075,18.547,7.075,25.622,0c2.336-2.336,3.884-5.155,4.677-8.133c2.978-0.793,5.797-2.341,8.133-4.677
	C435.085,59.724,435.085,48.252,428.01,41.177z"/>
<path style="fill:#271507;" d="M475.975,307.039l-3.903-48.577l11.165-11.165c7.075-7.075,7.075-18.547,0-25.622
	c-7.075-7.075-18.547-7.075-25.622,0L207.37,471.92c-7.075,7.075-7.075,18.547,0,25.622s18.547,7.075,25.622,0l8.83-8.83
	l18.207,18.207c7.075,7.075,18.47,6.61,25.546-0.465l185.153-185.153C474.482,317.547,476.399,312.333,475.975,307.039z
	 M439.186,301.598L313.564,427.22l-5.124-5.124l129.983-129.983L439.186,301.598z M267.444,463.091l15.373-15.373l5.124,5.124
	l-15.373,15.373L267.444,463.091z"/>
<g>
</g>
<g>
</g>
<g>
</g>
<g>
</g>
<g>
</g>
<g>
</g>
<g>
</g>
<g>
</g>
<g>
</g>
<g>
</g>
<g>
</g>
<g>
</g>
<g>
</g>
<g>
</g>
<g>
</g>
</svg>
