<?xml version="1.0" encoding="iso-8859-1"?>
<!-- Generator: Adobe Illustrator 19.0.0, SVG Export Plug-In . SVG Version: 6.00 Build 0)  -->
<svg version="1.1" id="Layer_1" xmlns="http://www.w3.org/2000/svg" xmlns:xlink="http://www.w3.org/1999/xlink" x="0px" y="0px"
	 viewBox="0 0 512 512" style="enable-background:new 0 0 512 512;" xml:space="preserve">
<path style="fill:#463C31;" d="M493.698,102.753H18.302C7.854,102.753,0,110.718,0,121.165v98.85c0,8.755,5.7,16.365,14.216,18.399
	L489.46,351.923c1.453,0.348,2.85,0.517,4.316,0.517c4.211,0,8.003-1.407,11.374-4.068c4.545-3.587,6.85-9.059,6.85-14.848V121.165
	C512,110.718,504.146,102.753,493.698,102.753z"/>
<path style="fill:#605348;" d="M272.39,102.78H18.302c-10.447,0-18.3,7.938-18.3,18.385v98.85c0,8.755,5.699,16.365,14.215,18.399
	l258.174,61.663V102.78z"/>
<path style="fill:#E6E6E6;" d="M128,101.705c0-10.447-8.469-18.916-18.916-18.916H42.402c-10.447,0-18.916,8.469-18.916,18.916
	v199.378c0,10.447,8.469,18.916,18.916,18.916h66.681c10.447,0,18.916-8.469,18.916-18.916V101.705H128z"/>
<path style="fill:#CAAF68;" d="M247.78,101.705c0-10.447-8.469-18.916-18.916-18.916h-66.681c-10.448,0-18.917,8.469-18.917,18.916
	v233.433c0,10.447,8.469,18.916,18.916,18.916h66.681c10.447,0,18.916-8.469,18.916-18.916V101.705H247.78z"/>
<path style="fill:#CBCBCC;" d="M367.56,101.705c0-10.447-8.469-18.916-18.916-18.916h-66.681c-10.448,0-18.917,8.469-18.917,18.916
	v271.011c0,10.447,8.469,18.916,18.916,18.916h66.681c10.447,0,18.916-8.469,18.916-18.916V101.705H367.56z"/>
<path style="fill:#AE965B;" d="M486.165,101.705c0-10.447-8.469-18.916-18.916-18.916h-66.681c-10.448,0-18.917,8.469-18.917,18.916
	v308.589c0,10.447,8.469,18.916,18.916,18.916h66.681c10.447,0,18.916-8.469,18.916-18.916V101.705H486.165z"/>
<g>
</g>
<g>
</g>
<g>
</g>
<g>
</g>
<g>
</g>
<g>
</g>
<g>
</g>
<g>
</g>
<g>
</g>
<g>
</g>
<g>
</g>
<g>
</g>
<g>
</g>
<g>
</g>
<g>
</g>
</svg>
