<?xml version="1.0" encoding="iso-8859-1"?>
<!-- Generator: Adobe Illustrator 19.0.0, SVG Export Plug-In . SVG Version: 6.00 Build 0)  -->
<svg version="1.1" id="Layer_1" xmlns="http://www.w3.org/2000/svg" xmlns:xlink="http://www.w3.org/1999/xlink" x="0px" y="0px"
	 viewBox="0 0 512 512" style="enable-background:new 0 0 512 512;" xml:space="preserve">
<path style="fill:#AF985C;" d="M455.24,102.135c0-10.345-8.387-18.732-18.732-18.732H76.651c-10.345,0-18.732,8.387-18.732,18.732
	v308.89c0,10.344,8.387,18.731,18.732,18.731h359.858c10.345,0,18.732-8.387,18.732-18.732V102.135H455.24z"/>
<path style="fill:#CAAF68;" d="M256,83.403H76.176c-10.345,0-18.257,8.652-18.257,18.997v308.449
	c0,10.345,7.912,18.907,18.257,18.907H256V83.403z"/>
<path style="fill:#D0B128;" d="M455.66,72.977h-59.173c-10.344,0-18.858,7.564-18.858,17.91v330.227
	c0,10.345,8.514,17.91,18.858,17.91h59.173c31.058-0.001,56.34-24.446,56.34-55.505V128.481
	C512,97.422,486.719,72.977,455.66,72.977z"/>
<path style="fill:#F7D11E;" d="M115.513,72.977H60.086C26.962,72.977,0,99.102,0,132.227v247.546
	c0,33.125,26.962,59.25,60.086,59.25h55.427c10.345,0,17.7-7.564,17.7-17.91V90.887C133.213,80.542,125.857,72.977,115.513,72.977z"
	/>
<g>
	<circle style="fill:#F7931E;" cx="67.129" cy="156.704" r="17.94"/>
	<circle style="fill:#F7931E;" cx="67.129" cy="222.905" r="17.94"/>
</g>
<g>
	<circle style="fill:#91482C;" cx="67.129" cy="289.095" r="17.94"/>
	<circle style="fill:#91482C;" cx="67.129" cy="355.296" r="17.94"/>
</g>
<g>
	<path style="fill:#605348;" d="M173.756,439.571c-10.345,0-18.534-8.387-18.534-18.732V91.161c0-10.345,8.189-18.732,18.534-18.732
		s18.534,8.387,18.534,18.732V420.84C192.29,431.184,184.101,439.571,173.756,439.571z"/>
	<path style="fill:#605348;" d="M228.199,439.571c-10.345,0-18.534-8.387-18.534-18.732V91.161c0-10.345,8.189-18.732,18.534-18.732
		c10.345,0,18.534,8.387,18.534,18.732V420.84C246.733,431.184,238.545,439.571,228.199,439.571z"/>
</g>
<g>
	<path style="fill:#463C31;" d="M283.801,439.571c-10.345,0-18.534-8.387-18.534-18.732V91.161c0-10.345,8.189-18.732,18.534-18.732
		c10.345,0,18.534,8.387,18.534,18.732V420.84C302.335,431.184,294.146,439.571,283.801,439.571z"/>
	<path style="fill:#463C31;" d="M338.244,439.571c-10.345,0-18.534-8.387-18.534-18.732V91.161c0-10.345,8.189-18.732,18.534-18.732
		c10.345,0,18.534,8.387,18.534,18.732V420.84C356.778,431.184,348.59,439.571,338.244,439.571z"/>
</g>
<g>
</g>
<g>
</g>
<g>
</g>
<g>
</g>
<g>
</g>
<g>
</g>
<g>
</g>
<g>
</g>
<g>
</g>
<g>
</g>
<g>
</g>
<g>
</g>
<g>
</g>
<g>
</g>
<g>
</g>
</svg>
