<?xml version="1.0" encoding="iso-8859-1"?>
<!-- Generator: Adobe Illustrator 19.0.0, SVG Export Plug-In . SVG Version: 6.00 Build 0)  -->
<svg version="1.1" id="Layer_1" xmlns="http://www.w3.org/2000/svg" xmlns:xlink="http://www.w3.org/1999/xlink" x="0px" y="0px"
	 viewBox="0 0 512 512" style="enable-background:new 0 0 512 512;" xml:space="preserve">
<g>
	<path style="fill:#351D08;" d="M94.769,499.967c-11.526,0-20.923-9.344-20.923-20.869v-27.826c0-11.526,9.397-20.869,20.923-20.869
		s20.923,9.344,20.923,20.869v27.826C115.692,490.623,106.295,499.967,94.769,499.967z"/>
	<path style="fill:#351D08;" d="M417.231,499.967c-11.526,0-20.923-9.344-20.923-20.869v-27.826
		c0-11.526,9.397-20.869,20.923-20.869c11.526,0,20.923,9.344,20.923,20.869v27.826
		C438.154,490.623,428.757,499.967,417.231,499.967z"/>
</g>
<path style="fill:#463C31;" d="M512,131.647c0-25.276-20.491-45.767-45.767-45.767H45.767C20.491,85.879,0,106.37,0,131.647v294.927
	c0,25.276,20.491,45.767,45.767,45.767h420.465c25.276,0,45.767-20.491,45.767-45.767V131.647z"/>
<path style="fill:#605348;" d="M256,85.879H45.769C20.492,85.879,0,105.851,0,131.127v295.246c0,25.276,20.492,45.969,45.769,45.969
	H256V85.879z"/>
<path style="fill:#463C31;" d="M336.695,12.033H175.305c-20.713,0-37.458,16.439-37.458,37.153v45.721
	c0,11.526,9.397,20.869,20.923,20.869c11.526,0,20.923-9.344,20.923-20.869V61.264H331.13c0.47,0,1.178-0.987,1.178-1.018v34.661
	c0,11.526,9.397,20.869,20.923,20.869c11.526,0,20.923-9.344,20.923-20.869V49.186C374.154,28.473,357.408,12.033,336.695,12.033z"
	/>
<path style="fill:#605348;" d="M256,12.033h-80.695c-20.713,0-37.458,16.439-37.458,37.153v45.721
	c0,11.526,9.397,20.869,20.923,20.869c11.526,0,20.923-9.344,20.923-20.869V61.264H256V12.033z"/>
<path style="fill:#271507;" d="M432.694,324.649H77.914c-11.526,0-20.869-8.782-20.869-20.308s9.344-20.308,20.869-20.308h354.78
	c11.526,0,20.869,8.782,20.869,20.308C453.564,315.867,444.22,324.649,432.694,324.649z"/>
<path style="fill:#351D08;" d="M256,324.649H77.914c-11.526,0-20.869-8.782-20.869-20.308s9.344-20.308,20.869-20.308H256V324.649z"
	/>
<path style="fill:#271507;" d="M432.694,403.418H77.914c-11.526,0-20.869-9.397-20.869-20.923c0-11.526,9.344-20.923,20.869-20.923
	h354.78c11.526,0,20.869,9.397,20.869,20.923C453.564,394.021,444.22,403.418,432.694,403.418z"/>
<path style="fill:#351D08;" d="M256,403.418H77.914c-11.526,0-20.869-9.397-20.869-20.923c0-11.526,9.344-20.923,20.869-20.923H256
	V403.418z"/>
<path style="fill:#AE965B;" d="M512,131.127c0-25.276-20.492-45.247-45.769-45.247H45.769C20.492,85.879,0,105.851,0,131.127v51.984
	h512V131.127z"/>
<path style="fill:#CAAF68;" d="M256,85.879H45.769C20.492,85.879,0,105.851,0,131.127v51.984h256V85.879z"/>
<path style="fill:#463C31;" d="M189.217,85.36H45.769c-25.276,0-45.767,20.491-45.767,45.767v51.623h189.216L189.217,85.36
	L189.217,85.36z"/>
<g>
	<circle style="fill:#E6E6E6;" cx="91.828" cy="147.028" r="16.244"/>
	<circle style="fill:#E6E6E6;" cx="142.363" cy="147.028" r="16.244"/>
</g>
<g>
</g>
<g>
</g>
<g>
</g>
<g>
</g>
<g>
</g>
<g>
</g>
<g>
</g>
<g>
</g>
<g>
</g>
<g>
</g>
<g>
</g>
<g>
</g>
<g>
</g>
<g>
</g>
<g>
</g>
</svg>
