<?xml version="1.0" encoding="iso-8859-1"?>
<!-- Generator: Adobe Illustrator 19.0.0, SVG Export Plug-In . SVG Version: 6.00 Build 0)  -->
<svg version="1.1" id="Layer_1" xmlns="http://www.w3.org/2000/svg" xmlns:xlink="http://www.w3.org/1999/xlink" x="0px" y="0px"
	 viewBox="0 0 511.999 511.999" style="enable-background:new 0 0 511.999 511.999;" xml:space="preserve">
<g>
	<path style="fill:#D37F21;" d="M403.915,155.041H240.738c-9.725,0-17.609-7.884-17.609-17.609s7.884-17.609,17.609-17.609h163.177
		c9.725,0,17.609,7.884,17.609,17.609S413.64,155.041,403.915,155.041z"/>
	<path style="fill:#D37F21;" d="M362.44,278.209c-2.125,0-4.284-0.387-6.383-1.203c-9.064-3.528-13.551-13.734-10.023-22.797
		L412.035,84.64c3.528-9.064,13.733-13.552,22.797-10.023c9.064,3.528,13.551,13.734,10.023,22.797l-66.001,169.568
		C376.144,273.946,369.489,278.209,362.44,278.209z"/>
</g>
<path style="fill:#E3C000;" d="M438.27,105.356c-2.125,0-4.283-0.386-6.383-1.203l-14.85-5.78c-4.353-1.694-7.854-5.048-9.733-9.322
	c-1.881-4.275-1.984-9.123-0.29-13.476l15.025-38.6c3.529-9.063,13.732-13.551,22.797-10.022l14.85,5.78
	c4.353,1.694,7.854,5.048,9.733,9.322c1.881,4.275,1.984,9.123,0.29,13.476l-15.025,38.6
	C451.973,101.094,445.318,105.356,438.27,105.356z"/>
<path style="fill:#F7931E;" d="M322.913,119.823H247.18L233.485,84.64c-3.529-9.064-13.737-13.55-22.797-10.023
	c-9.064,3.528-13.551,13.734-10.023,22.797l66.002,169.568c2.712,6.965,9.366,11.226,16.414,11.226c2.125,0,4.284-0.387,6.383-1.203
	c9.064-3.528,13.551-13.734,10.023-22.797l-38.599-99.168h62.025L322.913,119.823L322.913,119.823z"/>
<path style="fill:#F7D11E;" d="M207.249,105.352c-2.417,0-4.832-0.498-7.087-1.49c-4.275-1.881-7.628-5.38-9.322-9.733l-15.024-38.6
	c-3.528-9.063,0.959-19.269,10.023-22.797l14.85-5.78c4.351-1.693,9.2-1.59,13.474,0.29c4.275,1.881,7.628,5.38,9.322,9.733
	l15.024,38.6c3.528,9.063-0.959,19.269-10.023,22.797l-14.85,5.78C211.581,104.952,209.414,105.352,207.249,105.352z"/>
<path style="fill:#AF985C;" d="M340.522,78.735v181.96c0,9.725-7.884,17.609-17.609,17.609c-9.725,0-17.609-7.884-17.609-17.609"/>
<path style="fill:#AF985C;" d="M305.304,260.695V78.735c0-9.725,7.884-17.609,17.609-17.609c9.725,0,17.609,7.884,17.609,17.609"/>
<path style="fill:#CAAF68;" d="M305.304,260.695V78.735c0-9.725,7.884-17.609,17.609-17.609v217.178"/>
<path style="fill:#E3C000;" d="M348.34,72.009c0,9.725-7.884,17.609-17.609,17.609h-15.935c-9.725,0-17.609-7.884-17.609-17.609
	V30.588c0-9.725,7.884-17.609,17.609-17.609h15.935c9.725,0,17.609,7.884,17.609,17.609"/>
<path style="fill:#F7D11E;" d="M322.913,12.995h-8.119c-9.725,0-17.708,7.87-17.708,17.595v41.42
	c0,9.725,7.983,17.291,17.708,17.291h8.119V12.995z"/>
<path style="fill:#CAAF68;" d="M322.913,278.304c-9.725,0-17.609-7.884-17.609-17.609"/>
<path style="fill:#68341D;" d="M393.661,243.086H243.659c-51.322,0-98.501,25.742-126.205,68.945L25.269,455.765
	c-5.25,8.187-2.868,19.066,5.318,24.316c8.147,5.225,19.168,2.88,24.444-5.224l6.095,3.843v-0.001
	c-5.87,8.149-3.191,19.058,4.959,24.364c2.967,1.932,6.204,2.855,9.499,2.855c5.755,0,11.35-2.82,14.725-8.003l62.68-96.288
	c14.646-22.487,42.258-33.211,68.102-26.816l48.766,39.929c30.326,24.885,68.588,38.477,107.811,38.477c0.156,0,0.318,0,0.474,0
	l15.815,0.05c57.84-0.164,104.895-47.254,104.895-105.093C498.851,290.176,451.662,243.086,393.661,243.086z"/>
<path style="fill:#91482C;" d="M243.659,243.086c-12.852,0-25.443,1.615-37.534,4.713L84.663,53.258
	c-5.149-8.248-16.01-10.763-24.263-5.61c-8.248,5.151-10.761,16.014-5.61,24.263l117.942,188.904
	c-22.109,11.85-41.207,29.276-55.277,51.216L25.269,455.765c-5.25,8.187-2.868,19.066,5.318,24.316
	c8.147,5.225,19.168,2.88,24.444-5.224l6.094,3.843c-5.868,8.149-3.191,19.056,4.96,24.364c2.967,1.932,6.204,2.855,9.499,2.855
	c5.755,0,11.35-2.82,14.725-8.003l62.68-96.287c14.646-22.487,42.258-33.211,68.101-26.816l48.766,39.929
	c15.626,12.823,33.359,22.646,52.244,29.158l0.812-200.814L243.659,243.086L243.659,243.086z"/>
<path style="fill:#F7D11E;" d="M59.461,78.792c-1.325,0-2.655-0.149-3.968-0.453c-4.55-1.052-8.495-3.869-10.969-7.83L22.587,35.376
	c-5.151-8.249-2.639-19.112,5.61-24.263l13.518-8.439c3.961-2.472,8.741-3.274,13.294-2.22c4.55,1.052,8.495,3.869,10.969,7.83
	l21.937,35.134c5.151,8.249,2.639,19.112-5.61,24.263l-13.518,8.439C65.967,77.88,62.732,78.792,59.461,78.792z"/>
<path style="fill:#F7931E;" d="M84.829,511.999c-3.295,0-6.627-0.923-9.593-2.856l-54.087-35.222
	c-8.149-5.307-10.454-16.216-5.147-24.365c5.307-8.149,16.216-10.455,24.365-5.147l54.087,35.222
	c8.149,5.307,10.454,16.216,5.147,24.365C96.225,509.179,90.583,511.999,84.829,511.999z"/>
<g>
</g>
<g>
</g>
<g>
</g>
<g>
</g>
<g>
</g>
<g>
</g>
<g>
</g>
<g>
</g>
<g>
</g>
<g>
</g>
<g>
</g>
<g>
</g>
<g>
</g>
<g>
</g>
<g>
</g>
</svg>
