<?xml version="1.0" encoding="iso-8859-1"?>
<!-- Generator: Adobe Illustrator 19.0.0, SVG Export Plug-In . SVG Version: 6.00 Build 0)  -->
<svg version="1.1" id="Layer_1" xmlns="http://www.w3.org/2000/svg" xmlns:xlink="http://www.w3.org/1999/xlink" x="0px" y="0px"
	 viewBox="0 0 512 512" style="enable-background:new 0 0 512 512;" xml:space="preserve">
<path style="fill:#68341D;" d="M233.395,499.051l85.455-283.696c1.902-6.312,0.18-13.158-4.482-17.82
	c-4.662-4.662-11.508-6.384-17.82-4.482L12.852,278.509c-6.029,1.816-10.762,6.766-12.297,12.873
	c-1.536,6.107,0.15,12.671,4.602,17.123l198.241,198.241c4.452,4.452,11.017,6.138,17.123,4.602
	C226.629,509.813,231.579,505.081,233.395,499.051z"/>
<path style="fill:#91482C;" d="M217.863,216.756L12.852,278.509c-6.03,1.816-10.762,6.766-12.297,12.874
	c-1.536,6.105,0.15,12.671,4.602,17.123l198.241,198.24c3.811,3.811,9.17,5.587,14.464,5.058V216.756z"/>
<circle style="fill:#271507;" cx="157.801" cy="354.169" r="24.836"/>
<rect x="284.644" y="45.502" transform="matrix(-0.7071 -0.7071 0.7071 -0.7071 373.641 567.9666)" style="fill:#AE965B;" width="39.612" height="322.196"/>
<polygon style="fill:#CAAF68;" points="204.543,334.527 176.533,306.517 217.863,265.187 217.863,321.207 "/>
<path style="fill:#09867C;" d="M474.159,5.04c-7.057-7.057-18.664-6.482-24.989,1.238l-62.069,75.759
	c-2.031,2.613-1.777,6.308,0.563,8.647l33.75,33.75c2.34,2.34,6.027,2.602,8.64,0.571l75.766-62.079
	c7.72-6.325,8.294-17.932,1.237-24.988L474.159,5.04z"/>
<g>
</g>
<g>
</g>
<g>
</g>
<g>
</g>
<g>
</g>
<g>
</g>
<g>
</g>
<g>
</g>
<g>
</g>
<g>
</g>
<g>
</g>
<g>
</g>
<g>
</g>
<g>
</g>
<g>
</g>
</svg>
