<?xml version="1.0" encoding="iso-8859-1"?>
<!-- Generator: Adobe Illustrator 19.0.0, SVG Export Plug-In . SVG Version: 6.00 Build 0)  -->
<svg version="1.1" id="Layer_1" xmlns="http://www.w3.org/2000/svg" xmlns:xlink="http://www.w3.org/1999/xlink" x="0px" y="0px"
	 viewBox="0 0 512 512" style="enable-background:new 0 0 512 512;" xml:space="preserve">
<path style="fill:#68341D;" d="M212.188,299.262c-8.068-8.068-8.068-21.149,0-29.217L410.863,71.371
	c8.068-8.068,21.149-8.068,29.217,0c8.068,8.068,8.068,21.149,0,29.217L241.405,299.262
	C233.338,307.331,220.257,307.331,212.188,299.262z"/>
<path style="fill:#D37F21;" d="M241.543,270.882c-55.071-55.071-144.676-55.071-199.748,0
	c-26.677,26.677-41.369,62.147-41.369,99.873c0,37.728,14.692,73.196,41.369,99.873c26.677,26.678,62.147,41.37,99.875,41.37
	s73.196-14.692,99.873-41.37c26.678-26.677,41.369-62.146,41.369-99.873C282.913,333.03,268.221,297.559,241.543,270.882z"/>
<path style="fill:#F7931E;" d="M186.676,236.901c-49.215-16.458-105.76-5.139-144.881,33.982
	C15.118,297.56,0.426,333.03,0.426,370.756c0,37.728,14.692,73.196,41.369,99.873C68.472,497.308,103.942,512,141.669,512
	c15.538,0,30.692-2.498,45.006-7.293V236.901z"/>
<path style="fill:#D37F21;" d="M498.001,13.45c-17.93-17.93-46.884-17.906-64.695-0.096c-5.522,5.522-9.558,12.019-12.262,18.619
	l-41.346,41.346c-6.993,6.993-7.236,18.085-0.243,25.078l31.165,31.165c6.993,6.993,18.572,7.236,25.564,0.243l40.684-40.684
	c5.756-1.86,14.624-3.884,21.471-10.733C516.15,60.578,515.931,31.38,498.001,13.45z"/>
<path style="fill:#E6E6E6;" d="M66.188,492.639c-5.315,0-10.605-2.043-14.614-6.051l-25.736-25.735
	c-7.376-7.375-8.098-19.089-1.682-27.315l20.717-26.561c3.641-4.668,9.111-7.549,15.021-7.914
	c5.907-0.369,11.692,1.827,15.879,6.012l31.58,31.581c4.186,4.187,6.375,9.968,6.011,15.878c-0.364,5.909-3.246,11.378-7.914,15.021
	l-26.561,20.716C75.134,491.197,70.652,492.639,66.188,492.639z"/>
<path style="fill:#351D08;" d="M145.338,419.327c-5.287,0-10.574-2.017-14.608-6.051l-31.58-31.58
	c-8.068-8.068-8.068-21.149-0.001-29.216c8.069-8.068,21.149-8.068,29.217,0l31.58,31.58c8.068,8.068,8.068,21.149,0.001,29.216
	C155.912,417.309,150.625,419.327,145.338,419.327z"/>
<g>
</g>
<g>
</g>
<g>
</g>
<g>
</g>
<g>
</g>
<g>
</g>
<g>
</g>
<g>
</g>
<g>
</g>
<g>
</g>
<g>
</g>
<g>
</g>
<g>
</g>
<g>
</g>
<g>
</g>
</svg>
