<?xml version="1.0" encoding="iso-8859-1"?>
<!-- Generator: Adobe Illustrator 19.0.0, SVG Export Plug-In . SVG Version: 6.00 Build 0)  -->
<svg version="1.1" id="Layer_1" xmlns="http://www.w3.org/2000/svg" xmlns:xlink="http://www.w3.org/1999/xlink" x="0px" y="0px"
	 viewBox="0 0 512 512" style="enable-background:new 0 0 512 512;" xml:space="preserve">
<path style="fill:#68341D;" d="M268.845,512h-25.693c-25.841,0-46.787-20.948-46.787-46.787v-12.846h119.268v12.846
	C315.634,491.052,294.686,512,268.845,512z"/>
<path style="fill:#91482C;" d="M255.999,512L255.999,512c-32.935,0-59.634-26.699-59.634-59.634l0,0h59.988L255.999,512z"/>
<path style="fill:#E3C000;" d="M434.564,323.389l-0.978-0.931c-27.664-29.433-43.168-68.307-43.168-108.701v-11.093
	c0-61.341-41.36-112.961-97.656-128.218V35.728C292.764,16.341,277.094,0,257.707,0h-0.141c-19.387,0-34.884,16.341-34.884,35.728
	v38.96c-56.296,15.558-96.507,66.958-96.507,127.977v8.601c0,41.876-17.336,81.701-46.829,112.721h-0.142
	c-17.04,16.084-26.557,39.453-26.557,63.647v34.649c0,20.219,16.203,36.123,36.421,36.123h333.865
	c20.219,0,36.421-15.904,36.421-36.123v-36.089C459.353,362.856,450.549,340.395,434.564,323.389z"/>
<path style="fill:#F7D11E;" d="M257.707,0h-0.141c-19.387,0-34.884,16.341-34.884,35.728v38.96
	c-56.296,15.558-96.507,66.958-96.507,127.977v8.601c0,41.876-17.336,81.701-46.829,112.721h-0.142
	c-17.04,16.084-26.557,39.453-26.557,63.647v34.649c0,20.219,16.203,36.123,36.421,36.123h166.932L257.707,0z"/>
<path style="fill:#D37F21;" d="M456.575,363.049H55.814c-2.191,8.042-3.167,16.237-3.167,24.585v19.073h406.707v-20.512
	C459.353,378.355,458.514,371.091,456.575,363.049z"/>
<path style="fill:#F7931E;" d="M256.353,363.049H55.814c-2.191,8.042-3.167,16.237-3.167,24.585v19.073H256.19L256.353,363.049z"/>
<g>
</g>
<g>
</g>
<g>
</g>
<g>
</g>
<g>
</g>
<g>
</g>
<g>
</g>
<g>
</g>
<g>
</g>
<g>
</g>
<g>
</g>
<g>
</g>
<g>
</g>
<g>
</g>
<g>
</g>
</svg>
