<?xml version="1.0" encoding="iso-8859-1"?>
<!-- Generator: Adobe Illustrator 19.0.0, SVG Export Plug-In . SVG Version: 6.00 Build 0)  -->
<svg version="1.1" id="Layer_1" xmlns="http://www.w3.org/2000/svg" xmlns:xlink="http://www.w3.org/1999/xlink" x="0px" y="0px"
	 viewBox="0 0 512 512" style="enable-background:new 0 0 512 512;" xml:space="preserve">
<path style="fill:#CAAF68;" d="M108.278,491.653L260.263,327.7c6.052-6.53,5.905-16.953-0.66-22.985
	c-6.378-5.913-16.883-5.03-22.142,0.233l-29.98-29.98c5.264-5.259,6.146-15.764,0.233-22.142
	c-6.041-6.544-16.354-6.815-22.884-0.762L20.827,404.1C8.151,415.584,0.905,431.349,0.468,448.452
	c-0.437,17.141,5.987,33.272,18.111,45.396s28.235,18.568,45.377,18.13C81.061,511.543,96.795,504.329,108.278,491.653z"/>
<path style="fill:#069185;" d="M490.355,217.615c7.264-7.264,7.264-19.042,0-26.306L320.243,21.197
	c-7.264-7.264-19.042-7.264-26.306,0L123.824,191.309c-7.264,7.264-7.264,19.042,0,26.306l170.112,170.112
	c7.264,7.264,19.042,7.264,26.306,0L490.355,217.615z"/>
<path style="fill:#E3C000;" d="M479.798,225.409L286.143,31.754c-7.264-7.264-7.264-19.042,0-26.306
	c7.264-7.264,19.042-7.264,26.306,0l193.655,193.655c7.264,7.264,7.264,19.042,0,26.306
	C498.84,232.673,487.062,232.673,479.798,225.409z"/>
<path style="fill:#00A99D;" d="M255.38,59.754L123.824,191.309c-7.264,7.264-7.264,19.042,0,26.306l131.551,131.551L255.38,59.754z"
	/>
<path style="fill:#E3C000;" d="M300.917,404.291L107.261,210.635c-7.264-7.264-7.264-19.042,0-26.306
	c7.264-7.264,19.042-7.264,26.306,0l193.655,193.655c7.264,7.264,7.264,19.042,0,26.306S308.181,411.554,300.917,404.291z"/>
<path style="fill:#F7D11E;" d="M255.574,358.948L107.261,210.635c-7.264-7.264-7.264-19.042,0-26.306
	c7.264-7.264,19.042-7.264,26.306,0l121.812,121.812L255.574,358.948z"/>
<g>
	<path style="fill:#271507;" d="M289.552,127.298l-8.769-8.769c-7.264-7.264-7.264-19.042,0-26.306
		c7.264-7.264,19.042-7.264,26.306,0l8.769,8.769c7.264,7.264,7.264,19.042,0,26.306S296.817,134.563,289.552,127.298z"/>
	<path style="fill:#271507;" d="M341.287,179.033l-9.645-9.646c-7.264-7.264-7.264-19.042,0-26.306
		c7.264-7.264,19.042-7.264,26.306,0l9.646,9.645c7.264,7.264,7.264,19.042,0,26.306
		C360.33,186.296,348.552,186.298,341.287,179.033z"/>
	<path style="fill:#271507;" d="M392.145,229.891l-8.769-8.769c-7.264-7.264-7.264-19.042,0-26.306
		c7.264-7.264,19.042-7.264,26.306,0l8.769,8.769c7.264,7.264,7.264,19.042,0,26.306
		C411.188,237.156,399.41,237.156,392.145,229.891z"/>
	<path style="fill:#271507;" d="M247.462,169.388l-8.769-8.769c-7.264-7.264-7.264-19.042,0-26.306
		c7.264-7.264,19.042-7.264,26.306,0l8.769,8.769c7.264,7.264,7.264,19.042,0,26.306
		C266.505,176.652,254.726,176.652,247.462,169.388z"/>
</g>
<path style="fill:#351D08;" d="M247.462,169.388l-8.769-8.769c-7.264-7.264-7.264-19.042,0-26.306
	c4.535-4.535,10.828-6.238,16.685-5.111l0.196,44.942C252.604,173.311,249.8,171.725,247.462,169.388z"/>
<g>
	<path style="fill:#271507;" d="M299.198,221.123l-9.645-9.646c-7.264-7.264-7.264-19.042,0-26.306
		c7.264-7.264,19.042-7.264,26.306,0l9.646,9.645c7.264,7.264,7.264,19.042,0,26.306
		C318.24,228.387,306.462,228.387,299.198,221.123z"/>
	<path style="fill:#271507;" d="M350.056,271.982l-8.769-8.769c-7.264-7.264-7.264-19.042,0-26.306
		c7.264-7.264,19.042-7.264,26.306,0l8.769,8.769c7.264,7.264,7.264,19.042,0,26.306
		C369.098,279.246,357.32,279.246,350.056,271.982z"/>
</g>
<path style="fill:#351D08;" d="M205.373,211.477l-8.769-8.769c-7.264-7.264-7.264-19.042,0-26.306
	c7.264-7.264,19.042-7.264,26.306,0l8.769,8.769c7.264,7.264,7.264,19.042,0,26.306
	C224.415,218.741,212.637,218.741,205.373,211.477z"/>
<path style="fill:#271507;" d="M257.107,263.213l-9.646-9.645c-7.264-7.264-7.264-19.042,0-26.306
	c7.264-7.264,19.042-7.264,26.306,0l9.645,9.645c7.264,7.264,7.264,19.042,0,26.306C276.15,270.477,264.372,270.477,257.107,263.213
	z"/>
<path style="fill:#351D08;" d="M255.378,261.483l-7.916-7.916c-7.264-7.264-7.264-19.042,0-26.306
	c2.336-2.336,5.141-3.921,8.11-4.756L255.378,261.483z"/>
<path style="fill:#271507;" d="M307.967,314.071l-8.769-8.769c-7.264-7.264-7.264-19.042,0-26.306s19.042-7.264,26.306,0
	l8.769,8.769c7.264,7.264,7.264,19.042,0,26.306C327.009,321.335,315.231,321.335,307.967,314.071z"/>
<g>
</g>
<g>
</g>
<g>
</g>
<g>
</g>
<g>
</g>
<g>
</g>
<g>
</g>
<g>
</g>
<g>
</g>
<g>
</g>
<g>
</g>
<g>
</g>
<g>
</g>
<g>
</g>
<g>
</g>
</svg>
