<?xml version="1.0" encoding="iso-8859-1"?>
<!-- Generator: Adobe Illustrator 19.0.0, SVG Export Plug-In . SVG Version: 6.00 Build 0)  -->
<svg version="1.1" id="Layer_1" xmlns="http://www.w3.org/2000/svg" xmlns:xlink="http://www.w3.org/1999/xlink" x="0px" y="0px"
	 viewBox="0 0 512.001 512.001" style="enable-background:new 0 0 512.001 512.001;" xml:space="preserve">
<path style="fill:#AF985C;" d="M441.977,70.473c-23.732-23.732-61.655-23.042-85.387,0.689L71.559,356.194
	c-23.732,23.732-24.42,61.655-0.689,85.387c23.732,23.732,61.655,23.042,85.387-0.689l285.032-285.032
	C465.02,132.128,465.709,94.203,441.977,70.473z"/>
<path style="fill:#CAAF68;" d="M441.977,70.473c-23.869-23.869-61.655-23.042-85.387,0.689L71.559,356.194
	c-23.732,23.732-24.558,61.517-0.689,85.387L441.977,70.473z"/>
<path style="fill:#68341D;" d="M503.821,234.3c8.129-14.08,10.288-30.482,6.079-46.185c-4.208-15.704-14.279-28.828-28.357-36.957
	c-14.08-8.13-30.482-10.288-46.186-6.08L45.996,249.405c-15.703,4.208-28.641,14.466-36.77,28.546
	c-8.129,14.08-10.154,30.616-5.893,46.373l0.001-0.001c2.33,9.989,8.019,19.589,15.477,27.047c3.738,3.738,7.899,6.916,12.6,9.63
	c14.08,8.13,30.435,10.241,46.139,6.034l389.338-104.353C482.59,258.474,495.692,248.379,503.821,234.3z"/>
<path style="fill:#91482C;" d="M340.167,170.743L44.98,250.065c-15.703,4.208-28.82,14.449-36.95,28.528s-9.92,30.188-6.124,46.303
	l0.026,0.026c3.552,9.712,8.301,19.709,15.759,27.166c3.738,3.738,8.04,6.976,12.74,9.689c14.08,8.13,30.327,10.093,46.031,5.886
	l91.553-24.768L340.167,170.743z"/>
<g>
</g>
<g>
</g>
<g>
</g>
<g>
</g>
<g>
</g>
<g>
</g>
<g>
</g>
<g>
</g>
<g>
</g>
<g>
</g>
<g>
</g>
<g>
</g>
<g>
</g>
<g>
</g>
<g>
</g>
</svg>
