<?xml version="1.0" encoding="iso-8859-1"?>
<!-- Generator: Adobe Illustrator 19.0.0, SVG Export Plug-In . SVG Version: 6.00 Build 0)  -->
<svg version="1.1" id="Layer_1" xmlns="http://www.w3.org/2000/svg" xmlns:xlink="http://www.w3.org/1999/xlink" x="0px" y="0px"
	 viewBox="0 0 512 512" style="enable-background:new 0 0 512 512;" xml:space="preserve">
<path style="fill:#D27E20;" d="M437.59,112.702H244.016l-4.03,15.924c-12.774,51.868-12.837,106.487-0.182,158.381l34.869,153.786
	c1.561,6.886,7.68,11.714,14.741,11.714h102.775c7.06,0,13.18-4.938,14.741-11.824l34.869-153.867
	c12.655-51.894,12.592-106.308-0.181-158.176L437.59,112.702z"/>
<path style="fill:#09867C;" d="M274.674,440.889c1.561,6.887,7.68,11.615,14.741,11.615h102.775c7.06,0,13.18-4.73,14.741-11.615
	l8.295-36.438H266.381L274.674,440.889z"/>
<g>
	<path style="fill:#605348;" d="M301.368,135.026c-8.348,0-16.018-6.767-16.018-15.115V58.445c0-8.348,7.67-15.115,16.018-15.115
		s16.018,6.767,16.018,15.115v61.466C317.386,128.258,309.715,135.026,301.368,135.026z"/>
	<path style="fill:#605348;" d="M308.257,135.584h-15.115c-6.677,0-12.092-4.763-12.092-11.441s5.414-11.441,12.092-11.441h15.115
		c6.677,0,12.092,4.763,12.092,11.441S314.934,135.584,308.257,135.584z"/>
</g>
<path style="fill:#09867C;" d="M427.021,69.345c-1.995-8.106-10.188-13.207-18.29-11.214c-6.894,1.698-11.49,7.66-11.486,14.525
	H284.361c0.005-6.865-4.591-13.048-11.486-14.745c-8.108-1.998-16.295,3.364-18.29,11.469l-10.568,43.321H437.59L427.021,69.345z"/>
<path style="fill:#605348;" d="M422.422,87.634H259.184c-8.348,0-15.115-6.767-15.115-15.115s6.767-15.115,15.115-15.115h163.237
	c8.348,0,15.115,6.767,15.115,15.115S430.769,87.634,422.422,87.634z"/>
<path style="fill:#AE965B;" d="M334.288,91.643l-5.218-21.188l-13.685-55.564c-2.583-10.496-13.192-16.674-23.681-14.093
	c-8.926,2.199-14.877,10.079-14.871,19.232H130.673c0.006-9.153-5.945-17.033-14.871-19.232
	c-10.498-2.586-21.098,3.714-23.681,14.208L78.437,70.512l-5.218,21.159c-16.539,67.156-16.621,138.147-0.236,205.338
	l45.148,199.471c2.021,8.916,9.945,15.52,19.086,15.52h133.07c9.142,0,17.065-6.611,19.086-15.527l45.148-199.331
	C350.906,229.95,350.826,158.799,334.288,91.643z"/>
<path style="fill:#CAAF68;" d="M202.973,20.028h-72.3c0.006-9.153-5.945-17.033-14.871-19.232
	C105.303-1.789,94.704,4.51,92.121,15.004L78.437,70.512l-5.218,21.159c-16.539,67.156-16.621,138.147-0.236,205.338l45.148,199.471
	c2.021,8.916,9.945,15.52,19.086,15.52h65.757V20.028H202.973z"/>
<path style="fill:#351D08;" d="M152.632,174.827c-10.809,0-19.45-8.762-19.45-19.57V75.673c0-10.809,8.642-19.57,19.45-19.57
	s19.45,8.762,19.45,19.57v79.584C172.082,166.066,163.441,174.827,152.632,174.827z"/>
<path style="fill:#271507;" d="M255.603,174.827c-10.809,0-19.45-8.762-19.45-19.57V75.673c0-10.809,8.642-19.57,19.45-19.57
	c10.809,0,19.45,8.762,19.45,19.57v79.584C275.053,166.066,266.412,174.827,255.603,174.827z"/>
<path style="fill:#605348;" d="M161.612,175.628h-19.57c-8.646,0-15.656-6.799-15.656-15.446s7.01-15.446,15.656-15.446h19.57
	c8.646,0,15.656,6.799,15.656,15.446S170.257,175.628,161.612,175.628z"/>
<path style="fill:#463C31;" d="M265.985,175.628h-19.57c-8.646,0-15.656-6.799-15.656-15.446s7.01-15.446,15.656-15.446h19.57
	c8.646,0,15.656,6.799,15.656,15.446S274.631,175.628,265.985,175.628z"/>
<path style="fill:#09867C;" d="M315.385,14.847c-2.583-10.496-13.192-16.653-23.681-14.073
	c-8.926,2.199-14.877,10.099-14.871,19.252H130.673c0.006-9.153-5.945-17.033-14.871-19.232
	c-10.498-2.586-21.098,3.671-23.681,14.165L78.437,70.369h250.632L315.385,14.847z"/>
<path style="fill:#00A99D;" d="M203.753,20.028h-73.08c0.006-9.153-5.945-17.033-14.871-19.232
	c-10.498-2.586-21.098,3.671-23.681,14.165L78.437,70.369h125.317C203.753,70.369,203.747,10.875,203.753,20.028z"/>
<path style="fill:#463C31;" d="M309.429,39.14H98.075c-10.809,0-19.57-8.762-19.57-19.57S87.266,0,98.075,0h211.355
	C320.238,0,329,8.762,329,19.57S320.238,39.14,309.429,39.14z"/>
<path style="fill:#605348;" d="M203.753,39.14H98.075c-10.809,0-19.57-8.762-19.57-19.57S87.266,0,98.075,0h105.678V39.14z"/>
<path style="fill:#09867C;" d="M118.131,496.606c2.021,8.916,9.945,15.394,19.086,15.394h133.07c9.142,0,17.065-6.478,19.086-15.394
	l10.739-47.533h-192.72L118.131,496.606z"/>
<path style="fill:#00A99D;" d="M118.131,496.606c2.021,8.916,9.945,15.394,19.086,15.394h66.144l0.391-62.927h-96.36
	L118.131,496.606z"/>
<g>
</g>
<g>
</g>
<g>
</g>
<g>
</g>
<g>
</g>
<g>
</g>
<g>
</g>
<g>
</g>
<g>
</g>
<g>
</g>
<g>
</g>
<g>
</g>
<g>
</g>
<g>
</g>
<g>
</g>
</svg>
