<?xml version="1.0" encoding="iso-8859-1"?>
<!-- Generator: Adobe Illustrator 19.0.0, SVG Export Plug-In . SVG Version: 6.00 Build 0)  -->
<svg version="1.1" id="Layer_1" xmlns="http://www.w3.org/2000/svg" xmlns:xlink="http://www.w3.org/1999/xlink" x="0px" y="0px"
	 viewBox="0 0 512.001 512.001" style="enable-background:new 0 0 512.001 512.001;" xml:space="preserve">
<path style="fill:#271507;" d="M351.245,488.908l-34.748-194.495c-1.627-9.112-9.552-15.658-18.807-15.658h-83.376
	c-9.256,0-17.179,6.546-18.807,15.658l-34.748,194.54c-0.993,5.566,0.529,11.58,4.16,15.914c3.63,4.336,8.994,7.134,14.648,7.134
	h152.872c5.655,0,11.018-2.819,14.648-7.155C350.715,500.51,352.238,494.474,351.245,488.908z"/>
<path style="fill:#351D08;" d="M256.001,278.756h-41.688c-9.256,0-17.179,6.546-18.807,15.658l-34.748,194.54
	c-0.993,5.566,0.529,11.58,4.16,15.914c3.63,4.336,8.994,7.134,14.648,7.134h76.436V278.756z"/>
<path style="fill:#68341D;" d="M343.149,443.733H168.864l-8.107,45.318c-0.993,5.566,0.529,11.53,4.16,15.865
	c3.63,4.336,8.994,7.084,14.648,7.084h152.872c5.655,0,11.018-2.819,14.648-7.155c3.63-4.335,5.153-10.314,4.16-15.88
	L343.149,443.733z"/>
<path style="fill:#91482C;" d="M256.001,443.733h-87.137l-8.107,45.318c-0.993,5.566,0.529,11.53,4.16,15.865
	c3.63,4.336,8.994,7.084,14.648,7.084h76.436V443.733z"/>
<path style="fill:#463C31;" d="M326.914,352.796l-5.406-30.244c-3.169-1.817-6.83-2.871-10.744-2.871H199.959
	c-3.348,0-6.507,0.783-9.338,2.14l-5.534,30.975H326.914z"/>
<path style="fill:#605348;" d="M256,319.681h-56.041c-3.348,0-6.507,0.783-9.338,2.14l-5.534,30.975h70.912L256,319.681z"/>
<path style="fill:#AE965B;" d="M338.806,329.956H174.838c-9.325,0-17.287-6.775-18.838-15.97L112.665,56.954
	c-0.872-5.169,0.419-10.48,3.569-14.669l26.057-34.657C145.902,2.829,151.557,0,157.562,0h196.879c6.005,0,11.66,2.823,15.269,7.622
	l26.057,34.652c3.125,4.156,4.421,9.408,3.589,14.542l-41.693,257.052C356.164,323.117,348.176,329.956,338.806,329.956z"/>
<path style="fill:#CAAF68;" d="M256.001,329.956h-81.163c-9.325,0-17.287-6.775-18.838-15.97L112.665,56.954
	c-0.872-5.169,0.419-10.48,3.569-14.669l26.057-34.657C145.902,2.829,151.557,0,157.562,0h98.439V329.956z"/>
<rect x="236.659" style="fill:#68341D;" width="38.684" height="329.956"/>
<polygon style="fill:#91482C;" points="164.416,0 185.41,329.956 223.697,329.956 202.702,0 "/>
<polygon style="fill:#68341D;" points="309.3,0 288.305,329.956 326.591,329.956 347.587,0 "/>
<path style="fill:#463C31;" d="M395.768,42.265L369.71,7.617C366.1,2.819,360.446,0,354.441,0H157.562
	c-6.005,0-11.66,2.823-15.269,7.622l-26.057,34.643c-2.453,3.262-3.761,6.659-3.817,11.211h287.164
	C399.526,48.924,398.22,45.526,395.768,42.265z"/>
<rect x="236.659" style="fill:#91482C;" width="19.342" height="329.956"/>
<path style="fill:#605348;" d="M256.001,0h-98.439c-6.005,0-11.66,2.823-15.269,7.622l-26.057,34.643
	c-2.453,3.262-3.761,6.659-3.817,11.211h143.583V0z"/>
<g>
</g>
<g>
</g>
<g>
</g>
<g>
</g>
<g>
</g>
<g>
</g>
<g>
</g>
<g>
</g>
<g>
</g>
<g>
</g>
<g>
</g>
<g>
</g>
<g>
</g>
<g>
</g>
<g>
</g>
</svg>
