<?xml version="1.0" encoding="iso-8859-1"?>
<!-- Generator: Adobe Illustrator 19.0.0, SVG Export Plug-In . SVG Version: 6.00 Build 0)  -->
<svg version="1.1" id="Layer_1" xmlns="http://www.w3.org/2000/svg" xmlns:xlink="http://www.w3.org/1999/xlink" x="0px" y="0px"
	 viewBox="0 0 512.001 512.001" style="enable-background:new 0 0 512.001 512.001;" xml:space="preserve">
<path style="fill:#271507;" d="M359.371,491.739l-34.449-277.823c-1.153-9.306-9.061-15.977-18.439-15.977H205.519
	c-9.377,0-17.287,6.671-18.439,15.977l-34.45,277.983c-0.655,5.285,0.991,10.216,4.518,14.207c3.526,3.991,8.595,5.895,13.921,5.895
	h169.862c5.326,0,10.395-1.984,13.921-5.974C358.38,502.035,360.025,497.024,359.371,491.739z"/>
<path style="fill:#351D08;" d="M256.001,197.939h-50.483c-9.377,0-17.287,6.671-18.439,15.977l-34.449,277.983
	c-0.655,5.285,0.991,10.216,4.518,14.207c3.526,3.991,8.595,5.895,13.921,5.895h84.932V197.939z"/>
<path style="fill:#68341D;" d="M359.371,491.786l-6.849-55.249h-193.04l-6.852,55.27c-0.655,5.285,0.991,10.262,4.518,14.253
	c3.526,3.991,8.595,5.941,13.921,5.941h169.862c5.326,0,10.395-1.961,13.921-5.951C358.38,502.059,360.025,497.07,359.371,491.786z"
	/>
<path style="fill:#91482C;" d="M256.001,436.537h-96.519l-6.852,55.27c-0.655,5.285,0.991,10.262,4.518,14.253
	c3.526,3.991,8.595,5.941,13.921,5.941h84.932V436.537z"/>
<path style="fill:#D27E20;" d="M404.103,11.5H107.899c-10.261,0-19.471,7.967-19.471,18.228v106.232
	c0,85.247,70.245,154.088,155.493,154.088h24.16c85.247,0,155.493-68.841,155.493-154.088V29.728
	C423.574,19.467,414.364,11.5,404.103,11.5z"/>
<path style="fill:#F7931E;" d="M256.001,11.5H107.899c-10.261,0-19.471,7.967-19.471,18.228v106.232
	c0,85.247,70.245,154.088,155.493,154.088h12.08L256.001,11.5L256.001,11.5z"/>
<path style="fill:#D0B128;" d="M423.574,29.728c0-10.261-9.21-18.228-19.471-18.228H107.899c-10.261,0-19.471,7.967-19.471,18.228
	v47.248h335.146V29.728z"/>
<path style="fill:#F7D11E;" d="M256.001,11.5H107.899c-10.261,0-19.471,7.967-19.471,18.228v47.248h167.573V11.5z"/>
<path style="fill:#68341D;" d="M417.003,37.159H94.998c-10.261,0-18.58-8.319-18.58-18.58S84.737,0,94.998,0h322.005
	c10.261,0,18.58,8.319,18.58,18.58S427.264,37.159,417.003,37.159z"/>
<path style="fill:#91482C;" d="M256.001,37.159H94.998c-10.261,0-18.58-8.319-18.58-18.58S84.737,0,94.998,0H256v37.159H256.001z"/>
<g>
</g>
<g>
</g>
<g>
</g>
<g>
</g>
<g>
</g>
<g>
</g>
<g>
</g>
<g>
</g>
<g>
</g>
<g>
</g>
<g>
</g>
<g>
</g>
<g>
</g>
<g>
</g>
<g>
</g>
</svg>
