<?xml version="1.0" encoding="iso-8859-1"?>
<!-- Generator: Adobe Illustrator 19.0.0, SVG Export Plug-In . SVG Version: 6.00 Build 0)  -->
<svg version="1.1" id="Layer_1" xmlns="http://www.w3.org/2000/svg" xmlns:xlink="http://www.w3.org/1999/xlink" x="0px" y="0px"
	 viewBox="0 0 512 512" style="enable-background:new 0 0 512 512;" xml:space="preserve">
<polygon style="fill:#783C23;" points="415.447,55.344 170.811,292.169 220.33,341.688 457.155,97.051 "/>
<g>
	<path style="fill:#463C31;" d="M386.675,80.483c-3.981,0-8.252-1.229-11.288-4.266l-4.399-4.399
		c-6.074-6.074-6.075-15.924,0-21.998c6.074-6.074,15.924-6.074,21.998,0l4.399,4.399c6.074,6.074,6.219,15.778,0.144,21.852
		C394.491,79.108,390.656,80.483,386.675,80.483z"/>
	<path style="fill:#463C31;" d="M408.673,58.486c-3.982,0-8.252-1.23-11.289-4.268l-4.4-4.4c-6.074-6.074-6.073-15.925,0.002-21.998
		c6.075-6.076,15.924-6.072,21.998,0.002l4.4,4.4c6.074,6.074,6.217,15.779,0.142,21.852
		C416.488,57.113,412.651,58.486,408.673,58.486z"/>
	<path style="fill:#463C31;" d="M430.67,36.488c-3.981,0-8.252-1.229-11.288-4.266l-4.4-4.4c-6.074-6.074-6.075-15.924,0-21.998
		c6.074-6.074,15.924-6.074,21.998,0l4.4,4.4c6.074,6.074,6.219,15.778,0.144,21.852C438.487,35.115,434.651,36.488,430.67,36.488z"
		/>
	<path style="fill:#463C31;" d="M452.667,146.476c-3.981,0-8.251-1.228-11.287-4.265l-4.4-4.4
		c-6.074-6.074-6.076-15.923-0.002-21.998c6.074-6.076,15.924-6.076,21.998-0.002l4.4,4.4c6.074,6.074,6.221,15.777,0.147,21.852
		C460.485,145.101,456.648,146.476,452.667,146.476z"/>
	<path style="fill:#463C31;" d="M474.665,124.478c-3.982,0-8.252-1.23-11.289-4.268l-4.4-4.4
		c-6.074-6.074-6.073-15.925,0.002-21.998c6.075-6.076,15.924-6.072,21.998,0.002l4.4,4.4c6.074,6.074,6.217,15.779,0.142,21.852
		C482.48,123.105,478.645,124.478,474.665,124.478z"/>
	<path style="fill:#463C31;" d="M496.663,102.48c-3.981,0-8.251-1.228-11.287-4.265l-4.4-4.4
		c-6.074-6.074-6.076-15.923-0.002-21.998c6.074-6.076,15.924-6.076,21.998-0.002l4.4,4.4c6.074,6.074,6.221,15.777,0.147,21.852
		C504.48,101.106,500.643,102.48,496.663,102.48z"/>
</g>
<path style="fill:#D27E20;" d="M240.66,270.331c-21.936-21.937-51.236-34.152-82.259-34.152c-31.023,0-60.323,11.947-82.26,33.884
	L37.81,308.395c-37.097,37.097-47.95,92.517-27.859,140.98c9.712,23.431,28.034,41.753,51.467,51.467
	c16.094,6.672,32.907,9.891,49.59,9.891c33.554,0,66.427-13.159,91.204-37.936l38.332-38.332
	c21.936-21.936,34.076-51.044,34.076-82.067C274.619,321.374,262.597,292.268,240.66,270.331z"/>
<path style="fill:#F7931E;" d="M145.748,236.856c-26.267,2.797-50.677,14.279-69.605,33.207l-38.332,38.332
	c-37.097,37.097-47.951,92.517-27.86,140.98c9.712,23.431,28.034,41.753,51.467,51.467c16.094,6.672,32.907,9.891,49.59,9.891
	c11.77,0,23.456-1.626,34.74-4.798V236.856H145.748z"/>
<circle style="fill:#271507;" cx="145.743" cy="366.633" r="22.19"/>
<path style="fill:#351D08;" d="M145.748,388.82c-12.254,0-22.19-9.934-22.19-22.19s9.934-22.19,22.19-22.19V388.82z"/>
<path style="fill:#D27E20;" d="M486.551,25.968c-9.629-9.629-22.08-14.581-35.7-14.581c-13.619,0-26.069,5.657-35.699,15.286
	l-46.533,46.533c-3.148,3.148-5.391,7.185-5.391,11.638c0,4.452,1.295,8.489,4.443,11.638l48.366,48.366
	c3.148,3.148,7.486,4.745,11.94,4.745c4.452,0,8.791-1.941,11.94-5.089l46.533-46.533c9.629-9.629,14.985-22.382,14.985-36.001
	C501.434,48.35,496.182,35.597,486.551,25.968z"/>
<path style="fill:#91482C;" d="M118.478,443.176c-4.554,0-9.439-1.406-12.913-4.88l-33.551-33.551
	c-6.949-6.949-6.949-18.215,0-25.163c6.948-6.948,18.215-6.948,25.163,0l33.551,33.551c6.949,6.949,7.115,18.049,0.166,24.997
	C127.42,441.604,123.032,443.176,118.478,443.176z"/>
<g>
</g>
<g>
</g>
<g>
</g>
<g>
</g>
<g>
</g>
<g>
</g>
<g>
</g>
<g>
</g>
<g>
</g>
<g>
</g>
<g>
</g>
<g>
</g>
<g>
</g>
<g>
</g>
<g>
</g>
</svg>
