<?xml version="1.0" encoding="iso-8859-1"?>
<!-- Generator: Adobe Illustrator 19.0.0, SVG Export Plug-In . SVG Version: 6.00 Build 0)  -->
<svg version="1.1" id="Layer_1" xmlns="http://www.w3.org/2000/svg" xmlns:xlink="http://www.w3.org/1999/xlink" x="0px" y="0px"
	 viewBox="0 0 512 512" style="enable-background:new 0 0 512 512;" xml:space="preserve">
<path style="fill:#463C31;" d="M240.087,68.936c-11.831,0-21.822-9.59-21.822-21.421V21.809c0-11.831,9.991-21.421,21.822-21.421
	s21.822,9.59,21.822,21.421v25.706C261.909,59.345,251.918,68.936,240.087,68.936z"/>
<path style="fill:#605348;" d="M239.464,68.936c-11.223,0-21.198-9.59-21.198-21.421V21.809c0-11.831,9.976-21.421,21.198-21.421
	V68.936z"/>
<path style="fill:#463C31;" d="M240.087,478.796c-11.831,0-21.822-9.59-21.822-21.421v-27.134c0-11.831,9.991-21.421,21.822-21.421
	s21.822,9.59,21.822,21.421v27.134C261.909,469.206,251.918,478.796,240.087,478.796z"/>
<path style="fill:#605348;" d="M239.464,478.796c-11.223,0-21.198-9.59-21.198-21.421v-27.134c0-11.831,9.976-21.421,21.198-21.421
	C239.464,408.82,239.464,477.012,239.464,478.796z"/>
<path style="fill:#463C31;" d="M456.987,259.754H432.71c-11.831,0-21.421-9.367-21.421-21.198s9.59-21.198,21.421-21.198h24.277
	c11.831,0,21.421,9.367,21.421,21.198C478.408,250.387,468.818,259.754,456.987,259.754z"/>
<path style="fill:#605348;" d="M48.555,259.754H21.421C9.59,259.754,0,250.387,0,238.556s9.59-21.198,21.421-21.198h27.134
	c11.831,0,21.421,9.367,21.421,21.198C69.976,250.387,60.385,259.754,48.555,259.754z"/>
<circle style="fill:none;stroke:#000000;stroke-width:30;stroke-linecap:round;stroke-linejoin:round;stroke-miterlimit:10;" cx="239.901" cy="239.552" r="187.18"/>
<path style="fill:#CBCBCC;" d="M239.897,467.419c-125.647,0-227.867-102.221-227.867-227.867
	C12.029,113.904,114.251,11.684,239.897,11.684s227.867,102.221,227.867,227.868C467.764,365.197,365.544,467.419,239.897,467.419z"
	/>
<path style="fill:#E6E6E6;" d="M239.464,467.419c-124.695,0-227.867-102.221-227.867-227.867
	c0-125.648,103.172-227.868,227.867-227.868V467.419z"/>
<path style="fill:#09867C;" d="M239.897,410.365c-94.186,0-170.813-76.626-170.813-170.813S145.71,68.739,239.897,68.739
	S410.71,145.366,410.71,239.552S334.084,410.365,239.897,410.365z M239.897,111.582c-70.564,0-127.97,57.407-127.97,127.97
	s57.406,127.97,127.97,127.97s127.97-57.407,127.97-127.97S310.461,111.582,239.897,111.582z"/>
<path style="fill:#00A99D;" d="M239.897,367.522c-70.564,0-127.97-57.407-127.97-127.97s57.406-127.97,127.97-127.97V68.739
	c-94.186,0-170.813,76.626-170.813,170.813s76.625,170.813,170.813,170.813V367.522z"/>
<path style="fill:#463C31;" d="M490.577,511.612c-5.482,0-10.964-2.091-15.147-6.275L275.355,305.26
	c-8.366-8.366-8.366-21.929,0-30.293c8.366-8.366,21.93-8.365,30.293,0l200.077,200.077c8.366,8.366,8.366,21.928,0,30.293
	C501.542,509.52,496.059,511.612,490.577,511.612z"/>
<circle style="fill:#AE965B;" cx="254.216" cy="253.817" r="57.647"/>
<path style="fill:#CAAF68;" d="M240.334,309.779c-25.126-6.215-43.756-28.911-43.756-55.958s18.628-49.743,43.756-55.958V309.779z"
	/>
<g>
</g>
<g>
</g>
<g>
</g>
<g>
</g>
<g>
</g>
<g>
</g>
<g>
</g>
<g>
</g>
<g>
</g>
<g>
</g>
<g>
</g>
<g>
</g>
<g>
</g>
<g>
</g>
<g>
</g>
</svg>
