<?xml version="1.0" encoding="iso-8859-1"?>
<!-- Generator: Adobe Illustrator 19.0.0, SVG Export Plug-In . SVG Version: 6.00 Build 0)  -->
<svg version="1.1" id="Layer_1" xmlns="http://www.w3.org/2000/svg" xmlns:xlink="http://www.w3.org/1999/xlink" x="0px" y="0px"
	 viewBox="0 0 512.001 512.001" style="enable-background:new 0 0 512.001 512.001;" xml:space="preserve">
<path style="fill:#D37F21;" d="M465.03,214.486c2.069-6.403,0.325-13.374-4.434-18.133L317.911,53.668
	c-1.101-1.101-1.935-2.54-3.183-3.579c-4.91-4.088-11.597-5.28-17.598-3.087l-0.276,0.092c-5.747,2.103-10.019,6.985-11.339,12.961
	c-0.284,1.283-0.264,2.731-0.264,4.015c-12.457,69.497-45.071,132.543-94.746,182.22L5.332,431.465
	c-6.999,6.999-7.155,18.193-0.156,25.193c11.179,11.179,27.409,14.103,41.342,8.924c-5.179,13.933-2.346,30.072,8.834,41.252
	c6.999,6.999,18.181,6.831,25.18-0.168l185.173-185.173c50.188-50.188,115.965-83.819,185.027-94.979
	C457.375,225.44,462.96,220.891,465.03,214.486z"/>
<path style="fill:#F7931E;" d="M255.617,155.103c-16.393,33.575-38.26,64.334-65.113,91.188L5.332,431.465
	c-6.999,6.999-7.155,18.193-0.156,25.193c11.179,11.179,27.409,14.103,41.342,8.924c-5.179,13.933-2.346,30.072,8.834,41.252
	c6.999,6.999,18.181,6.831,25.18-0.168l175.079-175.079L255.617,155.103z"/>
<path style="fill:#E3C000;" d="M500.113,222.275c15.846-15.846,15.846-41.535,0-57.38L347.101,11.883
	c-15.845-15.845-41.535-15.845-57.38,0l-1.766,1.766c-15.846,15.846-15.846,41.535,0,57.38l153.012,153.012
	c15.845,15.845,41.535,15.845,57.38,0L500.113,222.275z"/>
<path style="fill:#00A99D;" d="M5.332,431.465c-6.999,6.999-7.155,18.193-0.156,25.193c11.179,11.179,27.409,14.103,41.342,8.924
	c-5.179,13.933-2.346,30.072,8.834,41.252c6.999,6.999,18.181,6.831,25.18-0.168l68.89-68.89l-75.201-75.201L5.332,431.465z"/>
<g>
	<circle style="fill:#91482C;" cx="159.568" cy="352.581" r="11.175"/>
	<circle style="fill:#91482C;" cx="190.979" cy="321.17" r="11.175"/>
	<circle style="fill:#91482C;" cx="222.39" cy="289.759" r="11.175"/>
</g>
<circle style="fill:#68341D;" cx="253.802" cy="258.348" r="11.175"/>
<path style="fill:#91482C;" d="M255.619,269.374c-3.43,0.563-7.073-0.478-9.718-3.124c-4.363-4.363-4.363-11.436,0-15.799
	c2.645-2.645,6.288-3.687,9.718-3.124V269.374z"/>
<g>
</g>
<g>
</g>
<g>
</g>
<g>
</g>
<g>
</g>
<g>
</g>
<g>
</g>
<g>
</g>
<g>
</g>
<g>
</g>
<g>
</g>
<g>
</g>
<g>
</g>
<g>
</g>
<g>
</g>
</svg>
