<?xml version="1.0" encoding="iso-8859-1"?>
<!-- Generator: Adobe Illustrator 19.0.0, SVG Export Plug-In . SVG Version: 6.00 Build 0)  -->
<svg version="1.1" id="Layer_1" xmlns="http://www.w3.org/2000/svg" xmlns:xlink="http://www.w3.org/1999/xlink" x="0px" y="0px"
	 viewBox="0 0 512 512" style="enable-background:new 0 0 512 512;" xml:space="preserve">
<g>
	<path style="fill:#CAAF68;" d="M140.101,360.567H64.852c-3.467,0-6.278-2.812-6.278-6.278V6.278C58.574,2.811,61.385,0,64.852,0
		h75.249c3.467,0,6.278,2.811,6.278,6.278v348.01C146.379,357.757,143.568,360.567,140.101,360.567z"/>
	<path style="fill:#CAAF68;" d="M242.951,397.67h-75.249c-3.467,0-6.278-2.811-6.278-6.278V6.278c0-3.467,2.812-6.278,6.278-6.278
		h75.249c3.467,0,6.278,2.811,6.278,6.278v385.113C249.229,394.859,246.418,397.67,242.951,397.67z"/>
</g>
<g>
	<path style="fill:#AF985C;" d="M345.801,451.827h-75.249c-3.467,0-6.278-2.811-6.278-6.278V6.278c0-3.467,2.811-6.278,6.278-6.278
		h75.249c3.467,0,6.278,2.811,6.278,6.278v439.27C352.079,449.016,349.268,451.827,345.801,451.827z"/>
	<path style="fill:#AF985C;" d="M448.651,512h-75.249c-3.467,0-6.278-2.811-6.278-6.278V6.278c0-3.467,2.812-6.278,6.278-6.278
		h75.249c3.467,0,6.278,2.811,6.278,6.278v499.443C454.929,509.19,452.119,512,448.651,512z"/>
</g>
<path style="fill:#463C31;" d="M483.908,116.192c0-30.972-25.108-56.079-56.079-56.079H84.171
	c-30.972,0-56.079,25.108-56.079,56.079v14.666c0,30.972,25.108,56.079,56.079,56.079h343.658c30.972,0,56.079-25.108,56.079-56.079
	L483.908,116.192L483.908,116.192z"/>
<path style="fill:#605348;" d="M256.628,60.113H84.171c-30.972,0-56.079,25.43-56.079,56.403v14.206
	c0,30.972,25.108,56.216,56.079,56.216h172.457V60.113z"/>
<g>
</g>
<g>
</g>
<g>
</g>
<g>
</g>
<g>
</g>
<g>
</g>
<g>
</g>
<g>
</g>
<g>
</g>
<g>
</g>
<g>
</g>
<g>
</g>
<g>
</g>
<g>
</g>
<g>
</g>
</svg>
