<?xml version="1.0" encoding="iso-8859-1"?>
<!-- Generator: Adobe Illustrator 19.0.0, SVG Export Plug-In . SVG Version: 6.00 Build 0)  -->
<svg version="1.1" id="Layer_1" xmlns="http://www.w3.org/2000/svg" xmlns:xlink="http://www.w3.org/1999/xlink" x="0px" y="0px"
	 viewBox="0 0 512.001 512.001" style="enable-background:new 0 0 512.001 512.001;" xml:space="preserve">
<path style="fill:#F7931E;" d="M38.753,487.338H17.615C7.887,487.338,0,479.451,0,469.723s7.887-17.615,17.615-17.615h21.138
	c9.728,0,17.615,7.887,17.615,17.615S48.481,487.338,38.753,487.338z"/>
<path style="fill:#E3C000;" d="M367.419,329.854c0-26.647-19.211-48.831-44.63-53.193c-4.264-25.539-26.407-44.437-53.137-44.437
	c-26.453,0-48.405,20.251-52.992,44.912H128.4c-9.935,0-17.989,8.267-17.989,18.202c0,9.935,8.055,18.202,17.989,18.202h87.675
	v35.23H139.92c-9.935,0-17.989,8.267-17.989,18.202c0,9.935,8.055,18.202,17.989,18.202h76.155v58.324
	c0,9.936,7.68,17.989,17.615,17.989s17.615-8.055,17.615-17.989v-58.324h36.404v77.894c0,9.935,7.68,17.989,17.615,17.989
	s17.615-8.055,17.615-17.989v-80.154C347.598,378.247,367.419,356.238,367.419,329.854z M269.752,268.836
	c6.353,0,11.936,2.427,15.142,8.299h-30.282C257.816,271.263,263.399,268.836,269.752,268.836z M251.303,348.768v-35.23h36.404
	v35.23H251.303z M322.937,344.875v-30.044c5.872,3.225,8.103,8.751,8.103,15.022C331.038,336.124,328.808,341.651,322.937,344.875z"
	/>
<path style="fill:#F7D11E;" d="M268.135,348.768h-16.832v-35.23h16.832v-36.404H254.61c2.93-5.367,7.849-7.85,13.525-8.238v-36.638
	c-25.77,0.757-46.977,20.689-51.476,44.875h-88.26c-9.935,0-17.989,8.266-17.989,18.202c0,9.935,8.053,18.202,17.989,18.202h87.675
	v35.23h-76.155c-9.935,0-17.989,8.266-17.989,18.202c0,9.935,8.055,18.202,17.989,18.202h76.155v58.324
	c0,9.936,7.68,17.989,17.615,17.989c9.935,0,17.615-8.055,17.615-17.989v-58.324h16.832L268.135,348.768L268.135,348.768z"/>
<path style="fill:#D27E20;" d="M457.393,122.837l36.279-58.253H329.77l36.345,58.253c14.9,23.96,22.838,51.492,22.951,79.699
	c-31.143-30.714-73.555-50.062-119.532-50.062c-94.554,0-171.478,76.904-171.478,171.457c0,45.493,17.806,87.078,46.818,117.611
	H54.013c-14.917,0-27.006,12.09-27.006,27.007v0.001c0,14.916,12.088,27.011,27.006,27.011h178.013
	c33.452,0,66.28,0.817,98.076-11.228c63.316-23.987,108.809-87.435,110.879-155.184c0.54-17.684-6.485-126.095-6.485-126.095
	C434.497,174.633,442.385,146.971,457.393,122.837z M269.535,441.361c-53.228,0-101.061-37.386-113.965-89.037
	c-18.256-73.067,38.906-145.881,113.965-145.881c64.767,0,117.459,52.692,117.459,117.459S334.302,441.361,269.535,441.361z"/>
<path style="fill:#F7931E;" d="M268.918,441.348c-52.981-0.289-100.494-37.572-113.348-89.023
	c-18.205-72.867,38.595-145.472,113.348-145.872v-53.973c-94.27,0.335-170.861,77.102-170.861,171.45
	c0,45.493,17.806,87.078,46.818,117.611H54.013c-14.917,0-27.006,12.09-27.006,27.007v0.001c0,14.916,12.088,27.011,27.006,27.011
	h178.013c12.39,0,24.694,0.11,36.892-0.361V441.348z"/>
<path style="fill:#E3C000;" d="M494.644,64.683H328.799c-9.586,0-17.358-7.772-17.358-17.358l0,0
	c0-17.063,13.832-30.895,30.895-30.895h138.769c17.063,0,30.895,13.832,30.895,30.895l0,0C512,56.911,504.23,64.683,494.644,64.683z
	"/>
<path style="fill:#605348;" d="M70.459,441.534H54.013c-14.917,0-27.009,12.093-27.009,27.009c0,14.916,12.093,27.009,27.009,27.009
	h16.446V441.534z"/>
<g>
</g>
<g>
</g>
<g>
</g>
<g>
</g>
<g>
</g>
<g>
</g>
<g>
</g>
<g>
</g>
<g>
</g>
<g>
</g>
<g>
</g>
<g>
</g>
<g>
</g>
<g>
</g>
<g>
</g>
</svg>
