<?xml version="1.0" encoding="iso-8859-1"?>
<!-- Generator: Adobe Illustrator 19.0.0, SVG Export Plug-In . SVG Version: 6.00 Build 0)  -->
<svg version="1.1" id="Layer_1" xmlns="http://www.w3.org/2000/svg" xmlns:xlink="http://www.w3.org/1999/xlink" x="0px" y="0px"
	 viewBox="0 0 512 512" style="enable-background:new 0 0 512 512;" xml:space="preserve">
<path style="fill:#271507;" d="M492.441,94.986H19.559C8.571,94.986,0,104.777,0,115.765v111.039c0,7.319,3.475,13.698,9.267,17.153
	v152.276c0,10.989,9.153,20.78,20.143,20.78h82.676h95.942h95.943h95.942h82.676c10.988,0,20.143-9.791,20.143-20.779V243.958
	c5.792-3.455,9.267-9.835,9.267-17.153V115.765C512,104.777,503.429,94.986,492.441,94.986z"/>
<path style="fill:#351D08;" d="M256,94.986H19.559C8.571,94.986,0,104.777,0,115.765v111.039c0,7.319,3.475,13.698,9.267,17.153
	v152.276c0,10.989,9.153,20.78,20.143,20.78h82.676h95.942H256V94.986z"/>
<g>
	<path style="fill:#E6E6E6;" d="M92.67,295.165c-10.425-0.686-18.534-9.289-18.534-19.829V155.222H48.652v221.249H92.67V295.165z"/>
	<path style="fill:#E6E6E6;" d="M170.281,275.334V155.222h-18.534v120.113c0,10.54-9.267,19.144-18.534,19.829v81.307h55.602
		v-81.306C177.231,294.479,170.281,285.876,170.281,275.334z"/>
</g>
<path style="fill:#CBCBCC;" d="M265.267,275.334V155.222H256h-9.267v120.113c0,10.54-8.109,19.144-18.534,19.829v81.307H256h27.801
	v-81.306C273.376,294.479,265.267,285.876,265.267,275.334z"/>
<path style="fill:#E6E6E6;" d="M256,155.222h-9.267v120.113c0,10.54-8.109,19.144-18.534,19.829v81.307H256V155.222z"/>
<g>
	<path style="fill:#CBCBCC;" d="M360.253,275.334V155.222h-18.534v120.113c0,10.54-6.95,19.144-18.534,19.829v81.307h55.602v-81.306
		C369.52,294.479,360.253,285.876,360.253,275.334z"/>
	<path style="fill:#CBCBCC;" d="M463.348,155.222h-25.484v120.113c0,10.54-8.109,19.144-18.534,19.829v81.307h44.018V155.222z"/>
</g>
<g>
</g>
<g>
</g>
<g>
</g>
<g>
</g>
<g>
</g>
<g>
</g>
<g>
</g>
<g>
</g>
<g>
</g>
<g>
</g>
<g>
</g>
<g>
</g>
<g>
</g>
<g>
</g>
<g>
</g>
</svg>
