<?xml version="1.0" encoding="iso-8859-1"?>
<!-- Generator: Adobe Illustrator 19.0.0, SVG Export Plug-In . SVG Version: 6.00 Build 0)  -->
<svg version="1.1" id="Layer_1" xmlns="http://www.w3.org/2000/svg" xmlns:xlink="http://www.w3.org/1999/xlink" x="0px" y="0px"
	 viewBox="0 0 512 512" style="enable-background:new 0 0 512 512;" xml:space="preserve">
<path style="fill:#605348;" d="M176.919,444.065l-9.909-192.767c-0.522-10.169-8.92-18.245-19.101-18.245H91.208
	c-10.182,0-18.579,8.077-19.101,18.245l-9.909,192.718c-0.805,15.652,4.924,31.171,15.717,42.533
	c10.794,11.363,25.973,17.892,41.644,17.892c15.672,0,30.852-6.512,41.645-17.874C171.997,475.204,177.725,459.716,176.919,444.065z
	"/>
<path style="fill:#00A99D;" d="M206.12,56.599c-22.658-31.625-53.401-49.04-86.562-49.04s-63.904,17.417-86.563,49.04
	C11.718,86.295,0,125.449,0,166.853s11.718,80.558,32.995,110.254c22.659,31.623,53.401,49.04,86.563,49.04
	s63.904-17.417,86.563-49.04c21.277-29.696,32.995-68.85,32.995-110.254S227.397,86.295,206.12,56.599z"/>
<path style="fill:#F7D11E;" d="M119.558,217.018c55.887,0,103.241-20.459,119.554-48.743c0.272-41.928-11.469-81.641-32.99-111.677
	C183.462,24.974,152.72,7.559,119.558,7.559s-63.904,17.417-86.563,49.04C11.474,86.634-0.267,126.347,0.005,168.276
	C16.316,196.559,63.67,217.018,119.558,217.018z"/>
<path style="fill:#463C31;" d="M335.08,67.935l9.909,192.773c0.522,10.169,8.92,18.251,19.101,18.251h56.701
	c10.182,0,18.579-8.083,19.101-18.251l9.909-192.72c0.805-15.652-4.924-31.172-15.717-42.536
	C423.29,14.089,408.111,7.559,392.44,7.559c-15.672,0-30.852,6.511-41.645,17.874C340.003,36.796,334.275,52.283,335.08,67.935z"/>
<path style="fill:#09867C;" d="M305.878,455.4c22.659,31.625,53.401,49.04,86.563,49.04s63.904-17.417,86.563-49.04
	C500.282,425.704,512,386.549,512,345.146s-11.718-80.558-32.995-110.254c-22.659-31.623-53.401-49.04-86.563-49.04
	s-63.904,17.417-86.563,49.04c-21.277,29.696-32.995,68.85-32.995,110.254S284.602,425.705,305.878,455.4z"/>
<path style="fill:#D0B128;" d="M392.442,294.981c-55.887,0-103.241,20.459-119.554,48.743
	c-0.272,41.928,11.469,81.641,32.99,111.677c22.659,31.625,53.401,49.04,86.563,49.04s63.904-17.417,86.563-49.04
	c21.52-30.035,33.262-69.748,32.99-111.676C495.684,315.439,448.328,294.981,392.442,294.981z"/>
<g>
</g>
<g>
</g>
<g>
</g>
<g>
</g>
<g>
</g>
<g>
</g>
<g>
</g>
<g>
</g>
<g>
</g>
<g>
</g>
<g>
</g>
<g>
</g>
<g>
</g>
<g>
</g>
<g>
</g>
</svg>
