<?xml version="1.0" encoding="iso-8859-1"?>
<!-- Generator: Adobe Illustrator 19.0.0, SVG Export Plug-In . SVG Version: 6.00 Build 0)  -->
<svg version="1.1" id="Layer_1" xmlns="http://www.w3.org/2000/svg" xmlns:xlink="http://www.w3.org/1999/xlink" x="0px" y="0px"
	 viewBox="0 0 512 512" style="enable-background:new 0 0 512 512;" xml:space="preserve">
<path style="fill:#463C31;" d="M450.046,141.087c-10.245,0-18.703-8.305-18.703-18.551v-12.367c0-10.245,8.459-18.551,18.703-18.551
	c10.245,0,18.703,8.305,18.703,18.551v12.367C468.749,132.782,460.29,141.087,450.046,141.087z"/>
<path style="fill:#351D08;" d="M61.954,139.85c-10.245,0-18.703-8.305-18.703-18.551v-19.787c0-10.245,8.459-18.551,18.703-18.551
	s18.703,8.305,18.703,18.551V121.3C80.658,131.545,72.199,139.85,61.954,139.85z"/>
<path style="fill:#605348;" d="M105.205,139.85c-10.245,0-18.703-8.305-18.703-18.551v-19.787c0-10.245,8.459-18.551,18.703-18.551
	s18.703,8.305,18.703,18.551V121.3C123.909,131.545,115.45,139.85,105.205,139.85z"/>
<rect x="90.278" y="126.071" style="fill:#463C31;" width="331.444" height="266.065"/>
<rect x="90.278" y="126.071" style="fill:#605348;" width="165.722" height="266.065"/>
<path style="fill:#271507;" d="M493.449,114.59h-173.14c-10.245,0-18.72,8.83-18.72,19.076v232.969c0,3.645,1.158,7.208,3.17,10.246
	l21.316,39.702c3.437,5.187,17.201,12.454,23.422,12.454h143.951c10.245,0,18.551-8.102,18.551-18.348V133.666
	C512,123.421,503.695,114.59,493.449,114.59z"/>
<path style="fill:#351D08;" d="M191.691,114.59H18.551C8.305,114.59,0,123.421,0,133.666v277.025
	c0,10.245,8.305,18.348,18.551,18.348h143.951c6.551,0,12.616-3.354,15.957-8.989l29.273-49.182c1.697-2.864,2.678-6.08,2.678-9.409
	V133.666C210.411,123.421,201.936,114.59,191.691,114.59z"/>
<path style="fill:#D27E20;" d="M270.841,209.275H241.16c-10.245,0-18.551-8.459-18.551-18.703s8.305-18.703,18.551-18.703h29.681
	c10.245,0,18.551,8.459,18.551,18.703C289.391,200.817,281.086,209.275,270.841,209.275z"/>
<path style="fill:#F7931E;" d="M256,209.275h-14.841c-10.245,0-18.551-8.459-18.551-18.703s8.305-18.703,18.551-18.703H256V209.275z
	"/>
<path style="fill:#605348;" d="M119.961,209.275H90.28c-10.245,0-18.551-8.459-18.551-18.703s8.305-18.703,18.551-18.703h29.681
	c10.245,0,18.551,8.459,18.551,18.703S130.207,209.275,119.961,209.275z"/>
<path style="fill:#463C31;" d="M436.561,209.275H406.88c-10.245,0-18.551-8.459-18.551-18.703s8.305-18.703,18.551-18.703h29.681
	c10.245,0,18.551,8.459,18.551,18.703C455.111,200.817,446.805,209.275,436.561,209.275z"/>
<path style="fill:#00A99D;" d="M121.198,254.864H91.517c-10.245,0-18.551-8.459-18.551-18.703c0-10.245,8.305-18.703,18.551-18.703
	h29.681c10.245,0,18.551,8.459,18.551,18.703C139.749,246.406,131.444,254.864,121.198,254.864z"/>
<g>
	<path style="fill:#09867C;" d="M437.797,254.864h-29.682c-10.245,0-18.551-8.459-18.551-18.703
		c0-10.245,8.305-18.703,18.551-18.703h29.681c10.245,0,18.551,8.459,18.551,18.703
		C456.347,246.406,448.042,254.864,437.797,254.864z"/>
	<path style="fill:#09867C;" d="M270.841,254.864H241.16c-10.245,0-18.551-8.459-18.551-18.703c0-10.245,8.305-18.703,18.551-18.703
		h29.681c10.245,0,18.551,8.459,18.551,18.703C289.391,246.406,281.086,254.864,270.841,254.864z"/>
</g>
<path style="fill:#00A99D;" d="M256,254.864h-14.841c-10.245,0-18.551-8.459-18.551-18.703c0-10.245,8.305-18.703,18.551-18.703H256
	V254.864z"/>
<path style="fill:#351D08;" d="M270.841,332.015H241.16c-10.245,0-18.551-8.458-18.551-18.703s8.305-18.703,18.551-18.703h29.681
	c10.245,0,18.551,8.458,18.551,18.703C289.391,323.557,281.086,332.015,270.841,332.015z"/>
<path style="fill:#463C31;" d="M406.637,385.938c-33.963,0-61.593-27.63-61.593-61.592c0-33.963,27.63-61.593,61.593-61.593
	c33.962,0,61.592,27.63,61.592,61.593C468.229,358.307,440.598,385.938,406.637,385.938z"/>
<circle style="fill:#CBCBCC;" cx="406.643" cy="324.348" r="11.562"/>
<path style="fill:#605348;" d="M105.121,385.938c-33.963,0-61.593-27.63-61.593-61.592c0-33.963,27.63-61.593,61.593-61.593
	s61.593,27.63,61.593,61.593C166.713,358.307,139.083,385.938,105.121,385.938z"/>
<circle style="fill:#E6E6E6;" cx="105.124" cy="324.348" r="11.562"/>
<g>
</g>
<g>
</g>
<g>
</g>
<g>
</g>
<g>
</g>
<g>
</g>
<g>
</g>
<g>
</g>
<g>
</g>
<g>
</g>
<g>
</g>
<g>
</g>
<g>
</g>
<g>
</g>
<g>
</g>
</svg>
