<?xml version="1.0" encoding="iso-8859-1"?>
<!-- Generator: Adobe Illustrator 19.0.0, SVG Export Plug-In . SVG Version: 6.00 Build 0)  -->
<svg version="1.1" id="Layer_1" xmlns="http://www.w3.org/2000/svg" xmlns:xlink="http://www.w3.org/1999/xlink" x="0px" y="0px"
	 viewBox="0 0 512 512" style="enable-background:new 0 0 512 512;" xml:space="preserve">
<path style="fill:#AE965B;" d="M512,260.78c0-11.782-9.551-21.333-21.333-21.333H21.333C9.551,239.447,0,248.998,0,260.78v163.556
	c0,11.782,9.551,21.333,21.333,21.333h469.333c11.782,0,21.333-9.551,21.333-21.333V260.78z"/>
<path style="fill:#CAAF68;" d="M256.031,239.447H21.333C9.551,239.447,0,248.574,0,260.356v163.556
	c0,11.782,9.551,21.758,21.333,21.758H256L256.031,239.447z"/>
<path style="fill:#463C31;" d="M409.698,347.197H102.302c-11.782,0-21.333-9.551-21.333-21.333c0-11.782,9.551-21.333,21.333-21.333
	h307.397c11.782,0,21.333,9.551,21.333,21.333C431.032,337.645,421.48,347.197,409.698,347.197z"/>
<path style="fill:#605348;" d="M256,347.197H102.302c-11.782,0-21.333-9.551-21.333-21.333c0-11.782,9.551-21.333,21.333-21.333
	h153.741L256,347.197z"/>
<path style="fill:#D0B128;" d="M280.587,244.583c-8.572,3.311-18.644,0.786-24.556-6.855c-7.208-9.319-5.497-22.719,3.821-29.927
	l177.114-137.01c9.323-7.209,22.719-5.498,29.927,3.821c7.208,9.319,5.497,22.719-3.821,29.927L285.958,241.548
	C284.28,242.847,282.47,243.856,280.587,244.583z"/>
<circle style="fill:#854328;" cx="258.785" cy="234.857" r="37.512"/>
<path style="fill:#91482C;" d="M235.833,205.19c6.05-4.68,13.077-7.223,20.174-7.743l0.028,74.825
	c-10.246-0.756-20.14-5.694-26.921-14.459C216.439,241.426,219.447,217.866,235.833,205.19z"/>
<g>
</g>
<g>
</g>
<g>
</g>
<g>
</g>
<g>
</g>
<g>
</g>
<g>
</g>
<g>
</g>
<g>
</g>
<g>
</g>
<g>
</g>
<g>
</g>
<g>
</g>
<g>
</g>
<g>
</g>
</svg>
