<?xml version="1.0" encoding="iso-8859-1"?>
<!-- Generator: Adobe Illustrator 19.0.0, SVG Export Plug-In . SVG Version: 6.00 Build 0)  -->
<svg version="1.1" id="Layer_1" xmlns="http://www.w3.org/2000/svg" xmlns:xlink="http://www.w3.org/1999/xlink" x="0px" y="0px"
	 viewBox="0 0 512 512" style="enable-background:new 0 0 512 512;" xml:space="preserve">
<path style="fill:#463C31;" d="M26.746,82.531v334.065c0,23.991,19.449,43.44,43.44,43.44h368.572
	c23.991,0,43.44-19.449,43.44-43.44V82.531H26.746z"/>
<path style="fill:#605348;" d="M26.746,82.531v334.065c0,23.991,19.449,43.44,43.44,43.44h185.815L256,82.531H26.746z"/>
<path style="fill:#271507;" d="M480.666,116.156H31.334c-12.661,0-22.926-10.265-22.926-22.926s10.265-22.926,22.926-22.926h449.331
	c12.661,0,22.926,10.265,22.926,22.926S493.327,116.156,480.666,116.156z"/>
<path style="fill:#351D08;" d="M270.555,70.304H31.334c-12.661,0-22.926,10.265-22.926,22.926s10.265,22.926,22.926,22.926h239.221
	V70.304z"/>
<path style="fill:#CBCBCC;" d="M337.993,0H174.007c-10.056,0-19.23,7.932-19.23,17.988v129.071c0,10.056,8.663,18.241,18.719,18.241
	s18.306-9.935,18.306-18.174h-0.138l46.127-2.552c0,0.889,0.086,1.693,0.208,2.547c1.269,8.817,8.832,15.568,18,15.568
	s16.731-6.798,18-15.614c0.122-0.855,0.208-1.604,0.208-2.493l46.127,2.544h-0.275c0,8.239,8.525,18.174,18.581,18.174
	c10.056,0,18.581-8.186,18.581-18.241V17.988C357.223,7.932,348.049,0,337.993,0z"/>
<path style="fill:#09867C;" d="M401.194,394.299H109.277c-12.661,0-22.926-10.291-22.926-22.952
	c0-12.661,10.265-22.952,22.926-22.952h291.917c12.661,0,22.926,10.291,22.926,22.952
	C424.12,384.008,413.855,394.299,401.194,394.299z"/>
<path style="fill:#00A99D;" d="M256,394.299H109.277c-12.661,0-22.926-10.291-22.926-22.952c0-12.661,10.265-22.952,22.926-22.952
	H256V394.299z"/>
<g>
	<path style="fill:#E6E6E6;" d="M256,0h-81.993c-10.056,0-19.23,7.932-19.23,17.988v129.071c0,10.056,8.663,18.241,18.719,18.241
		s18.306-9.935,18.306-18.174h-0.138l46.127-2.552c0,0.889,0.086,1.693,0.208,2.547c1.269,8.817,8.584,15.537,18,15.537V0z"/>
	<path style="fill:#E6E6E6;" d="M174.007,0c-10.056,0-19.23,7.932-19.23,17.988v129.071c0,10.056,8.663,18.241,18.719,18.241
		s18.306-9.935,18.306-18.174h-0.138l46.127-2.552c0,0.889,0.086,1.693,0.208,2.547c1.269,8.817,8.584,15.537,18,15.537V0H174.007z"
		/>
</g>
<rect x="110.804" y="241.758" style="fill:#CBCBCC;" width="282.742" height="64.194"/>
<rect x="110.804" y="241.758" style="fill:#E6E6E6;" width="145.196" height="64.194"/>
<path style="fill:#271507;" d="M409.934,210.685H102.066c-12.661,0-23.794,11.085-23.794,23.746v254.643
	c0,12.661,10.291,22.926,22.952,22.926s22.952-10.265,22.952-22.926V337.802h263.651v151.272c0,12.661,10.291,22.926,22.952,22.926
	s22.952-10.265,22.952-22.926V234.431C433.729,221.77,422.595,210.685,409.934,210.685z M124.175,291.899v-10.887
	c3.531,1.112,6.289,1.735,9.385,1.735c12.661,0,23.571-10.265,23.571-22.926v-3.232h15.301v3.232
	c0,12.661,10.291,22.926,22.952,22.926s22.952-10.265,22.952-22.926v-3.232h15.301v3.232c0,12.661,9.702,22.926,22.363,22.926
	s22.363-10.265,22.363-22.926v-3.232h15.301v3.232c0,12.661,10.291,22.926,22.952,22.926s22.952-10.265,22.952-22.926v-3.232h15.301
	v3.232c0,12.661,10.91,22.926,23.571,22.926c3.097,0,5.854-0.621,9.385-1.735v10.887H124.175z"/>
<path style="fill:#351D08;" d="M256,337.802H109.277c-12.661,0-22.926-10.291-22.926-22.952c0-12.661,10.265-22.952,22.926-22.952
	H256V337.802z"/>
<path style="fill:#271507;" d="M401.194,181.875H110.806c-12.661,0-22.926-10.265-22.926-22.926s10.265-22.926,22.926-22.926
	h290.388c12.661,0,22.926,10.265,22.926,22.926C424.12,171.611,413.855,181.875,401.194,181.875z"/>
<g>
	<path style="fill:#351D08;" d="M256,181.875H110.806c-12.661,0-22.926-10.265-22.926-22.926s10.265-22.926,22.926-22.926H256
		V181.875z"/>
	<path style="fill:#351D08;" d="M256,210.913H102.066c-12.661,0-23.355,10.857-23.355,23.518v254.643
		c0,12.661,10.265,22.926,22.926,22.926s22.926-10.265,22.926-22.926V281.012c3.057,1.112,5.859,1.735,8.955,1.735
		c12.661,0,23.14-10.265,23.14-22.926v-3.057h15.283v3.057c0,12.661,10.265,22.926,22.926,22.926s22.926-10.265,22.926-22.926
		v-3.057h15.283v3.057c0,12.661,10.265,22.926,22.926,22.926L256,210.913z"/>
</g>
<g>
</g>
<g>
</g>
<g>
</g>
<g>
</g>
<g>
</g>
<g>
</g>
<g>
</g>
<g>
</g>
<g>
</g>
<g>
</g>
<g>
</g>
<g>
</g>
<g>
</g>
<g>
</g>
<g>
</g>
</svg>
