<?xml version="1.0" encoding="iso-8859-1"?>
<!-- Generator: Adobe Illustrator 19.0.0, SVG Export Plug-In . SVG Version: 6.00 Build 0)  -->
<svg version="1.1" id="Layer_1" xmlns="http://www.w3.org/2000/svg" xmlns:xlink="http://www.w3.org/1999/xlink" x="0px" y="0px"
	 viewBox="0 0 512 512" style="enable-background:new 0 0 512 512;" xml:space="preserve">
<path style="fill:#68341D;" d="M383.258,64.003l-15.467-15.467c-8.007-8.007-8.007-20.992,0-29c8.009-8.007,20.992-8.007,29,0
	l15.467,15.467c8.007,8.007,8.007,20.992,0,29S391.267,72.012,383.258,64.003z"/>
<path style="fill:#463C31;" d="M452.207,148.606c-8.009-8.007-8.009-20.992,0-29l15.467-15.467c8.009-8.007,20.992-8.007,29,0
	s8.009,20.992,0,29l-15.467,15.467C473.198,156.613,460.214,156.613,452.207,148.606z"/>
<g>
	<path style="fill:#68341D;" d="M307.858,139.403l-15.467-15.467c-8.009-8.007-8.009-20.992,0-29c8.007-8.007,20.992-8.007,29,0
		l15.467,15.467c8.007,8.007,8.007,20.992,0,29C328.851,147.412,315.867,147.412,307.858,139.403z"/>
	<path style="fill:#68341D;" d="M251.792,195.469l-15.467-15.467c-8.009-8.009-8.009-20.992,0-29c8.007-8.009,20.992-8.009,29,0
		l15.467,15.467c8.009,8.009,8.009,20.992,0,29C272.784,203.478,259.8,203.478,251.792,195.469z"/>
</g>
<path style="fill:#91482C;" d="M215.059,232.203l-15.467-15.467c-8.007-8.007-8.007-20.992,0-29c8.009-8.007,20.992-8.007,29,0
	l15.467,15.467c8.007,8.009,8.007,20.992,0,29C236.051,240.211,223.066,240.211,215.059,232.203z"/>
<path style="fill:#68341D;" d="M351.358,95.903l-15.467-15.467c-8.007-8.007-8.007-20.992,0-29c8.009-8.007,20.992-8.007,29,0
	l15.467,15.467c8.007,8.007,8.007,20.992,0,29S359.367,103.912,351.358,95.903z"/>
<path style="fill:#91482C;" d="M251.792,195.469l-15.467-15.467c-8.009-8.009-8.009-20.992,0-29
	c5.149-5.149,12.356-6.987,18.974-5.515l0.011,52.804C254.063,197.5,252.882,196.559,251.792,195.469z"/>
<path style="fill:#F7931E;" d="M5.203,400.415l3.927,10.983c2.872,8.031,6.424,15.802,10.617,23.229l0.399,0.707
	c13.574,24.035,33.526,43.855,57.652,57.267l0,0c7.163,3.982,14.64,7.369,22.357,10.128l11.458,4.096
	c32.408,11.586,68.778,3.348,93.115-20.991c22.378-22.378,31.207-55.319,23.005-85.968v0.001
	c-4.101-17.977,0.018-36.536,12.11-49.645l0.577-0.464L506.038,84.216c8.007-8.007,7.864-20.81-0.144-28.819l-49.281-49.3
	c-8.007-8.007-20.801-8.189-28.809-0.181l-265.54,265.544l-0.461,0.428c-13.109,12.092-31.667,16.509-49.643,11.813
	c-30.648-8.005-63.588,0.923-85.968,23.302C1.856,331.339-6.383,368.006,5.203,400.415z"/>
<path style="fill:#AF985C;" d="M144.912,282.233l84.709,84.709c2.279-6.126,5.691-11.804,10.222-16.717l0.577-0.464L506.038,84.216
	c8.007-8.007,7.864-20.81-0.144-28.819l-49.281-49.3c-8.007-8.007-20.801-8.189-28.809-0.181l-265.54,265.544l-0.461,0.428
	C156.844,276.461,151.104,279.933,144.912,282.233z"/>
<path style="fill:#351D08;" d="M113.559,430.369l-30.934-30.934c-8.009-8.007-8.009-20.992,0-29c8.007-8.007,20.992-8.007,29,0
	l30.934,30.934c8.007,8.007,8.007,20.992,0,29C134.552,438.377,121.568,438.377,113.559,430.369z"/>
<path style="fill:#CAAF68;" d="M144.912,282.233l84.709,84.709c2.279-6.126,5.691-11.804,10.222-16.717l0.577-0.464l14.896-14.893
	V178.407l-93.053,93.054l-0.461,0.428C156.844,276.461,151.104,279.933,144.912,282.233z"/>
<g>
</g>
<g>
</g>
<g>
</g>
<g>
</g>
<g>
</g>
<g>
</g>
<g>
</g>
<g>
</g>
<g>
</g>
<g>
</g>
<g>
</g>
<g>
</g>
<g>
</g>
<g>
</g>
<g>
</g>
</svg>
