<?xml version="1.0" encoding="iso-8859-1"?>
<!-- Generator: Adobe Illustrator 19.0.0, SVG Export Plug-In . SVG Version: 6.00 Build 0)  -->
<svg version="1.1" id="Layer_1" xmlns="http://www.w3.org/2000/svg" xmlns:xlink="http://www.w3.org/1999/xlink" x="0px" y="0px"
	 viewBox="0 0 512 512" style="enable-background:new 0 0 512 512;" xml:space="preserve">
<path style="fill:#E3C000;" d="M492.257,60.814H19.743C8.868,60.814,0,69.207,0,80.082v307.225
	c0,34.734,28.309,63.878,63.041,63.878h385.918c34.733,0,63.041-29.145,63.041-63.878V80.082
	C512,69.207,503.132,60.814,492.257,60.814z"/>
<path style="fill:#F7D11E;" d="M256,60.814H19.743C8.868,60.814,0,69.207,0,80.082v307.225c0,34.734,28.309,63.878,63.041,63.878
	h194.276L256,60.814z"/>
<path style="fill:#463C31;" d="M448.29,209.086c0-10.876-8.816-19.692-19.692-19.692H84.561c-10.876,0-19.692,8.816-19.692,19.692
	V419.91c0,10.876,8.816,19.692,19.692,19.692h344.036c10.876,0,19.692-8.816,19.692-19.692V209.086z"/>
<circle style="fill:#F7931E;" cx="361.979" cy="145.283" r="15.328"/>
<circle style="fill:#00A99D;" cx="418.462" cy="145.283" r="15.328"/>
<g>
	<path style="fill:#605348;" d="M115.528,126.842H86.646c-10.876,0-19.692,8.816-19.692,19.692c0,10.876,8.816,19.692,19.692,19.692
		h28.882c10.876,0,19.692-8.816,19.692-19.692C135.22,135.658,126.404,126.842,115.528,126.842z"/>
	<path style="fill:#605348;" d="M256.434,189.394H84.02c-10.876,0-19.151,9.126-19.151,20.002V420.76
		c0,10.876,8.275,20.002,19.151,20.002h173.297L256.434,189.394z"/>
</g>
<path style="fill:#CBCBCC;" d="M264.109,297.354v-68.576h-18.534v172.597h32.434v-85.059
	C269.9,314.016,264.109,306.408,264.109,297.354z"/>
<polygon style="fill:#E6E6E6;" points="256.573,228.778 245.575,228.778 245.575,401.376 257.317,401.376 "/>
<path style="fill:#CBCBCC;" d="M335.928,297.354v-68.576h-18.534v172.597h33.593v-85.059
	C341.719,314.016,335.928,306.408,335.928,297.354z"/>
<path style="fill:#E6E6E6;" d="M134.371,316.316c-9.267-2.301-15.059-9.909-15.059-18.963v-68.576h-15.059v172.597h30.118V316.316z"
	/>
<rect x="390.371" y="228.778" style="fill:#CBCBCC;" width="17.376" height="172.597"/>
<path style="fill:#E6E6E6;" d="M191.131,297.354v-68.576h-17.376v172.597h32.434v-85.059
	C198.081,314.016,191.131,306.408,191.131,297.354z"/>
<g>
</g>
<g>
</g>
<g>
</g>
<g>
</g>
<g>
</g>
<g>
</g>
<g>
</g>
<g>
</g>
<g>
</g>
<g>
</g>
<g>
</g>
<g>
</g>
<g>
</g>
<g>
</g>
<g>
</g>
</svg>
