<?xml version="1.0" encoding="iso-8859-1"?>
<!-- Generator: Adobe Illustrator 19.0.0, SVG Export Plug-In . SVG Version: 6.00 Build 0)  -->
<svg version="1.1" id="Layer_1" xmlns="http://www.w3.org/2000/svg" xmlns:xlink="http://www.w3.org/1999/xlink" x="0px" y="0px"
	 viewBox="0 0 512.002 512.002" style="enable-background:new 0 0 512.002 512.002;" xml:space="preserve">
<path style="fill:#D0B128;" d="M256.001,115.346c-31.801,0-57.672-25.872-57.672-57.672S224.2,0,256.001,0
	s57.672,25.872,57.672,57.672S287.802,115.346,256.001,115.346z M256.001,36.023c-11.938,0-21.651,9.712-21.651,21.651
	s9.712,21.651,21.651,21.651c11.939,0,21.651-9.712,21.651-21.651S267.94,36.023,256.001,36.023z"/>
<path style="fill:#F7D11E;" d="M256.001,115.346c-31.801,0-57.672-25.872-57.672-57.672S224.2,0,256.001,0v36.023
	c-11.938,0-21.651,9.712-21.651,21.651s9.712,21.651,21.651,21.651"/>
<g>
	<path style="fill:#D0B128;" d="M396.24,173.435c-15.406,0-29.889-5.999-40.781-16.893c-22.485-22.487-22.485-59.075,0-81.562
		c10.893-10.893,25.377-16.893,40.781-16.893c15.406,0,29.889,5.999,40.781,16.893c22.485,22.487,22.485,59.075,0,81.562
		C426.129,167.436,411.645,173.435,396.24,173.435z M396.24,94.111c-5.783,0-11.22,2.252-15.308,6.341
		c-8.441,8.442-8.441,22.177,0,30.618c4.089,4.089,9.526,6.341,15.308,6.341c5.783,0,11.22-2.252,15.308-6.341
		c8.441-8.442,8.441-22.177,0-30.618C407.46,96.364,402.023,94.111,396.24,94.111z"/>
	<path style="fill:#D0B128;" d="M454.329,313.674c-31.801,0-57.672-25.871-57.672-57.672s25.873-57.672,57.672-57.672
		s57.672,25.872,57.672,57.672S486.13,313.674,454.329,313.674z M454.329,234.351c-11.938,0-21.651,9.712-21.651,21.651
		c0,11.939,9.712,21.651,21.651,21.651s21.651-9.712,21.651-21.651C475.979,244.062,466.266,234.351,454.329,234.351z"/>
	<path style="fill:#D0B128;" d="M396.24,453.912c-15.406,0-29.889-5.999-40.781-16.893c-22.485-22.487-22.485-59.075,0-81.562
		c10.893-10.893,25.377-16.893,40.781-16.893c15.406,0,29.889,5.999,40.781,16.893c22.485,22.487,22.485,59.075,0,81.562
		C426.129,447.913,411.645,453.912,396.24,453.912z M396.24,374.588c-5.783,0-11.22,2.252-15.308,6.341
		c-8.441,8.442-8.441,22.177,0,30.618c4.089,4.089,9.526,6.341,15.308,6.341c5.783,0,11.22-2.252,15.308-6.341
		c8.441-8.442,8.441-22.177,0-30.618C407.46,376.841,402.023,374.588,396.24,374.588z"/>
	<path style="fill:#D0B128;" d="M256.001,512c-31.801,0-57.672-25.871-57.672-57.672s25.873-57.672,57.672-57.672
		s57.672,25.871,57.672,57.672C313.675,486.129,287.802,512,256.001,512z M256.001,432.678c-11.938,0-21.651,9.712-21.651,21.651
		s9.712,21.651,21.651,21.651c11.939,0,21.651-9.712,21.651-21.651S267.94,432.678,256.001,432.678z"/>
</g>
<g>
	<path style="fill:#F7D11E;" d="M256.001,432.678c-11.938,0-21.651,9.712-21.651,21.651s9.712,21.651,21.651,21.651v36.023
		c-31.801,0-57.672-25.871-57.672-57.672s25.873-57.672,57.672-57.672"/>
	<path style="fill:#F7D11E;" d="M115.762,453.912c-15.406,0-29.889-5.999-40.781-16.893c-22.485-22.487-22.485-59.075,0-81.562
		c10.893-10.893,25.377-16.893,40.781-16.893s29.889,5.999,40.781,16.893c22.485,22.487,22.485,59.075,0,81.562
		C145.651,447.913,131.168,453.912,115.762,453.912z M115.762,374.588c-5.783,0-11.22,2.252-15.308,6.341
		c-8.441,8.442-8.441,22.177,0,30.618c4.089,4.089,9.526,6.341,15.308,6.341s11.22-2.252,15.308-6.341
		c8.441-8.442,8.441-22.177,0-30.618C126.982,376.841,121.546,374.588,115.762,374.588z"/>
	<path style="fill:#F7D11E;" d="M57.674,313.674c-31.8,0-57.672-25.871-57.672-57.674s25.873-57.672,57.672-57.672
		s57.672,25.872,57.672,57.672S89.475,313.674,57.674,313.674z M57.674,234.351c-11.938,0-21.651,9.712-21.651,21.651
		c0,11.939,9.712,21.651,21.651,21.651s21.651-9.712,21.651-21.651C79.324,244.062,69.612,234.351,57.674,234.351z"/>
	<path style="fill:#F7D11E;" d="M115.762,173.435c-15.406,0-29.889-5.999-40.781-16.893c-22.485-22.487-22.485-59.075,0-81.562
		c10.893-10.893,25.377-16.893,40.781-16.893s29.889,5.999,40.781,16.893c22.485,22.487,22.485,59.075,0,81.562
		C145.651,167.436,131.168,173.435,115.762,173.435z M115.762,94.111c-5.783,0-11.22,2.252-15.308,6.341
		c-8.441,8.442-8.441,22.177,0,30.618c4.089,4.089,9.526,6.341,15.308,6.341s11.22-2.252,15.308-6.341
		c8.441-8.442,8.441-22.177,0-30.618C126.982,96.364,121.546,94.111,115.762,94.111z"/>
</g>
<path style="fill:#68341D;" d="M256.001,43.742C138.962,43.742,43.744,138.961,43.744,256s95.218,212.258,212.257,212.258
	S468.258,373.039,468.258,256S373.04,43.742,256.001,43.742z"/>
<path style="fill:#91482C;" d="M256.001,43.742C138.962,43.742,43.744,138.961,43.744,256s95.218,212.258,212.257,212.258V43.742z"
	/>
<path style="fill:#D37F21;" d="M256.001,418.018c-89.336,0-162.018-72.68-162.018-162.018S166.665,93.983,256.001,93.983
	s162.018,72.681,162.018,162.018S345.338,418.018,256.001,418.018z M256.001,130.006c-69.474,0-125.995,56.521-125.995,125.995
	s56.521,125.995,125.995,125.995s125.995-56.521,125.995-125.995S325.475,130.006,256.001,130.006z"/>
<path style="fill:#F7931E;" d="M256.001,418.018c-89.336,0-162.018-72.68-162.018-162.018S166.665,93.983,256.001,93.983v36.023
	c-69.474,0-125.995,56.521-125.995,125.995s56.521,125.995,125.995,125.995V418.018z"/>
<g>
</g>
<g>
</g>
<g>
</g>
<g>
</g>
<g>
</g>
<g>
</g>
<g>
</g>
<g>
</g>
<g>
</g>
<g>
</g>
<g>
</g>
<g>
</g>
<g>
</g>
<g>
</g>
<g>
</g>
</svg>
