<?xml version="1.0" encoding="iso-8859-1"?>
<!-- Generator: Adobe Illustrator 19.0.0, SVG Export Plug-In . SVG Version: 6.00 Build 0)  -->
<svg version="1.1" id="Layer_1" xmlns="http://www.w3.org/2000/svg" xmlns:xlink="http://www.w3.org/1999/xlink" x="0px" y="0px"
	 viewBox="0 0 512.002 512.002" style="enable-background:new 0 0 512.002 512.002;" xml:space="preserve">
<path style="fill:#F7D11E;" d="M55.269,425.645c-7.162-7.162-7.162-18.776,0-25.94l16.429-16.429c7.162-7.162,18.776-7.162,25.94,0
	c7.163,7.162,7.162,18.776,0,25.94l-16.429,16.429C74.046,432.808,62.432,432.808,55.269,425.645z"/>
<g>
	<path style="fill:#D37F21;" d="M164.215,228.506l-18.158-18.158c-7.162-7.162-7.162-18.776,0-25.94
		c7.162-7.162,18.776-7.162,25.94,0l18.158,18.158c7.162,7.162,7.162,18.776,0,25.94
		C182.991,235.669,171.377,235.669,164.215,228.506z"/>
	<path style="fill:#D37F21;" d="M117.523,275.197l-18.158-18.158c-7.162-7.162-7.162-18.776,0-25.94
		c7.162-7.162,18.776-7.162,25.94,0l18.158,18.158c7.162,7.162,7.162,18.776,0,25.94C136.301,282.36,124.687,282.36,117.523,275.197
		z"/>
	<path style="fill:#D37F21;" d="M71.698,321.023L53.54,302.865c-7.162-7.162-7.162-18.776,0-25.94c7.162-7.162,18.776-7.162,25.94,0
		l18.158,18.158c7.162,7.162,7.162,18.776,0,25.94C90.475,328.186,78.86,328.186,71.698,321.023z"/>
</g>
<g>
	<path style="fill:#F7D11E;" d="M128.764,210.348c-7.162-7.162-7.162-18.776,0-25.94l18.158-18.158
		c7.162-7.162,18.776-7.162,25.94,0c7.162,7.162,7.162,18.776,0,25.94l-18.158,18.158
		C147.541,217.511,135.927,217.511,128.764,210.348z"/>
	<path style="fill:#F7D11E;" d="M82.073,257.039c-7.162-7.162-7.162-18.776,0-25.94l19.023-19.023c7.162-7.162,18.776-7.162,25.94,0
		c7.162,7.162,7.162,18.776,0,25.94l-19.023,19.023C100.85,264.201,89.236,264.201,82.073,257.039z"/>
	<path style="fill:#F7D11E;" d="M36.247,302.865c-7.162-7.162-7.162-18.776,0-25.94l18.158-18.158c7.162-7.162,18.776-7.162,25.94,0
		c7.162,7.162,7.162,18.776,0,25.94l-18.158,18.158C55.023,310.028,43.41,310.028,36.247,302.865z"/>
</g>
<path style="fill:#D37F21;" d="M324.482,35.897l-16.271,69.793c-6.719,28.821-21.37,55.185-42.295,76.11L69.673,378.04
	c-8.526,8.526-9.726,22.212-2.246,31.669c8.738,11.049,25.216,12.052,34.922,2.345L299.26,215.144
	c20.925-20.925,47.289-35.576,76.11-42.295l69.793-16.271"/>
<path style="fill:#F7931E;" d="M253.821,193.844L69.47,378.04c-8.526,8.526-9.624,22.212-2.145,31.669
	c8.738,11.049,25.063,12.052,34.769,2.345l152.133-151.879L253.821,193.844z"/>
<g>
	<path style="fill:#E3C000;" d="M446.101,159.163L321.963,35.025c-6.498-6.498-6.498-17.035,0-23.533l2.818-2.818
		c11.566-11.566,30.32-11.566,41.887,0l105.784,105.784c11.566,11.566,11.566,30.32,0,41.887l-2.818,2.818
		C463.135,165.662,452.599,165.662,446.101,159.163z"/>
	<path style="fill:#E3C000;" d="M376.761,260.77c-21.4-21.399-56.218-21.396-77.615,0.001l-7.895,7.895l-56.985-56.986
		c-16.197-16.196-42.549-16.194-58.745,0v0.001c-7.846,7.846-12.165,18.277-12.165,29.372c0,2.48,0.227,4.925,0.651,7.318
		c-2.392-0.423-4.836-0.644-7.318-0.644c-11.096,0-21.526,4.293-29.372,12.173h-0.001c-9.963,10.132-13.787,23.765-11.491,36.688
		c-2.4-0.426-4.853-0.659-7.342-0.659c-11.096,0-21.528,4.32-29.372,12.165c-16.196,16.196-16.196,42.547,0,58.743l57.38,57.38
		c-16.135,21.483-14.445,52.198,5.091,71.734c10.701,10.701,24.752,16.049,38.809,16.049c13.068,0,26.138-4.635,36.51-13.889
		c4.039,1.287,8.295,1.965,12.656,1.965c11.096,0,21.526-4.321,29.373-12.167c9.97-9.97,13.792-23.789,11.487-36.718
		c2.428,0.432,4.886,0.659,7.345,0.659c10.638,0,21.275-4.048,29.374-12.146c9.962-9.964,13.787-23.771,11.49-36.694
		c2.4,0.426,4.853,0.655,7.341,0.655c11.096,0,21.526-4.321,29.372-12.167c11.319-11.319,14.716-27.595,10.214-41.901l11.211-11.211
		C398.159,316.987,398.159,282.169,376.761,260.77z M325.084,286.71c3.547-3.547,8.208-5.322,12.868-5.322
		c4.661,0,9.322,1.774,12.869,5.322c7.095,7.096,7.095,18.641,0,25.737l-7.895,7.895l-25.737-25.737L325.084,286.71z
		 M310.121,353.148l-25.737-25.737l6.866-6.866l25.737,25.737L310.121,353.148z M187.973,423.821l6.866-6.866l25.737,25.737
		l-6.866,6.866L187.973,423.821z M236.178,375.616l6.866-6.866l25.737,25.737l-6.866,6.866L236.178,375.616z M201.459,237.62
		c1.894-1.892,4.974-1.895,6.867-0.001l56.985,56.985l-6.867,6.866l-56.986-56.985c-1.175-1.175-1.421-2.515-1.421-3.434
		C200.038,240.136,200.284,238.796,201.459,237.62z M153.255,285.826c1.175-1.175,2.515-1.422,3.431-1.422s2.258,0.247,3.434,1.422
		l56.985,56.985l-6.866,6.866l-56.984-56.985C151.362,290.799,151.362,287.718,153.255,285.826z M105.048,334.032L105.048,334.032
		c1.175-1.175,2.516-1.422,3.434-1.422c0.918,0,2.258,0.247,3.434,1.422l56.986,56.986l-6.866,6.866l-56.986-56.986
		C103.156,339.005,103.156,335.925,105.048,334.032z M167.519,470.012c-5.131-5.131-6.532-12.585-4.241-19.006l23.247,23.246
		C180.104,476.543,172.65,475.142,167.519,470.012z"/>
</g>
<path style="fill:#F7D11E;" d="M254.228,393.666l-18.05-18.05l6.866-6.866l11.184,11.184v-82.679l-52.77-52.769
	c-1.175-1.175-1.421-2.515-1.421-3.434c0-0.918,0.247-2.257,1.421-3.433c1.894-1.892,4.974-1.895,6.867-0.001l45.901,45.902
	l-0.408-52.286l-19.555-19.555c-16.197-16.196-42.549-16.194-58.745,0v0.001c-7.846,7.846-12.165,18.277-12.165,29.372
	c0,2.48,0.227,4.925,0.651,7.318c-2.392-0.423-4.836-0.651-7.318-0.651c-11.096,0-21.526,4.321-29.372,12.167h-0.001
	c-9.963,9.964-13.787,23.771-11.491,36.694c-2.4-0.426-4.853-0.655-7.342-0.655c-11.096,0-21.528,4.322-29.372,12.167
	c-16.196,16.196-16.196,42.547,0,58.744l57.38,57.38c-16.135,21.483-14.445,52.198,5.091,71.734
	c10.701,10.701,24.752,16.049,38.809,16.049c13.068,0,26.138-4.635,36.51-13.889c4.039,1.287,8.295,1.965,12.656,1.965
	c8.833,0,17.245-2.739,24.268-7.814L254.228,393.666z M153.255,285.826c1.175-1.175,2.515-1.422,3.431-1.422
	s2.258,0.247,3.434,1.422l56.985,56.985l-6.866,6.866l-56.984-56.985C151.362,290.799,151.362,287.718,153.255,285.826z
	 M105.049,340.898c-1.894-1.892-1.894-4.973-0.001-6.866v-0.001c1.175-1.175,2.516-1.422,3.434-1.422
	c0.918,0,2.258,0.247,3.434,1.422l56.986,56.986l-6.866,6.866L105.049,340.898z M167.519,470.012
	c-5.131-5.131-6.532-12.585-4.241-19.006l23.247,23.246C180.104,476.543,172.65,475.142,167.519,470.012z M213.71,449.558
	l-25.737-25.737l6.866-6.866l25.737,25.737L213.71,449.558z"/>
<g>
</g>
<g>
</g>
<g>
</g>
<g>
</g>
<g>
</g>
<g>
</g>
<g>
</g>
<g>
</g>
<g>
</g>
<g>
</g>
<g>
</g>
<g>
</g>
<g>
</g>
<g>
</g>
<g>
</g>
</svg>
