<?xml version="1.0" encoding="iso-8859-1"?>
<!-- Generator: Adobe Illustrator 19.0.0, SVG Export Plug-In . SVG Version: 6.00 Build 0)  -->
<svg version="1.1" id="Layer_1" xmlns="http://www.w3.org/2000/svg" xmlns:xlink="http://www.w3.org/1999/xlink" x="0px" y="0px"
	 viewBox="0 0 512 512" style="enable-background:new 0 0 512 512;" xml:space="preserve">
<path style="fill:#E3C000;" d="M498.867,101.136c-16.61-16.61-43.483-16.456-60.095,0.156L231.72,308.344
	c-7.752,7.752-20.715,7.401-28.467-0.35c-7.752-7.752-8.102-20.715-0.35-28.467L409.955,72.475
	c16.61-16.61,16.766-43.483,0.156-60.095c-16.61-16.61-43.483-16.456-60.095,0.156L142.964,219.589
	c-16.144,16.144-26.528,36.547-29.666,59.36c-2.422,17.619,0.516,36.644,5.728,52.181l-64.84,64.84
	c-11.512,2.29-24.623,6.923-34.295,16.595c-21.925,21.925-21.732,57.793,0.193,79.717c21.925,21.925,57.731,22.057,79.656,0.132
	c10.111-10.111,15.204-23.493,16.465-36.28l63.56-63.56c16.59,6.463,34.429,8.415,52.463,5.833
	c22.669-3.246,43.095-13.787,59.432-30.125l207.052-207.052C515.322,144.619,515.478,117.748,498.867,101.136z"/>
<path style="fill:#F7D11E;" d="M173.355,189.197l-30.392,30.39c-16.144,16.144-26.528,36.547-29.666,59.36
	c-2.422,17.619,0.516,36.644,5.728,52.181l-64.84,64.84c-11.512,2.29-24.623,6.924-34.295,16.595
	c-21.925,21.925-21.732,57.793,0.193,79.717s57.731,22.057,79.656,0.132c10.111-10.111,15.204-23.493,16.465-36.28l57.149-57.149
	V189.197H173.355z"/>
<path style="fill:#E6E6E6;" d="M17.862,494.889c-22.814-22.813-22.814-59.933,0-82.748c22.814-22.813,59.933-22.813,82.748,0
	c22.814,22.814,22.814,59.933,0,82.748C77.796,517.703,40.677,517.703,17.862,494.889z"/>
<g>
</g>
<g>
</g>
<g>
</g>
<g>
</g>
<g>
</g>
<g>
</g>
<g>
</g>
<g>
</g>
<g>
</g>
<g>
</g>
<g>
</g>
<g>
</g>
<g>
</g>
<g>
</g>
<g>
</g>
</svg>
