<?xml version="1.0" encoding="iso-8859-1"?>
<!-- Generator: Adobe Illustrator 19.0.0, SVG Export Plug-In . SVG Version: 6.00 Build 0)  -->
<svg version="1.1" id="Layer_1" xmlns="http://www.w3.org/2000/svg" xmlns:xlink="http://www.w3.org/1999/xlink" x="0px" y="0px"
	 viewBox="0 0 512 512" style="enable-background:new 0 0 512 512;" xml:space="preserve">
<g>
	<path style="fill:#351D08;" d="M493.182,120.678c-4.834,0-9.665-1.85-13.343-5.548l-11.26-11.321
		c-7.33-7.369-7.297-19.285,0.072-26.613c7.368-7.33,19.283-7.298,26.613,0.072l11.26,11.321c7.33,7.369,7.297,19.285-0.072,26.613
		C502.782,118.853,497.981,120.678,493.182,120.678z"/>
	<path style="fill:#351D08;" d="M462.021,152.262c-4.834,0-9.665-1.85-13.343-5.548l-11.26-11.321
		c-7.33-7.369-7.297-19.285,0.072-26.614c7.369-7.33,19.285-7.297,26.614,0.072l11.26,11.321c7.33,7.369,7.297,19.285-0.072,26.614
		C471.621,150.438,466.82,152.262,462.021,152.262z"/>
	<path style="fill:#351D08;" d="M422.212,49.708c-4.834,0-9.665-1.85-13.343-5.548l-11.26-11.321
		c-7.33-7.369-7.297-19.285,0.072-26.613c7.368-7.33,19.283-7.298,26.613,0.072l11.26,11.321c7.33,7.369,7.297,19.285-0.072,26.613
		C431.811,47.883,427.011,49.708,422.212,49.708z"/>
	<path style="fill:#351D08;" d="M391.052,81.292c-4.834,0-9.665-1.85-13.343-5.548l-11.26-11.321
		c-7.33-7.369-7.297-19.285,0.072-26.614c7.369-7.33,19.285-7.297,26.614,0.072l11.26,11.321c7.33,7.369,7.297,19.285-0.072,26.614
		C400.651,79.467,395.85,81.292,391.052,81.292z"/>
</g>
<path style="fill:#605348;" d="M270.572,278.719c-2.668,0-5.23-1.064-7.116-2.96l-27.351-27.514
	c-1.928-1.94-2.981-4.582-2.915-7.316c0.066-2.734,1.245-5.322,3.265-7.167l138.918-126.848c3.968-3.623,10.089-3.477,13.878,0.334
	l16.037,16.124c3.79,3.811,3.904,9.931,0.258,13.881L277.944,275.491c-1.856,2.011-4.452,3.176-7.186,3.227
	C270.696,278.719,270.634,278.719,270.572,278.719z"/>
<g>
	<path style="fill:#AE965B;" d="M421.726,144.02c-4.454,0-8.887-1.717-12.238-5.087l-35.691-35.885
		c-6.173-6.207-6.72-16.052-1.273-22.905l46.384-58.348c6.927-8.713,17.275-14.066,28.39-14.684
		c11.112-0.62,21.993,3.555,29.843,11.448l17.395,17.488c7.851,7.894,11.964,18.794,11.286,29.906
		c-0.678,11.111-6.086,21.43-14.837,28.311l-58.598,46.067C429.24,142.803,425.475,144.02,421.726,144.02z"/>
	<path style="fill:#AE965B;" d="M327.915,273.713l-4.41-18.641c-1.379-5.825-5.446-10.647-10.955-12.987l-29.89-12.697
		l-12.536-29.958c-2.311-5.521-7.111-9.615-12.929-11.025l-18.615-4.51c-34.521-8.364-70.113,7.786-86.552,39.272
		c-15.279,29.265-40.697,51.823-71.569,63.517l-28.564,10.819c-0.326,0.123-0.647,0.256-0.965,0.397
		c-25.94,11.506-44.46,35.043-49.544,62.958c-5.021,27.571,3.779,55.894,23.542,75.764l49.107,49.374
		c16.214,16.302,38.156,25.255,60.756,25.255c4.947,0,9.926-0.429,14.88-1.304c27.944-4.934,51.579-23.327,63.227-49.202
		c0.143-0.318,0.277-0.639,0.401-0.963l10.974-28.506c11.861-30.809,34.555-56.104,63.902-71.225
		C319.751,343.783,336.092,308.279,327.915,273.713z"/>
</g>
<path style="fill:#CAAF68;" d="M223.603,181.791c-29.435-1.256-57.514,14.439-71.576,41.375
	c-15.279,29.265-40.697,51.823-71.569,63.517l-28.564,10.819c-0.326,0.123-0.647,0.256-0.965,0.397
	C24.99,309.404,6.469,332.942,1.386,360.857c-5.021,27.571,3.779,55.894,23.542,75.764l49.107,49.374
	c16.214,16.301,38.156,25.255,60.756,25.255c4.947,0,9.926-0.429,14.88-1.304c27.944-4.934,51.579-23.327,63.227-49.202
	c0.143-0.318,0.277-0.639,0.401-0.963l10.305-26.767V181.791H223.603z"/>
<path style="fill:#605348;" d="M132.659,417.778c-4.834,0-9.665-1.85-13.343-5.548L98.15,390.949
	c-7.33-7.369-7.297-19.285,0.072-26.613c7.368-7.331,19.283-7.298,26.613,0.072l21.165,21.28c7.33,7.369,7.297,19.285-0.072,26.613
	C142.258,415.953,137.457,417.778,132.659,417.778z"/>
<path style="fill:#271507;" d="M211.631,340.157c-10.318,0-20.63-3.94-28.463-11.815c-15.609-15.695-15.54-41.163,0.154-56.773
	c7.576-7.536,17.625-11.682,28.306-11.682c0.037,0,0.074,0,0.112,0c10.723,0.029,20.791,4.232,28.354,11.834
	c15.61,15.695,15.541,41.163-0.154,56.773C232.121,336.271,221.874,340.157,211.631,340.157z"/>
<path style="fill:#351D08;" d="M211.631,340.157c-10.318,0-20.63-3.94-28.463-11.815c-15.609-15.695-15.54-41.163,0.154-56.773
	c7.576-7.536,17.625-11.682,28.306-11.682c0.037,0,0.074,0,0.112,0c4.084,0.012,8.073,0.627,11.865,1.807l0.001,76.647
	C219.713,339.552,215.672,340.157,211.631,340.157z"/>
<g>
</g>
<g>
</g>
<g>
</g>
<g>
</g>
<g>
</g>
<g>
</g>
<g>
</g>
<g>
</g>
<g>
</g>
<g>
</g>
<g>
</g>
<g>
</g>
<g>
</g>
<g>
</g>
<g>
</g>
</svg>
