<?xml version="1.0" encoding="iso-8859-1"?>
<!-- Generator: Adobe Illustrator 19.0.0, SVG Export Plug-In . SVG Version: 6.00 Build 0)  -->
<svg version="1.1" id="Layer_1" xmlns="http://www.w3.org/2000/svg" xmlns:xlink="http://www.w3.org/1999/xlink" x="0px" y="0px"
	 viewBox="0 0 512.002 512.002" style="enable-background:new 0 0 512.002 512.002;" xml:space="preserve">
<path style="fill:#605348;" d="M25.814,485.58c-7.889-7.962-7.829-20.811,0.133-28.699l33.638-33.328
	c7.962-7.889,20.811-7.829,28.699,0.133c7.889,7.962,7.829,20.811-0.133,28.699l-33.638,33.328
	C46.551,493.602,33.702,493.542,25.814,485.58z"/>
<path style="fill:#68341D;" d="M287.174,120.073c-30.947-6.147-62.925,3.476-85.338,25.682l0,0
	c-15.236,15.095-24.913,34.904-27.456,56.201l-4.225,35.394c-9.62,7.658-23.815,4.83-29.768-5.928l-0.713-1.29
	c-7.551-13.644-26.048-16.296-37.127-5.319l-34.683,34.363L39.777,275.55c-10.942,6.245-19.405,15.341-26.162,27.1
	C-8.764,341.599-1.51,390.863,30.106,422.774l14.168,14.3l30.216,30.498l14.168,14.3c31.615,31.909,80.811,39.621,119.965,17.604
	c11.822-6.648,20.995-15.026,27.342-25.909l16.633-27.935l34.683-34.363c11.078-10.975,8.599-29.497-4.975-37.174l-1.283-0.726
	c-10.702-6.053-13.397-20.273-5.651-29.822l35.432-3.897c21.32-2.345,41.216-11.838,56.453-26.933l0,0
	c22.413-22.206,32.334-54.095,26.473-85.096l0,0C376.507,177.375,337.259,137.76,287.174,120.073L287.174,120.073z"/>
<path style="fill:#91482C;" d="M253.747,119.444c-19.365,3.084-37.59,12.125-51.911,26.312
	c-15.236,15.096-24.913,34.904-27.456,56.201l-4.225,35.394c-9.62,7.658-23.815,4.83-29.768-5.928l-0.713-1.29
	c-7.551-13.644-26.049-16.296-37.127-5.319l-34.683,34.363L39.777,275.55c-10.942,6.245-19.405,15.341-26.162,27.1
	C-8.764,341.599-1.51,390.863,30.106,422.774l14.168,14.3l30.216,30.498l14.168,14.3c31.615,31.909,80.811,39.621,119.965,17.604
	c11.821-6.648,20.995-15.026,27.342-25.909l16.633-27.935l1.149-1.137V119.444z"/>
<path style="fill:#CAAF68;" d="M182.309,391.637c0.405-5.826-1.857-11.404-5.967-15.553l-39.641-40.01
	c-4.11-4.147-9.667-6.462-15.496-6.111c-5.828,0.35-11.154,3.124-14.737,7.735l-59.5,76.513c-6.256,8.049-5.732,19.656,1.443,26.898
	l22.079,22.285c7.176,7.242,18.811,7.84,26.918,1.659l76.927-58.654C178.981,402.859,181.905,397.461,182.309,391.637z"/>
<g>
	<path style="fill:#351D08;" d="M113.687,313.461c-4.807-4.852-7.052-12.014-5.306-19.133c2.671-10.886,13.659-17.546,24.545-14.875
		c4.108,1.009,8.496,0.257,12.037-2.06l4.948-3.238c12.804-8.381,28.684-11.155,43.57-7.61l3.466,0.826
		c10.904,2.595,17.635,13.541,15.039,24.444c-2.598,10.904-13.541,17.637-24.444,15.04l-3.465-0.826
		c-4.077-0.97-8.43-0.211-11.938,2.087l-4.945,3.236c-12.921,8.46-28.936,11.201-43.936,7.521
		C119.491,317.948,116.23,316.028,113.687,313.461z"/>
	<path style="fill:#351D08;" d="M198.741,399.307c-2.543-2.567-4.433-5.844-5.322-9.62c-3.541-15.034-0.651-31.023,7.928-43.866
		l3.283-4.914c2.329-3.487,3.129-7.831,2.195-11.919l-0.792-3.47c-2.496-10.927,4.339-21.807,15.266-24.304
		c10.924-2.496,21.807,4.338,24.303,15.266l0.793,3.472c3.406,14.919,0.485,30.773-8.013,43.498l-3.284,4.916
		c-2.351,3.52-3.143,7.9-2.173,12.018c2.569,10.909-4.192,21.836-15.102,24.406C210.69,406.469,203.547,404.158,198.741,399.307z"/>
</g>
<polygon style="fill:#271507;" points="470.169,74.437 437.882,42.15 219.917,245.115 267.205,292.403 "/>
<polygon style="fill:#351D08;" points="253.507,213.613 219.678,245.115 253.507,278.942 "/>
<path style="fill:#68341D;" d="M502.46,8.902c-11.87-11.87-31.181-11.87-43.049,0L417.673,50.64l43.049,43.049l41.737-41.737
	C514.33,40.083,514.33,20.772,502.46,8.902z"/>
<g>
</g>
<g>
</g>
<g>
</g>
<g>
</g>
<g>
</g>
<g>
</g>
<g>
</g>
<g>
</g>
<g>
</g>
<g>
</g>
<g>
</g>
<g>
</g>
<g>
</g>
<g>
</g>
<g>
</g>
</svg>
